<?xml version="1.0" standalone="no"?>
<!DOCTYPE svg PUBLIC "-//W3C//DTD SVG 20010904//EN"
 "http://www.w3.org/TR/2001/REC-SVG-20010904/DTD/svg10.dtd">
<svg version="1.0" xmlns="http://www.w3.org/2000/svg"
 width="128.000000pt" height="128.000000pt" viewBox="0 0 128.000000 128.000000"
 preserveAspectRatio="xMidYMid meet">

<g transform="translate(0.000000,128.000000) scale(0.100000,-0.100000)"
fill="#000000" stroke="none">
<path d="M335 1176 c-90 -26 -315 -128 -329 -148 -10 -16 97 -236 119 -244 8
-3 38 1 69 10 30 9 57 16 60 16 3 0 6 -160 6 -355 0 -340 1 -355 19 -365 27
-14 695 -14 722 0 18 10 19 25 19 365 0 195 3 355 6 355 3 0 30 -7 60 -16 31
-9 61 -13 69 -10 22 8 129 228 119 244 -25 38 -391 180 -428 166 -8 -3 -21
-25 -31 -50 -58 -152 -281 -156 -348 -5 -18 42 -34 62 -47 60 -3 0 -41 -11
-85 -23z"/>
<path d="M530 1162 c0 -32 61 -72 110 -72 49 0 110 40 110 72 0 2 -49 4 -110
4 -60 0 -110 -2 -110 -4z"/>
</g>
</svg>
