<?xml version="1.0" standalone="no"?>
<!DOCTYPE svg PUBLIC "-//W3C//DTD SVG 20010904//EN"
 "http://www.w3.org/TR/2001/REC-SVG-20010904/DTD/svg10.dtd">
<svg version="1.0" xmlns="http://www.w3.org/2000/svg"
 width="128.000000pt" height="128.000000pt" viewBox="0 0 128.000000 128.000000"
 preserveAspectRatio="xMidYMid meet">

<g transform="translate(0.000000,128.000000) scale(0.100000,-0.100000)"
fill="#000000" stroke="none">
<path d="M304 1220 c-28 -11 -61 -54 -69 -90 -7 -32 17 -95 40 -104 11 -4 13
-20 8 -69 -17 -185 135 -327 354 -328 115 -1 208 37 285 117 59 62 89 158 70
228 -8 28 -7 38 5 47 61 52 52 158 -17 194 -41 21 -82 19 -121 -8 -33 -23 -35
-23 -79 -6 -95 36 -224 33 -303 -8 -26 -13 -30 -12 -58 12 -31 26 -74 32 -115
15z m72 -71 c6 -11 -42 -69 -58 -69 -16 0 -8 59 10 69 22 14 39 14 48 0z m576
-6 c20 -18 22 -31 9 -52 -7 -11 -15 -6 -39 20 -17 19 -28 37 -26 41 8 13 37 9
56 -9z m-463 -137 c7 -8 11 -27 9 -43 -6 -50 -78 -40 -78 11 0 41 45 62 69 32z
m362 -7 c17 -33 -4 -71 -38 -67 -36 4 -50 29 -35 62 15 33 56 35 73 5z m-144
-105 c3 -9 -5 -27 -22 -44 -39 -41 -31 -66 23 -62 44 2 52 -7 27 -31 -17 -18
-172 -21 -192 -5 -27 22 -14 37 30 35 36 -2 42 1 45 20 2 14 -5 27 -22 39 -25
15 -34 43 -19 57 3 4 33 7 65 7 44 0 60 -4 65 -16z"/>
<path d="M339 642 c-20 -15 -48 -41 -63 -59 -26 -30 -77 -128 -90 -170 -7 -21
-6 -21 48 5 53 26 56 29 75 92 11 36 34 86 50 113 35 54 31 58 -20 19z"/>
<path d="M951 594 c21 -41 42 -93 45 -115 5 -32 13 -43 33 -50 14 -6 41 -25
60 -42 l34 -32 -7 35 c-17 92 -109 231 -177 265 l-27 14 39 -75z"/>
<path d="M810 623 c-43 -21 -74 -27 -150 -31 -93 -4 -125 2 -232 43 -13 5 -24
-9 -51 -67 -20 -40 -38 -85 -41 -100 -5 -23 -2 -27 25 -33 39 -9 95 -58 119
-105 26 -51 33 -98 22 -147 l-10 -43 37 -9 c68 -18 131 -23 196 -16 65 7 65 7
57 33 -4 15 -7 54 -7 88 1 100 64 182 154 200 31 7 32 8 26 43 -7 38 -73 172
-84 170 -3 0 -31 -12 -61 -26z m-138 -134 c40 15 72 -7 76 -52 3 -34 -2 -44
-41 -83 -24 -24 -54 -44 -65 -44 -28 0 -99 68 -108 104 -12 51 35 92 86 75 17
-6 36 -6 52 0z"/>
<path d="M239 377 c-42 -28 -79 -98 -79 -152 0 -50 35 -122 73 -149 40 -30
121 -29 163 1 67 48 91 170 48 243 -45 77 -136 103 -205 57z m131 -89 c24 -39
25 -79 5 -117 -40 -79 -135 -41 -135 54 0 58 30 95 76 95 28 0 38 -6 54 -32z"/>
<path d="M889 377 c-76 -51 -100 -152 -56 -237 58 -115 195 -120 257 -9 85
153 -65 338 -201 246z m106 -63 c21 -8 45 -56 45 -89 0 -33 -24 -81 -45 -89
-58 -22 -105 18 -105 89 0 71 47 111 105 89z"/>
</g>
</svg>
