<?xml version="1.0" standalone="no"?>
<!DOCTYPE svg PUBLIC "-//W3C//DTD SVG 20010904//EN"
 "http://www.w3.org/TR/2001/REC-SVG-20010904/DTD/svg10.dtd">
<svg version="1.0" xmlns="http://www.w3.org/2000/svg"
 width="128.000000pt" height="128.000000pt" viewBox="0 0 128.000000 128.000000"
 preserveAspectRatio="xMidYMid meet">

<g transform="translate(0.000000,128.000000) scale(0.100000,-0.100000)"
fill="#000000" stroke="none">
<path d="M272 1210 c-9 -15 -19 -18 -42 -14 -31 7 -34 3 -30 -43 1 -13 -7 -26
-19 -33 -27 -14 -27 -47 0 -55 17 -6 20 -13 15 -35 -6 -33 11 -52 41 -44 15 4
26 0 35 -15 14 -24 58 -29 58 -7 0 17 24 28 45 20 24 -10 42 12 37 45 -3 23 0
30 17 36 27 8 27 41 0 56 -15 8 -20 18 -16 35 5 29 -15 48 -42 39 -14 -4 -24
0 -33 14 -16 27 -49 27 -66 1z m78 -70 c20 -20 26 -65 12 -86 -13 -20 -52 -35
-72 -29 -33 10 -50 35 -50 70 0 58 69 86 110 45z"/>
<path d="M629 1038 c-15 -36 -58 -50 -85 -27 -12 10 -20 8 -41 -14 -24 -23
-25 -29 -14 -50 19 -35 10 -60 -26 -77 -27 -12 -33 -21 -33 -48 0 -22 6 -35
18 -39 48 -17 64 -54 40 -93 -20 -32 11 -55 75 -55 47 0 53 -3 65 -28 16 -33
33 -41 67 -33 15 4 25 13 25 25 0 31 25 44 73 37 36 -6 46 -3 61 13 16 18 17
25 6 51 -10 25 -10 34 4 55 9 14 25 25 36 25 17 0 20 7 20 39 0 33 -4 40 -25
45 -36 9 -50 41 -34 78 11 27 10 32 -14 55 -21 22 -29 24 -41 14 -8 -7 -27
-11 -42 -9 -26 3 -37 14 -48 51 -4 12 -16 17 -39 17 -28 0 -36 -5 -48 -32z
m101 -113 c41 -21 60 -53 60 -103 0 -55 -28 -96 -75 -112 -49 -16 -89 -4 -125
36 -85 98 25 239 140 179z"/>
<path d="M1069 799 c-8 -15 -18 -20 -35 -16 -29 5 -50 -17 -46 -49 2 -15 -4
-26 -17 -34 -27 -14 -27 -46 0 -53 16 -4 20 -12 18 -34 -5 -41 7 -53 42 -46
25 5 31 2 36 -16 7 -28 44 -28 61 0 9 15 20 19 35 15 30 -8 47 11 41 44 -5 22
-2 29 15 35 27 8 27 41 0 56 -17 8 -20 17 -15 40 6 33 -7 45 -46 40 -18 -2
-30 4 -38 18 -14 27 -36 27 -51 0z m69 -75 c15 -10 22 -25 22 -49 0 -59 -54
-91 -99 -58 -74 55 1 160 77 107z"/>
<path d="M445 530 c-44 -10 -215 -91 -215 -102 0 -8 87 -224 97 -240 2 -5 22
1 43 12 53 27 79 25 201 -11 77 -23 115 -30 149 -26 38 5 424 147 479 177 28
15 46 66 33 95 -19 42 -59 41 -221 -5 -143 -41 -149 -44 -155 -71 -7 -34 -37
-66 -69 -74 -35 -9 -282 58 -282 76 0 19 22 17 148 -16 130 -35 160 -30 165
26 4 47 -14 61 -117 88 -47 13 -105 33 -130 46 -57 28 -87 35 -126 25z"/>
<path d="M93 464 c-29 -13 -53 -27 -53 -31 0 -5 35 -92 77 -195 57 -137 82
-188 95 -188 25 0 108 38 108 50 0 20 -154 379 -164 383 -6 2 -35 -7 -63 -19z"/>
</g>
</svg>
