<svg  width="1600" height="1300" viewBox="0 0 909 629" fill="none" xmlns="http://www.w3.org/2000/svg">
<rect width="909" height="629" fill="none"/>
<g id="Frame 1" clip-path="url(#clip0_0_1)">
<g id="Store-201">
<rect id="Rectangle 1" x="1.5" y="482.5" width="87" height="69" transform="rotate(-90 1.5 482.5)" fill="#C28185" stroke="#A54762" stroke-width="3"/>
<g id="close 1">
<g id="Group_1">
<path id="Vector" d="M24.5625 418.9C21.1875 419.875 12.75 423.7 12.225 424.45C11.85 425.05 15.8625 433.3 16.6875 433.6C16.9875 433.712 18.1125 433.562 19.275 433.225C20.4 432.887 21.4125 432.625 21.525 432.625C21.6375 432.625 21.75 438.625 21.75 445.937C21.75 458.687 21.7875 459.25 22.4625 459.625C23.475 460.15 48.525 460.15 49.5375 459.625C50.2125 459.25 50.25 458.687 50.25 445.937C50.25 438.625 50.3625 432.625 50.475 432.625C50.5875 432.625 51.6 432.887 52.725 433.225C53.8875 433.562 55.0125 433.712 55.3125 433.6C56.1375 433.3 60.15 425.05 59.775 424.45C58.8375 423.025 45.1125 417.7 43.725 418.225C43.425 418.337 42.9375 419.162 42.5625 420.1C40.3875 425.8 32.025 425.95 29.5125 420.287C28.8375 418.712 28.2375 417.962 27.75 418.037C27.6375 418.037 26.2125 418.45 24.5625 418.9Z" fill="black"/>
<path id="Vector_2" d="M31.875 419.425C31.875 420.625 34.1625 422.125 36 422.125C37.8375 422.125 40.125 420.625 40.125 419.425C40.125 419.35 38.2875 419.275 36 419.275C33.75 419.275 31.875 419.35 31.875 419.425Z" fill="black"/>
</g>
</g>
</g>
<rect id="Rectangle 2" x="71.5" y="468.5" width="73" height="122" transform="rotate(-90 71.5 468.5)" fill="#B23756" stroke="#A54762" stroke-width="3"/>
<g id="Store-202">
<g id="Rectangle 3" filter="url(#filter0_d_0_1)">
<rect x="82" y="430" width="30" height="35" transform="rotate(-90 82 430)" fill="#C28185"/>
</g>
<g id="close 2">
<g id="Group_2">
<path id="Vector_3" d="M95.2344 406.625C93.8281 407.031 90.3125 408.625 90.0938 408.938C89.9375 409.188 91.6094 412.625 91.9531 412.75C92.0781 412.797 92.5469 412.734 93.0313 412.594C93.5 412.453 93.9219 412.344 93.9688 412.344C94.0156 412.344 94.0625 414.844 94.0625 417.891C94.0625 423.203 94.0781 423.438 94.3594 423.594C94.7813 423.812 105.219 423.812 105.641 423.594C105.922 423.438 105.938 423.203 105.938 417.891C105.938 414.844 105.984 412.344 106.031 412.344C106.078 412.344 106.5 412.453 106.969 412.594C107.453 412.734 107.922 412.797 108.047 412.75C108.391 412.625 110.062 409.188 109.906 408.938C109.516 408.344 103.797 406.125 103.219 406.344C103.094 406.391 102.891 406.734 102.734 407.125C101.828 409.5 98.3438 409.562 97.2969 407.203C97.0156 406.547 96.7656 406.234 96.5625 406.266C96.5156 406.266 95.9219 406.438 95.2344 406.625Z" fill="black"/>
<path id="Vector_4" d="M98.2812 406.844C98.2812 407.344 99.2344 407.969 100 407.969C100.766 407.969 101.719 407.344 101.719 406.844C101.719 406.812 100.953 406.781 100 406.781C99.0625 406.781 98.2812 406.812 98.2812 406.844Z" fill="black"/>
</g>
</g>
</g>
<g id="Store-203">
<g id="Rectangle 4" filter="url(#filter1_d_0_1)">
<rect x="133" y="430" width="30" height="35" transform="rotate(-90 133 430)" fill="#C28185"/>
</g>
<g id="body 1">
<g id="Group_3">
<path id="Vector_5" d="M145.758 404.484C145.699 404.66 145.641 405.52 145.641 406.418C145.641 407.922 145.602 408.117 144.957 409.152C144.586 409.777 144.215 410.598 144.156 410.949C143.961 412.004 144.176 413.527 144.605 414.094L144.996 414.621H151.5H158.004L158.395 414.094C158.824 413.508 159.059 411.848 158.844 410.754C158.785 410.402 158.414 409.582 158.043 408.957C157.418 407.941 157.359 407.707 157.359 406.32C157.359 404.621 157.262 404.172 156.852 404.172C156.637 404.172 156.578 404.562 156.578 405.91V407.668L155.387 408.293C154.137 408.957 152.457 410.637 151.93 411.73C151.754 412.082 151.578 412.375 151.52 412.375C151.461 412.375 151.188 412.004 150.934 411.555C150.191 410.266 148.766 408.859 147.555 408.254L146.422 407.688V405.93C146.422 404.562 146.363 404.172 146.148 404.172C145.992 404.172 145.816 404.309 145.758 404.484Z" fill="black"/>
<path id="Vector_6" d="M145.484 416.027L145.543 416.574H151.5H157.457L157.516 416.027L157.574 415.5H151.5H145.426L145.484 416.027Z" fill="black"/>
<path id="Vector_7" d="M144.801 419.797C144.605 420.441 144.469 421.047 144.469 421.145C144.469 421.262 144.977 421.691 145.602 422.102C146.852 422.961 149.176 425.324 149.645 426.242C149.938 426.828 149.977 426.828 151.5 426.828C153.023 426.828 153.062 426.809 153.355 426.242C153.824 425.344 155.934 423.176 157.301 422.199C157.984 421.711 158.531 421.242 158.531 421.145C158.531 420.617 157.848 418.625 157.672 418.625C157.555 418.625 156.793 418.762 155.992 418.938C154.996 419.152 153.57 419.27 151.5 419.27C149.43 419.27 148.004 419.152 147.008 418.938C146.207 418.762 145.445 418.625 145.328 418.625C145.211 418.625 144.977 419.152 144.801 419.797ZM152.477 421.281C152.477 421.633 152.086 421.828 151.852 421.594C151.695 421.438 151.52 421.438 151.246 421.574C150.973 421.73 150.816 421.73 150.641 421.555C150.484 421.379 150.562 421.223 150.973 420.852C151.48 420.402 151.539 420.402 151.988 420.695C152.262 420.871 152.477 421.125 152.477 421.281Z" fill="black"/>
</g>
</g>
</g>
<rect id="Rectangle 5" x="173.5" y="395.5" width="61" height="20" transform="rotate(-90 173.5 395.5)" fill="#B23756" stroke="#A54762" stroke-width="3"/>
<path id="Vector 1" d="M177.102 398.845C177.102 397.108 177.102 395.444 177.102 393.726C177.102 393.416 177.169 391.884 176.831 392.754C176.689 393.119 176.374 393.265 176.166 393.59C175.922 393.974 176.15 394.724 176.05 395.166C175.904 395.806 175.847 396.472 175.748 397.122C175.655 397.737 175.29 398.649 175.44 399.288C175.607 399.994 177.64 397.902 177.766 397.762C178.229 397.251 178.403 396.968 178.591 396.359C179.037 394.917 179.448 393.426 179.686 391.935C179.697 391.866 179.871 390.236 179.871 390.858C179.871 392.926 180.006 394.957 179.871 397.03C179.774 398.505 179.752 399.976 179.76 401.454C179.765 402.298 179.863 402.076 180.111 401.417C181.107 398.759 181.295 395.851 181.532 393.049C181.541 392.948 181.725 391.374 181.747 391.769C181.791 392.536 181.851 393.243 182.086 393.984C182.436 395.09 182.845 396.14 183.021 397.295C183.028 397.342 183.186 398.677 183.378 398.415C183.662 398.027 183.693 397.48 183.747 397.024C183.904 395.722 184.153 394.453 184.436 393.172C184.701 391.974 184.951 390.782 185.119 389.566C185.197 389.009 185.187 388.996 185.187 389.566C185.187 392.579 185.249 395.583 185.495 398.587C185.563 399.418 185.526 398.177 185.532 398.045C185.587 396.768 185.806 395.52 186.049 394.267C186.17 393.641 186.292 393.016 186.381 392.384C186.412 392.163 186.56 391.604 186.676 392.194C186.952 393.597 186.897 395.122 186.959 396.544C187.021 397.961 187.07 399.378 187.07 400.796C187.07 401.206 187.079 400.768 187.095 400.679C187.189 400.149 187.345 399.621 187.47 399.098C188.255 395.82 188.608 392.512 189.156 389.191C189.17 389.108 189.236 388.72 189.273 388.563C189.282 388.523 189.285 388.645 189.285 388.686C189.285 389.878 189.277 391.07 189.31 392.261C189.355 393.887 189.491 395.507 189.611 397.128C189.693 398.229 190.322 396.921 190.516 396.532C191.139 395.279 191.293 394.561 190.836 393.418" stroke="#B23756" stroke-width="2" stroke-linecap="round"/>
<g id="Store-204">
<rect id="Rectangle 6" x="127.5" y="334.5" width="120" height="111" transform="rotate(-90 127.5 334.5)" fill="#C28185" stroke="#A54762" stroke-width="3"/>
<g id="Decor 1">
<g id="Group_4">
<path id="Vector_8" opacity="0.965" fill-rule="evenodd" clip-rule="evenodd" d="M183.261 253.206C183.392 253.191 183.52 253.207 183.644 253.254C190.247 258.262 196.851 263.271 203.454 268.279C201.412 268.343 199.371 268.343 197.329 268.279C192.863 264.802 188.397 261.325 183.931 257.848C183.612 257.656 183.293 257.656 182.974 257.848C178.507 261.325 174.041 264.802 169.575 268.279C167.534 268.343 165.492 268.343 163.45 268.279C170.095 263.299 176.698 258.275 183.261 253.206Z" fill="black"/>
</g>
<g id="Group_5">
<path id="Vector_9" opacity="0.982" fill-rule="evenodd" clip-rule="evenodd" d="M183.261 259.331C183.392 259.316 183.52 259.332 183.644 259.379C187.894 262.724 192.152 266.058 196.42 269.38C196.468 275.409 196.484 281.438 196.468 287.468C194.171 287.468 191.874 287.468 189.577 287.468C189.561 287.147 189.577 286.828 189.625 286.511C191.014 285.724 191.365 284.608 190.678 283.161C190.227 282.577 189.637 282.226 188.907 282.108C190.564 280.212 192.239 278.33 193.932 276.462C194.247 275.72 194.008 275.338 193.214 275.313C191.124 275.286 189.306 275.956 187.759 277.323C187.727 277.259 187.695 277.196 187.663 277.132C188.142 274.725 188.254 272.3 187.998 269.858C187.957 269.419 187.718 269.195 187.28 269.188C187.03 269.194 186.823 269.29 186.658 269.476C185.586 271.206 184.693 273.024 183.979 274.931C183.516 272.715 182.751 270.609 181.682 268.614C181.117 268.277 180.702 268.405 180.437 268.997C179.385 271.614 178.89 274.325 178.954 277.132C177.279 275.803 175.365 275.213 173.212 275.361C172.81 275.647 172.731 276.013 172.973 276.462C174.665 278.33 176.34 280.212 177.997 282.108C176.078 282.629 175.488 283.809 176.227 285.649C176.522 286.009 176.873 286.296 177.279 286.511C177.327 286.828 177.343 287.147 177.327 287.468C175.03 287.468 172.733 287.468 170.437 287.468C170.421 281.438 170.437 275.409 170.484 269.38C174.776 266.063 179.035 262.713 183.261 259.331Z" fill="black"/>
</g>
<g id="Group_6">
<path id="Vector_10" opacity="0.996" fill-rule="evenodd" clip-rule="evenodd" d="M162.015 269.858C164.312 269.858 166.608 269.858 168.905 269.858C168.921 275.92 168.905 281.981 168.857 288.042C166.592 290.307 164.327 292.572 162.062 294.837C162.015 286.511 161.999 278.185 162.015 269.858Z" fill="black"/>
</g>
<g id="Group_7">
<path id="Vector_11" opacity="0.996" fill-rule="evenodd" clip-rule="evenodd" d="M197.999 269.858C200.296 269.858 202.593 269.858 204.89 269.858C204.906 278.185 204.89 286.511 204.842 294.837C202.577 292.572 200.312 290.307 198.047 288.042C197.999 281.981 197.983 275.92 197.999 269.858Z" fill="black"/>
</g>
<g id="Group_8">
<path id="Vector_12" opacity="0.93" fill-rule="evenodd" clip-rule="evenodd" d="M181.155 271.198C181.364 271.325 181.508 271.516 181.586 271.772C182.91 275.09 183.101 278.471 182.16 281.917C181.969 282.172 181.777 282.172 181.586 281.917C180.192 278.391 180.049 274.818 181.155 271.198Z" fill="black"/>
</g>
<g id="Group_9">
<path id="Vector_13" opacity="0.888" fill-rule="evenodd" clip-rule="evenodd" d="M186.61 272.442C186.727 275.78 186.058 278.97 184.601 282.013C184.487 282.102 184.359 282.133 184.218 282.108C184.251 278.693 185.048 275.471 186.61 272.442Z" fill="black"/>
</g>
<g id="Group_10">
<path id="Vector_14" opacity="0.849" fill-rule="evenodd" clip-rule="evenodd" d="M175.413 277.132C177.204 277.305 178.496 278.231 179.289 279.907C179.534 280.62 179.805 281.322 180.103 282.013C179.934 282.133 179.791 282.101 179.672 281.917C178.265 280.303 176.846 278.708 175.413 277.132Z" fill="black"/>
</g>
<g id="Group_11">
<path id="Vector_15" opacity="0.85" fill-rule="evenodd" clip-rule="evenodd" d="M191.013 277.036C191.175 277.021 191.335 277.037 191.491 277.084C190.005 278.793 188.489 280.468 186.945 282.108C186.897 282.077 186.85 282.045 186.802 282.013C187.099 281.322 187.371 280.62 187.615 279.907C188.329 278.444 189.461 277.487 191.013 277.036Z" fill="black"/>
</g>
<g id="Group_12">
<path id="Vector_16" opacity="0.988" fill-rule="evenodd" clip-rule="evenodd" d="M177.71 283.64C181.538 283.624 185.366 283.64 189.194 283.688C189.483 283.834 189.611 284.073 189.577 284.405C189.611 284.737 189.483 284.977 189.194 285.123C185.366 285.187 181.538 285.187 177.71 285.123C177.421 284.977 177.294 284.737 177.327 284.405C177.306 284.064 177.434 283.809 177.71 283.64Z" fill="black"/>
</g>
<g id="Group_13">
<path id="Vector_17" opacity="0.998" fill-rule="evenodd" clip-rule="evenodd" d="M178.858 286.702C181.921 286.702 184.983 286.702 188.046 286.702C188.092 288.689 188.044 290.667 187.902 292.636C187.831 292.696 187.751 292.744 187.663 292.779C184.856 292.843 182.048 292.843 179.241 292.779C179.154 292.744 179.074 292.696 179.002 292.636C178.861 290.667 178.813 288.689 178.858 286.702Z" fill="black"/>
</g>
<g id="Group_14">
<path id="Vector_18" opacity="0.991" fill-rule="evenodd" clip-rule="evenodd" d="M169.862 288.999C172.351 288.999 174.839 288.999 177.327 288.999C177.291 290.216 177.339 291.428 177.471 292.636C177.825 293.66 178.543 294.218 179.624 294.311C182.176 294.374 184.728 294.374 187.28 294.311C188.361 294.218 189.079 293.66 189.434 292.636C189.565 291.428 189.613 290.216 189.577 288.999C192.066 288.983 194.554 288.999 197.042 289.047C199.307 291.312 201.572 293.577 203.837 295.842C190.247 295.906 176.657 295.906 163.067 295.842C165.352 293.574 167.617 291.293 169.862 288.999Z" fill="black"/>
</g>
</g>
</g>
<rect id="Rectangle 7" x="193.5" y="538.5" width="143" height="351" transform="rotate(-90 193.5 538.5)" fill="#B23756" stroke="#A54762" stroke-width="3"/>
<g id="Store-205" filter="url(#filter2_d_0_1)">
<g id="Rectangle 4_2" filter="url(#filter3_d_0_1)">
<rect x="354" y="529" width="30" height="35" transform="rotate(-90 354 529)" fill="#C28185"/>
</g>
<g id="acsessuar 1">
<g id="Group_15">
<path id="Vector_19" d="M369.648 503.992C368.945 504.324 368.789 505.008 368.77 508.016L368.75 510.887L368.105 508.348C367.441 505.809 367.168 505.32 366.406 505.32C365.82 505.32 365.234 506.062 365.352 506.648C365.41 506.941 365.645 508.27 365.859 509.617C366.484 513.406 366.367 513.113 367.09 513.016C367.461 512.957 368.203 513.074 368.867 513.309C369.512 513.543 370.039 513.719 370.059 513.719C370.078 513.719 369.844 512.254 369.551 510.438C369.238 508.641 368.984 506.98 368.984 506.746C368.984 506.043 369.961 505.086 370.82 504.949C371.563 504.832 371.563 504.832 371.211 504.402C370.742 503.875 370.176 503.738 369.648 503.992Z" fill="black"/>
<path id="Vector_20" d="M374.297 503.953C373.613 504.246 373.477 504.93 373.457 508.211V511.277L372.793 508.875C372.109 506.355 371.895 505.906 371.328 505.906C369.941 505.906 369.883 506.336 370.723 511.238C371.133 513.563 371.426 515.477 371.387 515.477C371.367 515.477 370.449 515.125 369.336 514.676L367.344 513.895L366.855 514.266C366.328 514.656 366.113 515.457 366.406 515.965C366.484 516.141 367.109 516.609 367.754 517C369.277 517.938 371.914 520.945 371.914 521.766V522.312H376.895H381.855L381.914 518.348C381.973 514.695 382.031 514.168 382.656 511.238C383.32 508.133 383.32 508.074 382.969 507.684C382.559 507.215 381.465 507.117 381.133 507.508C381.016 507.645 380.566 508.641 380.137 509.715L379.316 511.668L379.434 510.008C379.492 509.09 379.59 507.723 379.668 506.961C379.746 505.828 379.707 505.535 379.434 505.262C379.062 504.871 378.105 504.832 377.812 505.164C377.695 505.301 377.422 506.727 377.187 508.348C376.758 511.258 376.602 511.961 376.602 510.867C376.602 510.555 376.504 509.031 376.406 507.469C376.211 504.793 376.172 504.617 375.703 504.188C375.176 503.719 374.98 503.68 374.297 503.953Z" fill="black"/>
<path id="Vector_21" d="M361.953 513.914C361.152 514.715 361.523 515.594 363.027 516.453C364.434 517.254 367.227 520.398 367.227 521.18V521.727H369.004C371.016 521.727 370.996 521.883 369.316 519.812C368.574 518.914 367.773 518.191 367.09 517.801C365.82 517.078 365.273 516.277 365.273 515.164C365.273 514.363 365.254 514.363 364.18 513.934C362.832 513.426 362.441 513.426 361.953 513.914Z" fill="black"/>
<path id="Vector_22" d="M367.266 523.621L367.324 524.363L369.141 524.422L370.938 524.48V523.68V522.898H369.062H367.207L367.266 523.621Z" fill="black"/>
<path id="Vector_23" d="M372.051 523.426C371.973 523.484 371.914 523.836 371.914 524.207V524.852H376.895H381.875V524.07V523.289H377.031C374.355 523.289 372.109 523.348 372.051 523.426Z" fill="black"/>
</g>
</g>
</g>
<g id="Store-206" filter="url(#filter4_d_0_1)">
<rect id="Rectangle 8" x="372" y="432" width="30" height="35" transform="rotate(-90 372 432)" fill="#C28185"/>
<g id="close 3">
<g id="Group_16">
<path id="Vector_24" d="M384.543 407.031C382.785 407.539 378.391 409.531 378.117 409.922C377.922 410.234 380.012 414.531 380.441 414.688C380.598 414.746 381.184 414.668 381.789 414.492C382.375 414.316 382.902 414.18 382.961 414.18C383.02 414.18 383.078 417.305 383.078 421.113C383.078 427.754 383.098 428.047 383.449 428.242C383.977 428.516 397.023 428.516 397.551 428.242C397.902 428.047 397.922 427.754 397.922 421.113C397.922 417.305 397.98 414.18 398.039 414.18C398.098 414.18 398.625 414.316 399.211 414.492C399.816 414.668 400.402 414.746 400.559 414.688C400.988 414.531 403.078 410.234 402.883 409.922C402.395 409.18 395.246 406.406 394.523 406.68C394.367 406.738 394.113 407.168 393.918 407.656C392.785 410.625 388.43 410.703 387.121 407.754C386.77 406.934 386.457 406.543 386.203 406.582C386.145 406.582 385.402 406.797 384.543 407.031Z" fill="black"/>
<path id="Vector_25" d="M388.352 407.305C388.352 407.93 389.543 408.711 390.5 408.711C391.457 408.711 392.648 407.93 392.648 407.305C392.648 407.266 391.691 407.227 390.5 407.227C389.328 407.227 388.352 407.266 388.352 407.305Z" fill="black"/>
</g>
</g>
</g>
<g id="Store-207" filter="url(#filter5_d_0_1)">
<rect id="Rectangle 10" x="400" y="529" width="30" height="35" transform="rotate(-90 400 529)" fill="#C28185"/>
<g id="body 2">
<g id="Group_17">
<path id="Vector_26" d="M411.758 503.484C411.699 503.66 411.641 504.52 411.641 505.418C411.641 506.922 411.602 507.117 410.957 508.152C410.586 508.777 410.215 509.598 410.156 509.949C409.961 511.004 410.176 512.527 410.605 513.094L410.996 513.621H417.5H424.004L424.395 513.094C424.824 512.508 425.059 510.848 424.844 509.754C424.785 509.402 424.414 508.582 424.043 507.957C423.418 506.941 423.359 506.707 423.359 505.32C423.359 503.621 423.262 503.172 422.852 503.172C422.637 503.172 422.578 503.562 422.578 504.91V506.668L421.387 507.293C420.137 507.957 418.457 509.637 417.93 510.73C417.754 511.082 417.578 511.375 417.52 511.375C417.461 511.375 417.188 511.004 416.934 510.555C416.191 509.266 414.766 507.859 413.555 507.254L412.422 506.688V504.93C412.422 503.562 412.363 503.172 412.148 503.172C411.992 503.172 411.816 503.309 411.758 503.484Z" fill="black"/>
<path id="Vector_27" d="M411.484 515.027L411.543 515.574H417.5H423.457L423.516 515.027L423.574 514.5H417.5H411.426L411.484 515.027Z" fill="black"/>
<path id="Vector_28" d="M410.801 518.797C410.605 519.441 410.469 520.047 410.469 520.145C410.469 520.262 410.977 520.691 411.602 521.102C412.852 521.961 415.176 524.324 415.645 525.242C415.938 525.828 415.977 525.828 417.5 525.828C419.023 525.828 419.062 525.809 419.355 525.242C419.824 524.344 421.934 522.176 423.301 521.199C423.984 520.711 424.531 520.242 424.531 520.145C424.531 519.617 423.848 517.625 423.672 517.625C423.555 517.625 422.793 517.762 421.992 517.938C420.996 518.152 419.57 518.27 417.5 518.27C415.43 518.27 414.004 518.152 413.008 517.938C412.207 517.762 411.445 517.625 411.328 517.625C411.211 517.625 410.977 518.152 410.801 518.797ZM418.477 520.281C418.477 520.633 418.086 520.828 417.852 520.594C417.695 520.438 417.52 520.438 417.246 520.574C416.973 520.73 416.816 520.73 416.641 520.555C416.484 520.379 416.562 520.223 416.973 519.852C417.48 519.402 417.539 519.402 417.988 519.695C418.262 519.871 418.477 520.125 418.477 520.281Z" fill="black"/>
</g>
</g>
</g>
<g id="Store-208" filter="url(#filter6_d_0_1)">
<rect id="Rectangle 9" x="417" y="432" width="30" height="35" transform="rotate(-90 417 432)" fill="#C28185"/>
<g id="Decor 2">
<g id="Group_18">
<path id="Vector_29" opacity="0.965" fill-rule="evenodd" clip-rule="evenodd" d="M434.378 405.636C434.445 405.628 434.51 405.636 434.573 405.66C437.942 408.215 441.312 410.771 444.681 413.326C443.639 413.359 442.597 413.359 441.556 413.326C439.277 411.552 436.998 409.778 434.72 408.004C434.557 407.906 434.394 407.906 434.231 408.004C431.953 409.778 429.674 411.552 427.396 413.326C426.354 413.359 425.312 413.359 424.271 413.326C427.661 410.785 431.03 408.222 434.378 405.636Z" fill="black"/>
</g>
<g id="Group_19">
<path id="Vector_30" opacity="0.982" fill-rule="evenodd" clip-rule="evenodd" d="M434.378 408.761C434.445 408.753 434.51 408.761 434.573 408.785C436.742 410.492 438.915 412.193 441.092 413.888C441.116 416.964 441.124 420.04 441.116 423.116C439.944 423.116 438.772 423.116 437.601 423.116C437.593 422.953 437.601 422.79 437.625 422.628C438.334 422.227 438.513 421.657 438.162 420.919C437.932 420.621 437.631 420.442 437.259 420.382C438.104 419.414 438.959 418.454 439.822 417.501C439.983 417.123 439.861 416.927 439.456 416.915C438.39 416.901 437.462 417.243 436.673 417.94C436.657 417.908 436.64 417.875 436.624 417.843C436.868 416.615 436.925 415.378 436.795 414.132C436.774 413.907 436.652 413.793 436.429 413.79C436.301 413.793 436.195 413.842 436.111 413.936C435.564 414.819 435.108 415.747 434.744 416.72C434.508 415.589 434.118 414.515 433.572 413.497C433.284 413.325 433.073 413.39 432.938 413.692C432.4 415.027 432.148 416.411 432.181 417.843C431.326 417.165 430.349 416.864 429.251 416.939C429.046 417.085 429.005 417.272 429.129 417.501C429.992 418.454 430.847 419.414 431.692 420.382C430.713 420.647 430.412 421.249 430.789 422.188C430.94 422.372 431.119 422.518 431.326 422.628C431.35 422.79 431.359 422.953 431.351 423.116C430.179 423.116 429.007 423.116 427.835 423.116C427.827 420.04 427.835 416.964 427.859 413.888C430.049 412.195 432.222 410.486 434.378 408.761Z" fill="black"/>
</g>
<g id="Group_20">
<path id="Vector_31" opacity="0.996" fill-rule="evenodd" clip-rule="evenodd" d="M423.538 414.132C424.71 414.132 425.882 414.132 427.054 414.132C427.062 417.224 427.054 420.317 427.029 423.409C425.874 424.565 424.718 425.72 423.563 426.876C423.538 422.628 423.53 418.38 423.538 414.132Z" fill="black"/>
</g>
<g id="Group_21">
<path id="Vector_32" opacity="0.996" fill-rule="evenodd" clip-rule="evenodd" d="M441.897 414.132C443.069 414.132 444.241 414.132 445.413 414.132C445.421 418.38 445.413 422.628 445.389 426.876C444.233 425.72 443.077 424.565 441.922 423.409C441.897 420.317 441.889 417.224 441.897 414.132Z" fill="black"/>
</g>
<g id="Group_22">
<path id="Vector_33" opacity="0.93" fill-rule="evenodd" clip-rule="evenodd" d="M433.304 414.815C433.41 414.88 433.484 414.978 433.523 415.108C434.199 416.801 434.297 418.526 433.816 420.284C433.719 420.414 433.621 420.414 433.523 420.284C432.812 418.485 432.739 416.662 433.304 414.815Z" fill="black"/>
</g>
<g id="Group_23">
<path id="Vector_34" opacity="0.888" fill-rule="evenodd" clip-rule="evenodd" d="M436.087 415.45C436.147 417.153 435.805 418.781 435.062 420.333C435.003 420.378 434.938 420.395 434.866 420.382C434.883 418.639 435.29 416.995 436.087 415.45Z" fill="black"/>
</g>
<g id="Group_24">
<path id="Vector_35" opacity="0.849" fill-rule="evenodd" clip-rule="evenodd" d="M430.374 417.843C431.288 417.931 431.947 418.403 432.352 419.259C432.476 419.622 432.615 419.98 432.767 420.333C432.681 420.394 432.607 420.378 432.547 420.284C431.829 419.461 431.105 418.647 430.374 417.843Z" fill="black"/>
</g>
<g id="Group_25">
<path id="Vector_36" opacity="0.85" fill-rule="evenodd" clip-rule="evenodd" d="M438.333 417.794C438.416 417.786 438.497 417.794 438.577 417.818C437.819 418.691 437.046 419.545 436.258 420.382C436.233 420.366 436.209 420.349 436.185 420.333C436.336 419.98 436.475 419.622 436.6 419.259C436.964 418.512 437.541 418.024 438.333 417.794Z" fill="black"/>
</g>
<g id="Group_26">
<path id="Vector_37" opacity="0.988" fill-rule="evenodd" clip-rule="evenodd" d="M431.546 421.163C433.499 421.155 435.452 421.163 437.405 421.188C437.553 421.262 437.618 421.384 437.601 421.554C437.618 421.723 437.553 421.845 437.405 421.92C435.452 421.952 433.499 421.952 431.546 421.92C431.399 421.845 431.334 421.723 431.351 421.554C431.34 421.38 431.405 421.249 431.546 421.163Z" fill="black"/>
</g>
<g id="Group_27">
<path id="Vector_38" opacity="0.998" fill-rule="evenodd" clip-rule="evenodd" d="M432.132 422.726C433.694 422.726 435.257 422.726 436.819 422.726C436.843 423.739 436.818 424.748 436.746 425.753C436.709 425.783 436.669 425.808 436.624 425.826C435.192 425.859 433.759 425.859 432.327 425.826C432.282 425.808 432.242 425.783 432.205 425.753C432.133 424.748 432.109 423.739 432.132 422.726Z" fill="black"/>
</g>
<g id="Group_28">
<path id="Vector_39" opacity="0.991" fill-rule="evenodd" clip-rule="evenodd" d="M427.542 423.897C428.812 423.897 430.081 423.897 431.351 423.897C431.332 424.518 431.357 425.137 431.424 425.753C431.605 426.276 431.971 426.56 432.522 426.607C433.825 426.64 435.127 426.64 436.429 426.607C436.98 426.56 437.346 426.276 437.527 425.753C437.594 425.137 437.619 424.518 437.601 423.897C438.87 423.889 440.14 423.897 441.409 423.922C442.565 425.077 443.72 426.233 444.876 427.389C437.942 427.421 431.009 427.421 424.075 427.389C425.241 426.231 426.396 425.068 427.542 423.897Z" fill="black"/>
</g>
</g>
</g>
<g id="Store-209" filter="url(#filter7_d_0_1)">
<rect id="Rectangle 11" x="485" y="432" width="30" height="35" transform="rotate(-90 485 432)" fill="#C28185"/>
<g id="yslygi 1" clip-path="url(#clip1_0_1)">
<g id="Group_29">
<path id="Vector_40" d="M496.312 406.367C496.137 406.66 495.941 406.719 495.492 406.641C494.887 406.504 494.828 406.582 494.906 407.48C494.926 407.734 494.77 407.988 494.535 408.125C494.008 408.398 494.008 409.043 494.535 409.199C494.867 409.316 494.926 409.453 494.828 409.883C494.711 410.527 495.043 410.898 495.629 410.742C495.922 410.664 496.137 410.742 496.312 411.035C496.586 411.504 497.445 411.602 497.445 411.172C497.445 410.84 497.914 410.625 498.324 410.781C498.793 410.977 499.145 410.547 499.047 409.902C498.988 409.453 499.047 409.316 499.379 409.199C499.906 409.043 499.906 408.398 499.379 408.105C499.086 407.949 498.988 407.754 499.066 407.422C499.164 406.855 498.773 406.484 498.246 406.66C497.973 406.738 497.777 406.66 497.602 406.387C497.289 405.859 496.645 405.859 496.312 406.367ZM497.836 407.734C498.227 408.125 498.344 409.004 498.07 409.414C497.816 409.805 497.055 410.098 496.664 409.98C496.02 409.785 495.688 409.297 495.688 408.613C495.688 407.48 497.035 406.934 497.836 407.734Z" fill="black"/>
<path id="Vector_41" d="M503.285 409.727C502.992 410.43 502.152 410.703 501.625 410.254C501.391 410.059 501.234 410.098 500.824 410.527C500.355 410.977 500.336 411.094 500.551 411.504C500.922 412.187 500.746 412.676 500.043 413.008C499.516 413.242 499.398 413.418 499.398 413.945C499.398 414.375 499.516 414.629 499.75 414.707C500.688 415.039 501 415.762 500.531 416.523C500.141 417.148 500.746 417.598 501.996 417.598C502.914 417.598 503.031 417.656 503.266 418.145C503.578 418.789 503.91 418.945 504.574 418.789C504.867 418.711 505.062 418.535 505.062 418.301C505.062 417.695 505.551 417.441 506.488 417.578C507.191 417.695 507.387 417.637 507.68 417.324C507.992 416.973 508.012 416.836 507.797 416.328C507.602 415.84 507.602 415.664 507.875 415.254C508.051 414.98 508.363 414.766 508.578 414.766C508.91 414.766 508.969 414.629 508.969 414.004C508.969 413.359 508.891 413.223 508.48 413.125C507.777 412.949 507.504 412.324 507.816 411.602C508.031 411.074 508.012 410.977 507.543 410.527C507.133 410.098 506.977 410.059 506.742 410.254C506.586 410.391 506.215 410.469 505.922 410.43C505.414 410.371 505.199 410.156 504.984 409.434C504.906 409.199 504.672 409.102 504.223 409.102C503.676 409.102 503.52 409.199 503.285 409.727ZM505.258 411.934C506.059 412.344 506.43 412.969 506.43 413.945C506.43 415.02 505.883 415.82 504.965 416.133C504.008 416.445 503.227 416.211 502.523 415.43C500.863 413.516 503.012 410.762 505.258 411.934Z" fill="black"/>
<path id="Vector_42" d="M511.879 414.395C511.723 414.688 511.527 414.785 511.195 414.707C510.629 414.609 510.219 415.039 510.297 415.664C510.336 415.957 510.219 416.172 509.965 416.328C509.438 416.602 509.438 417.227 509.965 417.363C510.277 417.441 510.355 417.598 510.316 418.027C510.219 418.828 510.453 419.062 511.137 418.926C511.625 418.828 511.742 418.887 511.84 419.238C511.977 419.785 512.699 419.785 513.031 419.238C513.207 418.945 513.422 418.867 513.715 418.945C514.301 419.102 514.633 418.73 514.516 418.086C514.418 417.656 514.477 417.52 514.809 417.402C515.336 417.246 515.336 416.602 514.809 416.309C514.477 416.152 514.418 415.977 514.516 415.527C514.633 414.883 514.379 414.648 513.617 414.746C513.266 414.785 513.031 414.668 512.875 414.395C512.602 413.867 512.172 413.867 511.879 414.395ZM513.227 415.859C513.52 416.055 513.656 416.348 513.656 416.816C513.656 417.969 512.602 418.594 511.723 417.949C510.277 416.875 511.742 414.824 513.227 415.859Z" fill="black"/>
<path id="Vector_43" d="M499.691 419.648C498.832 419.844 495.492 421.426 495.492 421.641C495.492 421.797 497.191 426.016 497.387 426.328C497.426 426.426 497.816 426.309 498.227 426.094C499.262 425.566 499.77 425.605 502.152 426.309C503.656 426.758 504.398 426.895 505.062 426.816C505.805 426.719 513.344 423.945 514.418 423.359C514.965 423.066 515.316 422.07 515.062 421.504C514.691 420.684 513.91 420.703 510.746 421.602C507.953 422.402 507.836 422.461 507.719 422.988C507.582 423.652 506.996 424.277 506.371 424.434C505.688 424.609 500.863 423.301 500.863 422.949C500.863 422.578 501.293 422.617 503.754 423.262C506.293 423.945 506.879 423.848 506.977 422.754C507.055 421.836 506.703 421.562 504.691 421.035C503.773 420.781 502.641 420.391 502.152 420.137C501.039 419.59 500.453 419.453 499.691 419.648Z" fill="black"/>
<path id="Vector_44" d="M492.816 420.938C492.25 421.191 491.781 421.465 491.781 421.543C491.781 421.641 492.465 423.34 493.285 425.352C494.398 428.027 494.887 429.023 495.141 429.023C495.629 429.023 497.25 428.281 497.25 428.047C497.25 427.656 494.242 420.645 494.047 420.566C493.93 420.527 493.363 420.703 492.816 420.938Z" fill="black"/>
</g>
</g>
</g>
<g id="Store-210" filter="url(#filter8_d_0_1)">
<rect id="Rectangle 12" x="485" y="465" width="30" height="35" transform="rotate(-90 485 465)" fill="#C28185"/>
<g id="present 1" clip-path="url(#clip2_0_1)">
<g id="Group_30">
<path id="Vector_45" d="M498.188 440.328C496.891 440.984 496.203 442.844 496.813 444.031C496.953 444.297 497.063 444.547 497.063 444.609C497.063 444.656 496.5 444.688 495.797 444.688C494.281 444.688 493.594 444.953 493.25 445.703C492.938 446.344 492.922 447.844 493.219 448.422C493.688 449.312 493.938 449.375 497.453 449.375H500.656V447.031V444.688H499.969C499.578 444.688 499.094 444.625 498.891 444.547C497.969 444.188 497.531 443.188 497.906 442.281C498.203 441.578 498.719 441.25 499.531 441.25C500.063 441.25 500.297 441.344 500.641 441.672C501.156 442.203 502.188 444.562 501.922 444.656C501.797 444.703 501.75 446.875 501.75 452.359V460H503H504.25V452.359C504.25 446.875 504.203 444.703 504.078 444.656C503.813 444.562 504.844 442.203 505.359 441.672C505.703 441.344 505.938 441.25 506.469 441.25C507.281 441.25 507.797 441.578 508.094 442.281C508.469 443.188 508.031 444.188 507.109 444.547C506.906 444.625 506.422 444.688 506.031 444.688H505.344V447.031V449.375H508.547C512.063 449.375 512.313 449.312 512.781 448.422C513.063 447.859 513.063 446.391 512.766 445.688C512.469 444.953 511.781 444.688 510.188 444.688C509.5 444.688 508.938 444.656 508.938 444.609C508.938 444.547 509.047 444.297 509.188 444.031C509.359 443.688 509.422 443.281 509.375 442.719C509.188 440.453 506.766 439.281 504.875 440.531C504.391 440.844 504.125 441.219 503.672 442.188C503.344 442.875 503.047 443.438 503 443.438C502.953 443.438 502.656 442.875 502.328 442.188C501.875 441.219 501.609 440.844 501.109 440.516C500.234 439.938 499.094 439.859 498.188 440.328Z" fill="black"/>
<path id="Vector_46" d="M494.094 454.25C494.109 458.25 494.188 458.922 494.797 459.516C495.188 459.922 495.219 459.922 497.922 459.969L500.656 460.016V455.328V450.625H497.375H494.094V454.25Z" fill="black"/>
<path id="Vector_47" d="M505.344 455.312V460H507.891C510.125 460 510.484 459.969 510.922 459.688C511.797 459.156 511.828 459.031 511.875 454.641L511.922 450.625H508.641H505.344V455.312Z" fill="black"/>
</g>
</g>
</g>
<g id="Store-211" filter="url(#filter9_d_0_1)">
<rect id="Rectangle 13" x="500" y="529" width="30" height="35" transform="rotate(-90 500 529)" fill="#C28185"/>
<g id="heath 1" clip-path="url(#clip3_0_1)">
<g id="Group_31">
<path id="Vector_48" d="M517.133 503.313C516.254 503.703 515.805 504.113 515.355 504.992C514.652 506.379 514.984 508.156 516.156 509.23C516.684 509.699 516.762 509.895 516.703 510.539L516.645 511.301L515.453 511.398C514.789 511.457 514.105 511.613 513.93 511.77C513.734 511.926 512.836 513.117 511.898 514.406C508.637 518.996 508.617 519.016 507.738 519.016C506.762 519.016 506 519.699 506 520.578C506 521.555 506.742 522.141 507.973 522.141H509.008L508.5 522.668C507.777 523.449 507.562 523.957 507.562 524.875C507.562 526.281 508.656 527.668 509.965 527.902C510.316 527.961 513.539 527.98 517.133 527.961L523.656 527.902L518.422 525.012C514.457 522.824 512.895 522.063 512.074 521.906L510.961 521.691L512.426 519.484C513.246 518.273 513.969 517.277 514.047 517.258C514.125 517.258 514.223 518.098 514.242 519.133L514.301 521.008L516.41 522.18L518.5 523.352L520.551 522.141L522.602 520.93V518.957V516.984L524.223 519.328L525.844 521.652L524.672 521.887C523.715 522.082 520.863 523.488 520.219 524.074C520.043 524.23 526.43 527.805 526.879 527.805C527.504 527.805 528.48 527.004 528.852 526.184C529.477 524.836 529.301 523.703 528.305 522.688L527.797 522.141H528.715C529.828 522.141 530.492 521.848 530.785 521.223C531.332 520.012 530.609 519.016 529.164 519.016C528.148 519.016 528.207 519.074 524.965 514.582C523.871 513.059 522.816 511.75 522.641 511.672C522.465 511.594 521.879 511.477 521.332 511.418L520.355 511.301L520.297 510.48C520.258 509.816 520.316 509.621 520.629 509.445C521.312 509.094 522.016 507.648 522.016 506.633C522.016 505.676 521.527 504.504 520.902 503.938C519.926 503.039 518.344 502.785 517.133 503.313Z" fill="black"/>
</g>
</g>
</g>
<rect id="Rectangle 14" x="383.5" y="394.5" width="260" height="121" transform="rotate(-90 383.5 394.5)" fill="#0E8656" stroke="#146D49" stroke-width="3"/>
<g id="Store-212">
<g id="Rectangle 15" filter="url(#filter10_d_0_1)">
<rect x="392" y="369" width="30" height="35" transform="rotate(-90 392 369)" fill="#79AE8D"/>
</g>
<g id="acsessuar 2">
<g id="Group_32">
<path id="Vector_49" d="M407.648 343.992C406.945 344.324 406.789 345.008 406.77 348.016L406.75 350.887L406.105 348.348C405.441 345.809 405.168 345.32 404.406 345.32C403.82 345.32 403.234 346.062 403.352 346.648C403.41 346.941 403.645 348.27 403.859 349.617C404.484 353.406 404.367 353.113 405.09 353.016C405.461 352.957 406.203 353.074 406.867 353.309C407.512 353.543 408.039 353.719 408.059 353.719C408.078 353.719 407.844 352.254 407.551 350.438C407.238 348.641 406.984 346.98 406.984 346.746C406.984 346.043 407.961 345.086 408.82 344.949C409.562 344.832 409.562 344.832 409.211 344.402C408.742 343.875 408.176 343.738 407.648 343.992Z" fill="black"/>
<path id="Vector_50" d="M412.297 343.953C411.613 344.246 411.477 344.93 411.457 348.211V351.277L410.793 348.875C410.109 346.355 409.895 345.906 409.328 345.906C407.941 345.906 407.883 346.336 408.723 351.238C409.133 353.563 409.426 355.477 409.387 355.477C409.367 355.477 408.449 355.125 407.336 354.676L405.344 353.895L404.855 354.266C404.328 354.656 404.113 355.457 404.406 355.965C404.484 356.141 405.109 356.609 405.754 357C407.277 357.938 409.914 360.945 409.914 361.766V362.312H414.895H419.855L419.914 358.348C419.973 354.695 420.031 354.168 420.656 351.238C421.32 348.133 421.32 348.074 420.969 347.684C420.559 347.215 419.465 347.117 419.133 347.508C419.016 347.645 418.566 348.641 418.137 349.715L417.316 351.668L417.434 350.008C417.492 349.09 417.59 347.723 417.668 346.961C417.746 345.828 417.707 345.535 417.434 345.262C417.062 344.871 416.105 344.832 415.812 345.164C415.695 345.301 415.422 346.727 415.187 348.348C414.758 351.258 414.602 351.961 414.602 350.867C414.602 350.555 414.504 349.031 414.406 347.469C414.211 344.793 414.172 344.617 413.703 344.188C413.176 343.719 412.98 343.68 412.297 343.953Z" fill="black"/>
<path id="Vector_51" d="M399.953 353.914C399.152 354.715 399.523 355.594 401.027 356.453C402.434 357.254 405.227 360.398 405.227 361.18V361.727H407.004C409.016 361.727 408.996 361.883 407.316 359.812C406.574 358.914 405.773 358.191 405.09 357.801C403.82 357.078 403.273 356.277 403.273 355.164C403.273 354.363 403.254 354.363 402.18 353.934C400.832 353.426 400.441 353.426 399.953 353.914Z" fill="black"/>
<path id="Vector_52" d="M405.266 363.621L405.324 364.363L407.141 364.422L408.938 364.48V363.68V362.898H407.062H405.207L405.266 363.621Z" fill="black"/>
<path id="Vector_53" d="M410.051 363.426C409.973 363.484 409.914 363.836 409.914 364.207V364.852H414.895H419.875V364.07V363.289H415.031C412.355 363.289 410.109 363.348 410.051 363.426Z" fill="black"/>
</g>
</g>
</g>
<g id="Store-213">
<g id="Rectangle 16" filter="url(#filter11_d_0_1)">
<rect x="392" y="329" width="30" height="35" transform="rotate(-90 392 329)" fill="#79AE8D"/>
</g>
<g id="body 3">
<g id="Group_33">
<path id="Vector_54" d="M404.758 303.484C404.699 303.66 404.641 304.52 404.641 305.418C404.641 306.922 404.602 307.117 403.957 308.152C403.586 308.777 403.215 309.598 403.156 309.949C402.961 311.004 403.176 312.527 403.605 313.094L403.996 313.621H410.5H417.004L417.395 313.094C417.824 312.508 418.059 310.848 417.844 309.754C417.785 309.402 417.414 308.582 417.043 307.957C416.418 306.941 416.359 306.707 416.359 305.32C416.359 303.621 416.262 303.172 415.852 303.172C415.637 303.172 415.578 303.562 415.578 304.91V306.668L414.387 307.293C413.137 307.957 411.457 309.637 410.93 310.73C410.754 311.082 410.578 311.375 410.52 311.375C410.461 311.375 410.188 311.004 409.934 310.555C409.191 309.266 407.766 307.859 406.555 307.254L405.422 306.688V304.93C405.422 303.562 405.363 303.172 405.148 303.172C404.992 303.172 404.816 303.309 404.758 303.484Z" fill="black"/>
<path id="Vector_55" d="M404.484 315.027L404.543 315.574H410.5H416.457L416.516 315.027L416.574 314.5H410.5H404.426L404.484 315.027Z" fill="black"/>
<path id="Vector_56" d="M403.801 318.797C403.605 319.441 403.469 320.047 403.469 320.145C403.469 320.262 403.977 320.691 404.602 321.102C405.852 321.961 408.176 324.324 408.645 325.242C408.938 325.828 408.977 325.828 410.5 325.828C412.023 325.828 412.062 325.809 412.355 325.242C412.824 324.344 414.934 322.176 416.301 321.199C416.984 320.711 417.531 320.242 417.531 320.145C417.531 319.617 416.848 317.625 416.672 317.625C416.555 317.625 415.793 317.762 414.992 317.938C413.996 318.152 412.57 318.27 410.5 318.27C408.43 318.27 407.004 318.152 406.008 317.938C405.207 317.762 404.445 317.625 404.328 317.625C404.211 317.625 403.977 318.152 403.801 318.797ZM411.477 320.281C411.477 320.633 411.086 320.828 410.852 320.594C410.695 320.438 410.52 320.438 410.246 320.574C409.973 320.73 409.816 320.73 409.641 320.555C409.484 320.379 409.562 320.223 409.973 319.852C410.48 319.402 410.539 319.402 410.988 319.695C411.262 319.871 411.477 320.125 411.477 320.281Z" fill="black"/>
</g>
</g>
</g>
<g id="Store-214">
<g id="Rectangle 19" filter="url(#filter12_d_0_1)">
<rect x="459" y="314" width="30" height="35" transform="rotate(-90 459 314)" fill="#79AE8D"/>
</g>
<g id="body 4">
<g id="Group_34">
<path id="Vector_57" d="M471.758 288.484C471.699 288.66 471.641 289.52 471.641 290.418C471.641 291.922 471.602 292.117 470.957 293.152C470.586 293.777 470.215 294.598 470.156 294.949C469.961 296.004 470.176 297.527 470.605 298.094L470.996 298.621H477.5H484.004L484.395 298.094C484.824 297.508 485.059 295.848 484.844 294.754C484.785 294.402 484.414 293.582 484.043 292.957C483.418 291.941 483.359 291.707 483.359 290.32C483.359 288.621 483.262 288.172 482.852 288.172C482.637 288.172 482.578 288.562 482.578 289.91V291.668L481.387 292.293C480.137 292.957 478.457 294.637 477.93 295.73C477.754 296.082 477.578 296.375 477.52 296.375C477.461 296.375 477.188 296.004 476.934 295.555C476.191 294.266 474.766 292.859 473.555 292.254L472.422 291.688V289.93C472.422 288.562 472.363 288.172 472.148 288.172C471.992 288.172 471.816 288.309 471.758 288.484Z" fill="black"/>
<path id="Vector_58" d="M471.484 300.027L471.543 300.574H477.5H483.457L483.516 300.027L483.574 299.5H477.5H471.426L471.484 300.027Z" fill="black"/>
<path id="Vector_59" d="M470.801 303.797C470.605 304.441 470.469 305.047 470.469 305.145C470.469 305.262 470.977 305.691 471.602 306.102C472.852 306.961 475.176 309.324 475.645 310.242C475.938 310.828 475.977 310.828 477.5 310.828C479.023 310.828 479.062 310.809 479.355 310.242C479.824 309.344 481.934 307.176 483.301 306.199C483.984 305.711 484.531 305.242 484.531 305.145C484.531 304.617 483.848 302.625 483.672 302.625C483.555 302.625 482.793 302.762 481.992 302.938C480.996 303.152 479.57 303.27 477.5 303.27C475.43 303.27 474.004 303.152 473.008 302.938C472.207 302.762 471.445 302.625 471.328 302.625C471.211 302.625 470.977 303.152 470.801 303.797ZM478.477 305.281C478.477 305.633 478.086 305.828 477.852 305.594C477.695 305.438 477.52 305.438 477.246 305.574C476.973 305.73 476.816 305.73 476.641 305.555C476.484 305.379 476.562 305.223 476.973 304.852C477.48 304.402 477.539 304.402 477.988 304.695C478.262 304.871 478.477 305.125 478.477 305.281Z" fill="black"/>
</g>
</g>
</g>
<g id="Store-215">
<g id="Rectangle 17" filter="url(#filter13_d_0_1)">
<rect x="392" y="289" width="30" height="35" transform="rotate(-90 392 289)" fill="#79AE8D"/>
</g>
<g id="heath 2" clip-path="url(#clip4_0_1)">
<g id="Group_35">
<path id="Vector_60" d="M408.133 262.313C407.254 262.703 406.805 263.113 406.355 263.992C405.652 265.379 405.984 267.156 407.156 268.23C407.684 268.699 407.762 268.895 407.703 269.539L407.645 270.301L406.453 270.398C405.789 270.457 405.105 270.613 404.93 270.77C404.734 270.926 403.836 272.117 402.898 273.406C399.637 277.996 399.617 278.016 398.738 278.016C397.762 278.016 397 278.699 397 279.578C397 280.555 397.742 281.141 398.973 281.141H400.008L399.5 281.668C398.777 282.449 398.562 282.957 398.562 283.875C398.562 285.281 399.656 286.668 400.965 286.902C401.316 286.961 404.539 286.98 408.133 286.961L414.656 286.902L409.422 284.012C405.457 281.824 403.895 281.063 403.074 280.906L401.961 280.691L403.426 278.484C404.246 277.273 404.969 276.277 405.047 276.258C405.125 276.258 405.223 277.098 405.242 278.133L405.301 280.008L407.41 281.18L409.5 282.352L411.551 281.141L413.602 279.93V277.957V275.984L415.223 278.328L416.844 280.652L415.672 280.887C414.715 281.082 411.863 282.488 411.219 283.074C411.043 283.23 417.43 286.805 417.879 286.805C418.504 286.805 419.48 286.004 419.852 285.184C420.477 283.836 420.301 282.703 419.305 281.688L418.797 281.141H419.715C420.828 281.141 421.492 280.848 421.785 280.223C422.332 279.012 421.609 278.016 420.164 278.016C419.148 278.016 419.207 278.074 415.965 273.582C414.871 272.059 413.816 270.75 413.641 270.672C413.465 270.594 412.879 270.477 412.332 270.418L411.355 270.301L411.297 269.48C411.258 268.816 411.316 268.621 411.629 268.445C412.312 268.094 413.016 266.648 413.016 265.633C413.016 264.676 412.527 263.504 411.902 262.938C410.926 262.039 409.344 261.785 408.133 262.313Z" fill="black"/>
</g>
</g>
</g>
<g id="Store-216">
<g id="Rectangle 18" filter="url(#filter14_d_0_1)">
<rect x="459" y="369" width="30" height="35" transform="rotate(-90 459 369)" fill="#79AE8D"/>
</g>
<g id="heath 3" clip-path="url(#clip5_0_1)">
<g id="Group_36">
<path id="Vector_61" d="M475.133 342.313C474.254 342.703 473.805 343.113 473.355 343.992C472.652 345.379 472.984 347.156 474.156 348.23C474.684 348.699 474.762 348.895 474.703 349.539L474.645 350.301L473.453 350.398C472.789 350.457 472.105 350.613 471.93 350.77C471.734 350.926 470.836 352.117 469.898 353.406C466.637 357.996 466.617 358.016 465.738 358.016C464.762 358.016 464 358.699 464 359.578C464 360.555 464.742 361.141 465.973 361.141H467.008L466.5 361.668C465.777 362.449 465.562 362.957 465.562 363.875C465.562 365.281 466.656 366.668 467.965 366.902C468.316 366.961 471.539 366.98 475.133 366.961L481.656 366.902L476.422 364.012C472.457 361.824 470.895 361.063 470.074 360.906L468.961 360.691L470.426 358.484C471.246 357.273 471.969 356.277 472.047 356.258C472.125 356.258 472.223 357.098 472.242 358.133L472.301 360.008L474.41 361.18L476.5 362.352L478.551 361.141L480.602 359.93V357.957V355.984L482.223 358.328L483.844 360.652L482.672 360.887C481.715 361.082 478.863 362.488 478.219 363.074C478.043 363.23 484.43 366.805 484.879 366.805C485.504 366.805 486.48 366.004 486.852 365.184C487.477 363.836 487.301 362.703 486.305 361.688L485.797 361.141H486.715C487.828 361.141 488.492 360.848 488.785 360.223C489.332 359.012 488.609 358.016 487.164 358.016C486.148 358.016 486.207 358.074 482.965 353.582C481.871 352.059 480.816 350.75 480.641 350.672C480.465 350.594 479.879 350.477 479.332 350.418L478.355 350.301L478.297 349.48C478.258 348.816 478.316 348.621 478.629 348.445C479.312 348.094 480.016 346.648 480.016 345.633C480.016 344.676 479.527 343.504 478.902 342.938C477.926 342.039 476.344 341.785 475.133 342.313Z" fill="black"/>
</g>
</g>
</g>
<g id="Store-217">
<g id="Rectangle 20" filter="url(#filter15_d_0_1)">
<rect x="459" y="274" width="30" height="35" transform="rotate(-90 459 274)" fill="#79AE8D"/>
</g>
<g id="close 4">
<g id="Group_37">
<path id="Vector_62" d="M471.543 249.031C469.785 249.539 465.391 251.531 465.117 251.922C464.922 252.234 467.012 256.531 467.441 256.688C467.598 256.746 468.184 256.668 468.789 256.492C469.375 256.316 469.902 256.18 469.961 256.18C470.02 256.18 470.078 259.305 470.078 263.113C470.078 269.754 470.098 270.047 470.449 270.242C470.977 270.516 484.023 270.516 484.551 270.242C484.902 270.047 484.922 269.754 484.922 263.113C484.922 259.305 484.98 256.18 485.039 256.18C485.098 256.18 485.625 256.316 486.211 256.492C486.816 256.668 487.402 256.746 487.559 256.688C487.988 256.531 490.078 252.234 489.883 251.922C489.395 251.18 482.246 248.406 481.523 248.68C481.367 248.738 481.113 249.168 480.918 249.656C479.785 252.625 475.43 252.703 474.121 249.754C473.77 248.934 473.457 248.543 473.203 248.582C473.145 248.582 472.402 248.797 471.543 249.031Z" fill="black"/>
<path id="Vector_63" d="M475.352 249.305C475.352 249.93 476.543 250.711 477.5 250.711C478.457 250.711 479.648 249.93 479.648 249.305C479.648 249.266 478.691 249.227 477.5 249.227C476.328 249.227 475.352 249.266 475.352 249.305Z" fill="black"/>
</g>
</g>
</g>
<g id="Store-218">
<g id="Rectangle 21" filter="url(#filter16_d_0_1)">
<rect x="459" y="175" width="30" height="35" transform="rotate(-90 459 175)" fill="#79AE8D"/>
</g>
<g id="heath 4" clip-path="url(#clip6_0_1)">
<g id="Group_38">
<path id="Vector_64" d="M476.133 148.313C475.254 148.703 474.805 149.113 474.355 149.992C473.652 151.379 473.984 153.156 475.156 154.23C475.684 154.699 475.762 154.895 475.703 155.539L475.645 156.301L474.453 156.398C473.789 156.457 473.105 156.613 472.93 156.77C472.734 156.926 471.836 158.117 470.898 159.406C467.637 163.996 467.617 164.016 466.738 164.016C465.762 164.016 465 164.699 465 165.578C465 166.555 465.742 167.141 466.973 167.141H468.008L467.5 167.668C466.777 168.449 466.562 168.957 466.562 169.875C466.562 171.281 467.656 172.668 468.965 172.902C469.316 172.961 472.539 172.98 476.133 172.961L482.656 172.902L477.422 170.012C473.457 167.824 471.895 167.063 471.074 166.906L469.961 166.691L471.426 164.484C472.246 163.273 472.969 162.277 473.047 162.258C473.125 162.258 473.223 163.098 473.242 164.133L473.301 166.008L475.41 167.18L477.5 168.352L479.551 167.141L481.602 165.93V163.957V161.984L483.223 164.328L484.844 166.652L483.672 166.887C482.715 167.082 479.863 168.488 479.219 169.074C479.043 169.23 485.43 172.805 485.879 172.805C486.504 172.805 487.48 172.004 487.852 171.184C488.477 169.836 488.301 168.703 487.305 167.688L486.797 167.141H487.715C488.828 167.141 489.492 166.848 489.785 166.223C490.332 165.012 489.609 164.016 488.164 164.016C487.148 164.016 487.207 164.074 483.965 159.582C482.871 158.059 481.816 156.75 481.641 156.672C481.465 156.594 480.879 156.477 480.332 156.418L479.355 156.301L479.297 155.48C479.258 154.816 479.316 154.621 479.629 154.445C480.312 154.094 481.016 152.648 481.016 151.633C481.016 150.676 480.527 149.504 479.902 148.938C478.926 148.039 477.344 147.785 476.133 148.313Z" fill="black"/>
</g>
</g>
</g>
<rect id="Rectangle 22" x="503.5" y="394.5" width="270" height="247" transform="rotate(-90 503.5 394.5)" fill="#0E8656" stroke="#146D49" stroke-width="3"/>
<rect id="Rectangle 23" x="508" y="329" width="201" height="194" transform="rotate(-90 508 329)" fill="#067EA9"/>
<g id="Store-219">
<rect id="Rectangle 30" x="546" y="322" width="30" height="35" transform="rotate(-90 546 322)" fill="#7BB0C5"/>
<g id="Group_39">
<path id="Vector_65" d="M557.478 296.326C556.785 297.091 556.203 297.787 556.203 297.88C556.203 297.972 556.74 298.645 557.411 299.364C558.708 300.778 559.066 301.729 558.797 303.166C558.708 303.607 558.462 304.21 558.216 304.534L557.769 305.114L563.404 310.725C566.512 313.809 569.375 316.499 569.777 316.661C570.291 316.893 571.477 316.986 573.758 316.986H577V315.641C577 313.067 575.725 311.653 573.377 311.653C572.08 311.653 572.08 311.653 571.7 310.772C571.477 310.308 571.275 309.867 571.253 309.821C571.231 309.775 570.649 309.96 569.978 310.261C569.307 310.54 568.637 310.702 568.525 310.609C567.988 310.285 568.346 309.821 569.509 309.311C570.828 308.731 570.85 308.708 570.493 307.85L570.247 307.294L568.994 307.734C567.876 308.128 567.697 308.151 567.407 307.827C566.959 307.386 567.205 307.178 568.681 306.668C569.307 306.459 569.844 306.25 569.844 306.204C569.844 305.926 569.062 304.465 568.905 304.465C568.816 304.465 568.301 304.697 567.742 304.952C566.803 305.439 566.043 305.439 566.043 304.928C566.043 304.789 566.602 304.418 567.273 304.071C567.943 303.723 568.502 303.305 568.502 303.143C568.502 302.981 568.324 302.494 568.122 302.03C567.697 301.103 567.407 301.056 565.797 301.59C564.835 301.914 564.522 301.937 563.739 301.682C561.66 301.056 560.698 299.711 560.72 297.509C560.72 296.094 560.161 295.12 559.289 295.005C558.887 294.958 558.462 295.26 557.478 296.326Z" fill="black"/>
<path id="Vector_66" d="M554.437 299.711L553.475 300.801L555.108 302.517C556.024 303.468 556.919 304.21 557.098 304.187C557.59 304.071 557.97 302.679 557.746 301.729C557.635 301.219 557.165 300.477 556.472 299.781L555.398 298.645L554.437 299.711Z" fill="black"/>
<path id="Vector_67" d="M552.447 301.961C552.089 302.424 551.888 303.468 552.066 304.163C552.245 304.929 564.969 318.307 566.468 319.328C567.474 320 567.474 320 571.141 320C575.166 320 575.703 319.861 576.419 318.586L576.799 317.913H573.489C570.85 317.913 570.023 317.82 569.33 317.496C568.86 317.264 565.215 313.855 560.765 309.45C556.494 305.23 552.939 301.775 552.849 301.729C552.76 301.706 552.581 301.798 552.447 301.961Z" fill="black"/>
</g>
</g>
<g id="Store-221">
<rect id="Rectangle 29" x="644" y="322" width="30" height="35" transform="rotate(-90 644 322)" fill="#7BB0C5"/>
<g id="acsessuar 3">
<g id="Group_40">
<path id="Vector_68" d="M659.648 297.992C658.945 298.324 658.789 299.008 658.77 302.016L658.75 304.887L658.105 302.348C657.441 299.809 657.168 299.32 656.406 299.32C655.82 299.32 655.234 300.062 655.352 300.648C655.41 300.941 655.645 302.27 655.859 303.617C656.484 307.406 656.367 307.113 657.09 307.016C657.461 306.957 658.203 307.074 658.867 307.309C659.512 307.543 660.039 307.719 660.059 307.719C660.078 307.719 659.844 306.254 659.551 304.438C659.238 302.641 658.984 300.98 658.984 300.746C658.984 300.043 659.961 299.086 660.82 298.949C661.563 298.832 661.563 298.832 661.211 298.402C660.742 297.875 660.176 297.738 659.648 297.992Z" fill="black"/>
<path id="Vector_69" d="M664.297 297.953C663.613 298.246 663.477 298.93 663.457 302.211V305.277L662.793 302.875C662.109 300.355 661.895 299.906 661.328 299.906C659.941 299.906 659.883 300.336 660.723 305.238C661.133 307.563 661.426 309.477 661.387 309.477C661.367 309.477 660.449 309.125 659.336 308.676L657.344 307.895L656.855 308.266C656.328 308.656 656.113 309.457 656.406 309.965C656.484 310.141 657.109 310.609 657.754 311C659.277 311.938 661.914 314.945 661.914 315.766V316.312H666.895H671.855L671.914 312.348C671.973 308.695 672.031 308.168 672.656 305.238C673.32 302.133 673.32 302.074 672.969 301.684C672.559 301.215 671.465 301.117 671.133 301.508C671.016 301.645 670.566 302.641 670.137 303.715L669.316 305.668L669.434 304.008C669.492 303.09 669.59 301.723 669.668 300.961C669.746 299.828 669.707 299.535 669.434 299.262C669.062 298.871 668.105 298.832 667.812 299.164C667.695 299.301 667.422 300.727 667.187 302.348C666.758 305.258 666.602 305.961 666.602 304.867C666.602 304.555 666.504 303.031 666.406 301.469C666.211 298.793 666.172 298.617 665.703 298.188C665.176 297.719 664.98 297.68 664.297 297.953Z" fill="black"/>
<path id="Vector_70" d="M651.953 307.914C651.152 308.715 651.523 309.594 653.027 310.453C654.434 311.254 657.227 314.398 657.227 315.18V315.727H659.004C661.016 315.727 660.996 315.883 659.316 313.812C658.574 312.914 657.773 312.191 657.09 311.801C655.82 311.078 655.273 310.277 655.273 309.164C655.273 308.363 655.254 308.363 654.18 307.934C652.832 307.426 652.441 307.426 651.953 307.914Z" fill="black"/>
<path id="Vector_71" d="M657.266 317.621L657.324 318.363L659.141 318.422L660.938 318.48V317.68V316.898H659.062H657.207L657.266 317.621Z" fill="black"/>
<path id="Vector_72" d="M662.051 317.426C661.973 317.484 661.914 317.836 661.914 318.207V318.852H666.895H671.875V318.07V317.289H667.031C664.355 317.289 662.109 317.348 662.051 317.426Z" fill="black"/>
</g>
</g>
</g>
<g id="Store-222">
<rect id="Rectangle 24" x="514" y="163" width="30" height="35" transform="rotate(-90 514 163)" fill="#7BB0C5"/>
<g id="close 6">
<g id="Group_41">
<path id="Vector_73" d="M525.543 137.031C523.785 137.539 519.391 139.531 519.117 139.922C518.922 140.234 521.012 144.531 521.441 144.688C521.598 144.746 522.184 144.668 522.789 144.492C523.375 144.316 523.902 144.18 523.961 144.18C524.02 144.18 524.078 147.305 524.078 151.113C524.078 157.754 524.098 158.047 524.449 158.242C524.977 158.516 538.023 158.516 538.551 158.242C538.902 158.047 538.922 157.754 538.922 151.113C538.922 147.305 538.98 144.18 539.039 144.18C539.098 144.18 539.625 144.316 540.211 144.492C540.816 144.668 541.402 144.746 541.559 144.688C541.988 144.531 544.078 140.234 543.883 139.922C543.395 139.18 536.246 136.406 535.523 136.68C535.367 136.738 535.113 137.168 534.918 137.656C533.785 140.625 529.43 140.703 528.121 137.754C527.77 136.934 527.457 136.543 527.203 136.582C527.145 136.582 526.402 136.797 525.543 137.031Z" fill="black"/>
<path id="Vector_74" d="M529.352 137.305C529.352 137.93 530.543 138.711 531.5 138.711C532.457 138.711 533.648 137.93 533.648 137.305C533.648 137.266 532.691 137.227 531.5 137.227C530.328 137.227 529.352 137.266 529.352 137.305Z" fill="black"/>
</g>
</g>
</g>
<g id="Store-223">
<rect id="Rectangle 25" x="563" y="163" width="30" height="35" transform="rotate(-90 563 163)" fill="#7BB0C5"/>
<g id="shoes 2">
<g id="Group_42">
<path id="Vector_75" d="M575.387 138.105C574.781 138.75 574.273 139.336 574.273 139.414C574.273 139.492 574.742 140.059 575.328 140.664C576.461 141.855 576.773 142.656 576.539 143.867C576.461 144.238 576.246 144.746 576.031 145.02L575.641 145.508L580.562 150.234C583.277 152.832 585.777 155.098 586.129 155.234C586.578 155.43 587.613 155.508 589.605 155.508H592.438V154.375C592.438 152.207 591.324 151.016 589.273 151.016C588.141 151.016 588.141 151.016 587.809 150.273C587.613 149.883 587.438 149.512 587.418 149.473C587.398 149.434 586.891 149.59 586.305 149.844C585.719 150.078 585.133 150.215 585.035 150.137C584.566 149.863 584.879 149.473 585.895 149.043C587.047 148.555 587.066 148.535 586.754 147.812L586.539 147.344L585.445 147.715C584.469 148.047 584.312 148.066 584.059 147.793C583.668 147.422 583.883 147.246 585.172 146.816C585.719 146.641 586.188 146.465 586.188 146.426C586.188 146.191 585.504 144.961 585.367 144.961C585.289 144.961 584.84 145.156 584.352 145.371C583.531 145.781 582.867 145.781 582.867 145.352C582.867 145.234 583.355 144.922 583.941 144.629C584.527 144.336 585.016 143.984 585.016 143.848C585.016 143.711 584.859 143.301 584.684 142.91C584.312 142.129 584.059 142.09 582.652 142.539C581.812 142.812 581.539 142.832 580.855 142.617C579.039 142.09 578.199 140.957 578.219 139.102C578.219 137.91 577.73 137.09 576.969 136.992C576.617 136.953 576.246 137.207 575.387 138.105Z" fill="black"/>
<path id="Vector_76" d="M572.73 140.957L571.891 141.875L573.316 143.32C574.117 144.121 574.898 144.746 575.055 144.727C575.484 144.629 575.816 143.457 575.621 142.656C575.523 142.227 575.113 141.602 574.508 141.016L573.57 140.059L572.73 140.957Z" fill="black"/>
<path id="Vector_77" d="M570.992 142.852C570.68 143.242 570.504 144.121 570.66 144.707C570.816 145.352 581.93 156.621 583.238 157.48C584.117 158.047 584.117 158.047 587.32 158.047C590.836 158.047 591.305 157.93 591.93 156.855L592.262 156.289H589.371C587.066 156.289 586.344 156.211 585.738 155.938C585.328 155.742 582.145 152.871 578.258 149.16C574.527 145.605 571.422 142.695 571.344 142.656C571.266 142.637 571.109 142.715 570.992 142.852Z" fill="black"/>
</g>
</g>
</g>
<g id="Store-224">
<rect id="Rectangle 26" x="612" y="163" width="30" height="35" transform="rotate(-90 612 163)" fill="#7BB0C5"/>
<g id="close 7">
<g id="Group_43">
<path id="Vector_78" d="M624.543 137.031C622.785 137.539 618.391 139.531 618.117 139.922C617.922 140.234 620.012 144.531 620.441 144.688C620.598 144.746 621.184 144.668 621.789 144.492C622.375 144.316 622.902 144.18 622.961 144.18C623.02 144.18 623.078 147.305 623.078 151.113C623.078 157.754 623.098 158.047 623.449 158.242C623.977 158.516 637.023 158.516 637.551 158.242C637.902 158.047 637.922 157.754 637.922 151.113C637.922 147.305 637.98 144.18 638.039 144.18C638.098 144.18 638.625 144.316 639.211 144.492C639.816 144.668 640.402 144.746 640.559 144.688C640.988 144.531 643.078 140.234 642.883 139.922C642.395 139.18 635.246 136.406 634.523 136.68C634.367 136.738 634.113 137.168 633.918 137.656C632.785 140.625 628.43 140.703 627.121 137.754C626.77 136.934 626.457 136.543 626.203 136.582C626.145 136.582 625.402 136.797 624.543 137.031Z" fill="black"/>
<path id="Vector_79" d="M628.352 137.305C628.352 137.93 629.543 138.711 630.5 138.711C631.457 138.711 632.648 137.93 632.648 137.305C632.648 137.266 631.691 137.227 630.5 137.227C629.328 137.227 628.352 137.266 628.352 137.305Z" fill="black"/>
</g>
</g>
</g>
<g id="Store-225">
<rect id="Rectangle 27" x="661" y="163" width="30" height="35" transform="rotate(-90 661 163)" fill="#7BB0C5"/>
<g id="body 5">
<g id="Group_44">
<path id="Vector_80" d="M673.758 136.484C673.699 136.66 673.641 137.52 673.641 138.418C673.641 139.922 673.602 140.117 672.957 141.152C672.586 141.777 672.215 142.598 672.156 142.949C671.961 144.004 672.176 145.527 672.605 146.094L672.996 146.621H679.5H686.004L686.395 146.094C686.824 145.508 687.059 143.848 686.844 142.754C686.785 142.402 686.414 141.582 686.043 140.957C685.418 139.941 685.359 139.707 685.359 138.32C685.359 136.621 685.262 136.172 684.852 136.172C684.637 136.172 684.578 136.562 684.578 137.91V139.668L683.387 140.293C682.137 140.957 680.457 142.637 679.93 143.73C679.754 144.082 679.578 144.375 679.52 144.375C679.461 144.375 679.188 144.004 678.934 143.555C678.191 142.266 676.766 140.859 675.555 140.254L674.422 139.688V137.93C674.422 136.562 674.363 136.172 674.148 136.172C673.992 136.172 673.816 136.309 673.758 136.484Z" fill="black"/>
<path id="Vector_81" d="M673.484 148.027L673.543 148.574H679.5H685.457L685.516 148.027L685.574 147.5H679.5H673.426L673.484 148.027Z" fill="black"/>
<path id="Vector_82" d="M672.801 151.797C672.605 152.441 672.469 153.047 672.469 153.145C672.469 153.262 672.977 153.691 673.602 154.102C674.852 154.961 677.176 157.324 677.645 158.242C677.938 158.828 677.977 158.828 679.5 158.828C681.023 158.828 681.062 158.809 681.355 158.242C681.824 157.344 683.934 155.176 685.301 154.199C685.984 153.711 686.531 153.242 686.531 153.145C686.531 152.617 685.848 150.625 685.672 150.625C685.555 150.625 684.793 150.762 683.992 150.938C682.996 151.152 681.57 151.27 679.5 151.27C677.43 151.27 676.004 151.152 675.008 150.938C674.207 150.762 673.445 150.625 673.328 150.625C673.211 150.625 672.977 151.152 672.801 151.797ZM680.477 153.281C680.477 153.633 680.086 153.828 679.852 153.594C679.695 153.438 679.52 153.438 679.246 153.574C678.973 153.73 678.816 153.73 678.641 153.555C678.484 153.379 678.562 153.223 678.973 152.852C679.48 152.402 679.539 152.402 679.988 152.695C680.262 152.871 680.477 153.125 680.477 153.281Z" fill="black"/>
</g>
</g>
</g>
<g id="Store-220">
<rect id="Rectangle 28" x="595" y="322" width="30" height="35" transform="rotate(-90 595 322)" fill="#7BB0C5"/>
<g id="close 5">
<g id="Group_45">
<path id="Vector_83" d="M607.543 297.031C605.785 297.539 601.391 299.531 601.117 299.922C600.922 300.234 603.012 304.531 603.441 304.688C603.598 304.746 604.184 304.668 604.789 304.492C605.375 304.316 605.902 304.18 605.961 304.18C606.02 304.18 606.078 307.305 606.078 311.113C606.078 317.754 606.098 318.047 606.449 318.242C606.977 318.516 620.023 318.516 620.551 318.242C620.902 318.047 620.922 317.754 620.922 311.113C620.922 307.305 620.98 304.18 621.039 304.18C621.098 304.18 621.625 304.316 622.211 304.492C622.816 304.668 623.402 304.746 623.559 304.688C623.988 304.531 626.078 300.234 625.883 299.922C625.395 299.18 618.246 296.406 617.523 296.68C617.367 296.738 617.113 297.168 616.918 297.656C615.785 300.625 611.43 300.703 610.121 297.754C609.77 296.934 609.457 296.543 609.203 296.582C609.145 296.582 608.402 296.797 607.543 297.031Z" fill="black"/>
<path id="Vector_84" d="M611.352 297.305C611.352 297.93 612.543 298.711 613.5 298.711C614.457 298.711 615.648 297.93 615.648 297.305C615.648 297.266 614.691 297.227 613.5 297.227C612.328 297.227 611.352 297.266 611.352 297.305Z" fill="black"/>
</g>
</g>
</g>
<g id="Store-226">
<g id="Rectangle 31" filter="url(#filter17_d_0_1)">
<rect x="513" y="369" width="30" height="35" transform="rotate(-90 513 369)" fill="#79AE8D"/>
</g>
<g id="close 8">
<g id="Group_46">
<path id="Vector_85" d="M526.543 344.031C524.785 344.539 520.391 346.531 520.117 346.922C519.922 347.234 522.012 351.531 522.441 351.688C522.598 351.746 523.184 351.668 523.789 351.492C524.375 351.316 524.902 351.18 524.961 351.18C525.02 351.18 525.078 354.305 525.078 358.113C525.078 364.754 525.098 365.047 525.449 365.242C525.977 365.516 539.023 365.516 539.551 365.242C539.902 365.047 539.922 364.754 539.922 358.113C539.922 354.305 539.98 351.18 540.039 351.18C540.098 351.18 540.625 351.316 541.211 351.492C541.816 351.668 542.402 351.746 542.559 351.688C542.988 351.531 545.078 347.234 544.883 346.922C544.395 346.18 537.246 343.406 536.523 343.68C536.367 343.738 536.113 344.168 535.918 344.656C534.785 347.625 530.43 347.703 529.121 344.754C528.77 343.934 528.457 343.543 528.203 343.582C528.145 343.582 527.402 343.797 526.543 344.031Z" fill="black"/>
<path id="Vector_86" d="M530.352 344.305C530.352 344.93 531.543 345.711 532.5 345.711C533.457 345.711 534.648 344.93 534.648 344.305C534.648 344.266 533.691 344.227 532.5 344.227C531.328 344.227 530.352 344.266 530.352 344.305Z" fill="black"/>
</g>
</g>
</g>
<g id="Store-227">
<g id="Rectangle 32" filter="url(#filter18_d_0_1)">
<rect x="560" y="369" width="30" height="35" transform="rotate(-90 560 369)" fill="#79AE8D"/>
</g>
<g id="present 2" clip-path="url(#clip7_0_1)">
<g id="Group_47">
<path id="Vector_87" d="M573.188 344.328C571.891 344.984 571.203 346.844 571.813 348.031C571.953 348.297 572.063 348.547 572.063 348.609C572.063 348.656 571.5 348.688 570.797 348.688C569.281 348.688 568.594 348.953 568.25 349.703C567.938 350.344 567.922 351.844 568.219 352.422C568.688 353.312 568.938 353.375 572.453 353.375H575.656V351.031V348.688H574.969C574.578 348.688 574.094 348.625 573.891 348.547C572.969 348.188 572.531 347.188 572.906 346.281C573.203 345.578 573.719 345.25 574.531 345.25C575.063 345.25 575.297 345.344 575.641 345.672C576.156 346.203 577.188 348.562 576.922 348.656C576.797 348.703 576.75 350.875 576.75 356.359V364H578H579.25V356.359C579.25 350.875 579.203 348.703 579.078 348.656C578.813 348.562 579.844 346.203 580.359 345.672C580.703 345.344 580.938 345.25 581.469 345.25C582.281 345.25 582.797 345.578 583.094 346.281C583.469 347.188 583.031 348.188 582.109 348.547C581.906 348.625 581.422 348.688 581.031 348.688H580.344V351.031V353.375H583.547C587.063 353.375 587.313 353.312 587.781 352.422C588.063 351.859 588.063 350.391 587.766 349.688C587.469 348.953 586.781 348.688 585.188 348.688C584.5 348.688 583.938 348.656 583.938 348.609C583.938 348.547 584.047 348.297 584.188 348.031C584.359 347.688 584.422 347.281 584.375 346.719C584.188 344.453 581.766 343.281 579.875 344.531C579.391 344.844 579.125 345.219 578.672 346.188C578.344 346.875 578.047 347.438 578 347.438C577.953 347.438 577.656 346.875 577.328 346.188C576.875 345.219 576.609 344.844 576.109 344.516C575.234 343.938 574.094 343.859 573.188 344.328Z" fill="black"/>
<path id="Vector_88" d="M569.094 358.25C569.109 362.25 569.188 362.922 569.797 363.516C570.188 363.922 570.219 363.922 572.922 363.969L575.656 364.016V359.328V354.625H572.375H569.094V358.25Z" fill="black"/>
<path id="Vector_89" d="M580.344 359.312V364H582.891C585.125 364 585.484 363.969 585.922 363.688C586.797 363.156 586.828 363.031 586.875 358.641L586.922 354.625H583.641H580.344V359.312Z" fill="black"/>
</g>
</g>
</g>
<g id="Store-228">
<g id="Rectangle 33" filter="url(#filter19_d_0_1)">
<rect x="609" y="369" width="30" height="35" transform="rotate(-90 609 369)" fill="#79AE8D"/>
</g>
<g id="heath 5" clip-path="url(#clip8_0_1)">
<g id="Group_48">
<path id="Vector_90" d="M625.133 342.313C624.254 342.703 623.805 343.113 623.355 343.992C622.652 345.379 622.984 347.156 624.156 348.23C624.684 348.699 624.762 348.895 624.703 349.539L624.645 350.301L623.453 350.398C622.789 350.457 622.105 350.613 621.93 350.77C621.734 350.926 620.836 352.117 619.898 353.406C616.637 357.996 616.617 358.016 615.738 358.016C614.762 358.016 614 358.699 614 359.578C614 360.555 614.742 361.141 615.973 361.141H617.008L616.5 361.668C615.777 362.449 615.562 362.957 615.562 363.875C615.562 365.281 616.656 366.668 617.965 366.902C618.316 366.961 621.539 366.98 625.133 366.961L631.656 366.902L626.422 364.012C622.457 361.824 620.895 361.063 620.074 360.906L618.961 360.691L620.426 358.484C621.246 357.273 621.969 356.277 622.047 356.258C622.125 356.258 622.223 357.098 622.242 358.133L622.301 360.008L624.41 361.18L626.5 362.352L628.551 361.141L630.602 359.93V357.957V355.984L632.223 358.328L633.844 360.652L632.672 360.887C631.715 361.082 628.863 362.488 628.219 363.074C628.043 363.23 634.43 366.805 634.879 366.805C635.504 366.805 636.48 366.004 636.852 365.184C637.477 363.836 637.301 362.703 636.305 361.688L635.797 361.141H636.715C637.828 361.141 638.492 360.848 638.785 360.223C639.332 359.012 638.609 358.016 637.164 358.016C636.148 358.016 636.207 358.074 632.965 353.582C631.871 352.059 630.816 350.75 630.641 350.672C630.465 350.594 629.879 350.477 629.332 350.418L628.355 350.301L628.297 349.48C628.258 348.816 628.316 348.621 628.629 348.445C629.312 348.094 630.016 346.648 630.016 345.633C630.016 344.676 629.527 343.504 628.902 342.938C627.926 342.039 626.344 341.785 625.133 342.313Z" fill="black"/>
</g>
</g>
</g>
<g id="Store-229">
<g id="Rectangle 34" filter="url(#filter20_d_0_1)">
<rect x="708" y="334" width="30" height="35" fill="#79AE8D"/>
</g>
<g id="close 9">
<g id="Group_49">
<path id="Vector_91" d="M717.543 341.031C715.785 341.539 711.391 343.531 711.117 343.922C710.922 344.234 713.012 348.531 713.441 348.688C713.598 348.746 714.184 348.668 714.789 348.492C715.375 348.316 715.902 348.18 715.961 348.18C716.02 348.18 716.078 351.305 716.078 355.113C716.078 361.754 716.098 362.047 716.449 362.242C716.977 362.516 730.023 362.516 730.551 362.242C730.902 362.047 730.922 361.754 730.922 355.113C730.922 351.305 730.98 348.18 731.039 348.18C731.098 348.18 731.625 348.316 732.211 348.492C732.816 348.668 733.402 348.746 733.559 348.688C733.988 348.531 736.078 344.234 735.883 343.922C735.395 343.18 728.246 340.406 727.523 340.68C727.367 340.738 727.113 341.168 726.918 341.656C725.785 344.625 721.43 344.703 720.121 341.754C719.77 340.934 719.457 340.543 719.203 340.582C719.145 340.582 718.402 340.797 717.543 341.031Z" fill="black"/>
<path id="Vector_92" d="M721.352 341.305C721.352 341.93 722.543 342.711 723.5 342.711C724.457 342.711 725.648 341.93 725.648 341.305C725.648 341.266 724.691 341.227 723.5 341.227C722.328 341.227 721.352 341.266 721.352 341.305Z" fill="black"/>
</g>
</g>
</g>
<g id="Store-230">
<g id="Rectangle 35" filter="url(#filter21_d_0_1)">
<rect x="708" y="237" width="30" height="35" fill="#79AE8D"/>
</g>
<g id="close 10">
<g id="Group_50">
<path id="Vector_93" d="M717.543 244.031C715.785 244.539 711.391 246.531 711.117 246.922C710.922 247.234 713.012 251.531 713.441 251.688C713.598 251.746 714.184 251.668 714.789 251.492C715.375 251.316 715.902 251.18 715.961 251.18C716.02 251.18 716.078 254.305 716.078 258.113C716.078 264.754 716.098 265.047 716.449 265.242C716.977 265.516 730.023 265.516 730.551 265.242C730.902 265.047 730.922 264.754 730.922 258.113C730.922 254.305 730.98 251.18 731.039 251.18C731.098 251.18 731.625 251.316 732.211 251.492C732.816 251.668 733.402 251.746 733.559 251.688C733.988 251.531 736.078 247.234 735.883 246.922C735.395 246.18 728.246 243.406 727.523 243.68C727.367 243.738 727.113 244.168 726.918 244.656C725.785 247.625 721.43 247.703 720.121 244.754C719.77 243.934 719.457 243.543 719.203 243.582C719.145 243.582 718.402 243.797 717.543 244.031Z" fill="black"/>
<path id="Vector_94" d="M721.352 244.305C721.352 244.93 722.543 245.711 723.5 245.711C724.457 245.711 725.648 244.93 725.648 244.305C725.648 244.266 724.691 244.227 723.5 244.227C722.328 244.227 721.352 244.266 721.352 244.305Z" fill="black"/>
</g>
</g>
</g>
<g id="Store-231">
<g id="Rectangle 36" filter="url(#filter22_d_0_1)">
<rect x="708" y="133" width="30" height="35" fill="#79AE8D"/>
</g>
<g id="close 11">
<g id="Group_51">
<path id="Vector_95" d="M717.543 140.031C715.785 140.539 711.391 142.531 711.117 142.922C710.922 143.234 713.012 147.531 713.441 147.688C713.598 147.746 714.184 147.668 714.789 147.492C715.375 147.316 715.902 147.18 715.961 147.18C716.02 147.18 716.078 150.305 716.078 154.113C716.078 160.754 716.098 161.047 716.449 161.242C716.977 161.516 730.023 161.516 730.551 161.242C730.902 161.047 730.922 160.754 730.922 154.113C730.922 150.305 730.98 147.18 731.039 147.18C731.098 147.18 731.625 147.316 732.211 147.492C732.816 147.668 733.402 147.746 733.559 147.688C733.988 147.531 736.078 143.234 735.883 142.922C735.395 142.18 728.246 139.406 727.523 139.68C727.367 139.738 727.113 140.168 726.918 140.656C725.785 143.625 721.43 143.703 720.121 140.754C719.77 139.934 719.457 139.543 719.203 139.582C719.145 139.582 718.402 139.797 717.543 140.031Z" fill="black"/>
<path id="Vector_96" d="M721.352 140.305C721.352 140.93 722.543 141.711 723.5 141.711C724.457 141.711 725.648 140.93 725.648 140.305C725.648 140.266 724.691 140.227 723.5 140.227C722.328 140.227 721.352 140.266 721.352 140.305Z" fill="black"/>
</g>
</g>
</g>
</g>
<defs>
<filter id="filter0_d_0_1" x="78" y="400" width="43" height="38" filterUnits="userSpaceOnUse" color-interpolation-filters="sRGB">
<feFlood flood-opacity="0" result="BackgroundImageFix"/>
<feColorMatrix in="SourceAlpha" type="matrix" values="0 0 0 0 0 0 0 0 0 0 0 0 0 0 0 0 0 0 127 0" result="hardAlpha"/>
<feOffset dy="4"/>
<feGaussianBlur stdDeviation="2"/>
<feComposite in2="hardAlpha" operator="out"/>
<feColorMatrix type="matrix" values="0 0 0 0 0 0 0 0 0 0 0 0 0 0 0 0 0 0 0.25 0"/>
<feBlend mode="normal" in2="BackgroundImageFix" result="effect1_dropShadow_0_1"/>
<feBlend mode="normal" in="SourceGraphic" in2="effect1_dropShadow_0_1" result="shape"/>
</filter>
<filter id="filter1_d_0_1" x="129" y="400" width="43" height="38" filterUnits="userSpaceOnUse" color-interpolation-filters="sRGB">
<feFlood flood-opacity="0" result="BackgroundImageFix"/>
<feColorMatrix in="SourceAlpha" type="matrix" values="0 0 0 0 0 0 0 0 0 0 0 0 0 0 0 0 0 0 127 0" result="hardAlpha"/>
<feOffset dy="4"/>
<feGaussianBlur stdDeviation="2"/>
<feComposite in2="hardAlpha" operator="out"/>
<feColorMatrix type="matrix" values="0 0 0 0 0 0 0 0 0 0 0 0 0 0 0 0 0 0 0.25 0"/>
<feBlend mode="normal" in2="BackgroundImageFix" result="effect1_dropShadow_0_1"/>
<feBlend mode="normal" in="SourceGraphic" in2="effect1_dropShadow_0_1" result="shape"/>
</filter>
<filter id="filter2_d_0_1" x="350" y="499" width="43" height="38" filterUnits="userSpaceOnUse" color-interpolation-filters="sRGB">
<feFlood flood-opacity="0" result="BackgroundImageFix"/>
<feColorMatrix in="SourceAlpha" type="matrix" values="0 0 0 0 0 0 0 0 0 0 0 0 0 0 0 0 0 0 127 0" result="hardAlpha"/>
<feOffset dy="4"/>
<feGaussianBlur stdDeviation="2"/>
<feComposite in2="hardAlpha" operator="out"/>
<feColorMatrix type="matrix" values="0 0 0 0 0 0 0 0 0 0 0 0 0 0 0 0 0 0 0.25 0"/>
<feBlend mode="normal" in2="BackgroundImageFix" result="effect1_dropShadow_0_1"/>
<feBlend mode="normal" in="SourceGraphic" in2="effect1_dropShadow_0_1" result="shape"/>
</filter>
<filter id="filter3_d_0_1" x="350" y="499" width="43" height="38" filterUnits="userSpaceOnUse" color-interpolation-filters="sRGB">
<feFlood flood-opacity="0" result="BackgroundImageFix"/>
<feColorMatrix in="SourceAlpha" type="matrix" values="0 0 0 0 0 0 0 0 0 0 0 0 0 0 0 0 0 0 127 0" result="hardAlpha"/>
<feOffset dy="4"/>
<feGaussianBlur stdDeviation="2"/>
<feComposite in2="hardAlpha" operator="out"/>
<feColorMatrix type="matrix" values="0 0 0 0 0 0 0 0 0 0 0 0 0 0 0 0 0 0 0.25 0"/>
<feBlend mode="normal" in2="BackgroundImageFix" result="effect1_dropShadow_0_1"/>
<feBlend mode="normal" in="SourceGraphic" in2="effect1_dropShadow_0_1" result="shape"/>
</filter>
<filter id="filter4_d_0_1" x="368" y="402" width="43" height="38" filterUnits="userSpaceOnUse" color-interpolation-filters="sRGB">
<feFlood flood-opacity="0" result="BackgroundImageFix"/>
<feColorMatrix in="SourceAlpha" type="matrix" values="0 0 0 0 0 0 0 0 0 0 0 0 0 0 0 0 0 0 127 0" result="hardAlpha"/>
<feOffset dy="4"/>
<feGaussianBlur stdDeviation="2"/>
<feComposite in2="hardAlpha" operator="out"/>
<feColorMatrix type="matrix" values="0 0 0 0 0 0 0 0 0 0 0 0 0 0 0 0 0 0 0.25 0"/>
<feBlend mode="normal" in2="BackgroundImageFix" result="effect1_dropShadow_0_1"/>
<feBlend mode="normal" in="SourceGraphic" in2="effect1_dropShadow_0_1" result="shape"/>
</filter>
<filter id="filter5_d_0_1" x="396" y="499" width="43" height="38" filterUnits="userSpaceOnUse" color-interpolation-filters="sRGB">
<feFlood flood-opacity="0" result="BackgroundImageFix"/>
<feColorMatrix in="SourceAlpha" type="matrix" values="0 0 0 0 0 0 0 0 0 0 0 0 0 0 0 0 0 0 127 0" result="hardAlpha"/>
<feOffset dy="4"/>
<feGaussianBlur stdDeviation="2"/>
<feComposite in2="hardAlpha" operator="out"/>
<feColorMatrix type="matrix" values="0 0 0 0 0 0 0 0 0 0 0 0 0 0 0 0 0 0 0.25 0"/>
<feBlend mode="normal" in2="BackgroundImageFix" result="effect1_dropShadow_0_1"/>
<feBlend mode="normal" in="SourceGraphic" in2="effect1_dropShadow_0_1" result="shape"/>
</filter>
<filter id="filter6_d_0_1" x="413" y="402" width="43" height="38" filterUnits="userSpaceOnUse" color-interpolation-filters="sRGB">
<feFlood flood-opacity="0" result="BackgroundImageFix"/>
<feColorMatrix in="SourceAlpha" type="matrix" values="0 0 0 0 0 0 0 0 0 0 0 0 0 0 0 0 0 0 127 0" result="hardAlpha"/>
<feOffset dy="4"/>
<feGaussianBlur stdDeviation="2"/>
<feComposite in2="hardAlpha" operator="out"/>
<feColorMatrix type="matrix" values="0 0 0 0 0 0 0 0 0 0 0 0 0 0 0 0 0 0 0.25 0"/>
<feBlend mode="normal" in2="BackgroundImageFix" result="effect1_dropShadow_0_1"/>
<feBlend mode="normal" in="SourceGraphic" in2="effect1_dropShadow_0_1" result="shape"/>
</filter>
<filter id="filter7_d_0_1" x="481" y="402" width="43" height="38" filterUnits="userSpaceOnUse" color-interpolation-filters="sRGB">
<feFlood flood-opacity="0" result="BackgroundImageFix"/>
<feColorMatrix in="SourceAlpha" type="matrix" values="0 0 0 0 0 0 0 0 0 0 0 0 0 0 0 0 0 0 127 0" result="hardAlpha"/>
<feOffset dy="4"/>
<feGaussianBlur stdDeviation="2"/>
<feComposite in2="hardAlpha" operator="out"/>
<feColorMatrix type="matrix" values="0 0 0 0 0 0 0 0 0 0 0 0 0 0 0 0 0 0 0.25 0"/>
<feBlend mode="normal" in2="BackgroundImageFix" result="effect1_dropShadow_0_1"/>
<feBlend mode="normal" in="SourceGraphic" in2="effect1_dropShadow_0_1" result="shape"/>
</filter>
<filter id="filter8_d_0_1" x="481" y="435" width="43" height="38" filterUnits="userSpaceOnUse" color-interpolation-filters="sRGB">
<feFlood flood-opacity="0" result="BackgroundImageFix"/>
<feColorMatrix in="SourceAlpha" type="matrix" values="0 0 0 0 0 0 0 0 0 0 0 0 0 0 0 0 0 0 127 0" result="hardAlpha"/>
<feOffset dy="4"/>
<feGaussianBlur stdDeviation="2"/>
<feComposite in2="hardAlpha" operator="out"/>
<feColorMatrix type="matrix" values="0 0 0 0 0 0 0 0 0 0 0 0 0 0 0 0 0 0 0.25 0"/>
<feBlend mode="normal" in2="BackgroundImageFix" result="effect1_dropShadow_0_1"/>
<feBlend mode="normal" in="SourceGraphic" in2="effect1_dropShadow_0_1" result="shape"/>
</filter>
<filter id="filter9_d_0_1" x="496" y="499" width="43" height="38" filterUnits="userSpaceOnUse" color-interpolation-filters="sRGB">
<feFlood flood-opacity="0" result="BackgroundImageFix"/>
<feColorMatrix in="SourceAlpha" type="matrix" values="0 0 0 0 0 0 0 0 0 0 0 0 0 0 0 0 0 0 127 0" result="hardAlpha"/>
<feOffset dy="4"/>
<feGaussianBlur stdDeviation="2"/>
<feComposite in2="hardAlpha" operator="out"/>
<feColorMatrix type="matrix" values="0 0 0 0 0 0 0 0 0 0 0 0 0 0 0 0 0 0 0.25 0"/>
<feBlend mode="normal" in2="BackgroundImageFix" result="effect1_dropShadow_0_1"/>
<feBlend mode="normal" in="SourceGraphic" in2="effect1_dropShadow_0_1" result="shape"/>
</filter>
<filter id="filter10_d_0_1" x="388" y="339" width="43" height="38" filterUnits="userSpaceOnUse" color-interpolation-filters="sRGB">
<feFlood flood-opacity="0" result="BackgroundImageFix"/>
<feColorMatrix in="SourceAlpha" type="matrix" values="0 0 0 0 0 0 0 0 0 0 0 0 0 0 0 0 0 0 127 0" result="hardAlpha"/>
<feOffset dy="4"/>
<feGaussianBlur stdDeviation="2"/>
<feComposite in2="hardAlpha" operator="out"/>
<feColorMatrix type="matrix" values="0 0 0 0 0 0 0 0 0 0 0 0 0 0 0 0 0 0 0.25 0"/>
<feBlend mode="normal" in2="BackgroundImageFix" result="effect1_dropShadow_0_1"/>
<feBlend mode="normal" in="SourceGraphic" in2="effect1_dropShadow_0_1" result="shape"/>
</filter>
<filter id="filter11_d_0_1" x="388" y="299" width="43" height="38" filterUnits="userSpaceOnUse" color-interpolation-filters="sRGB">
<feFlood flood-opacity="0" result="BackgroundImageFix"/>
<feColorMatrix in="SourceAlpha" type="matrix" values="0 0 0 0 0 0 0 0 0 0 0 0 0 0 0 0 0 0 127 0" result="hardAlpha"/>
<feOffset dy="4"/>
<feGaussianBlur stdDeviation="2"/>
<feComposite in2="hardAlpha" operator="out"/>
<feColorMatrix type="matrix" values="0 0 0 0 0 0 0 0 0 0 0 0 0 0 0 0 0 0 0.25 0"/>
<feBlend mode="normal" in2="BackgroundImageFix" result="effect1_dropShadow_0_1"/>
<feBlend mode="normal" in="SourceGraphic" in2="effect1_dropShadow_0_1" result="shape"/>
</filter>
<filter id="filter12_d_0_1" x="455" y="284" width="43" height="38" filterUnits="userSpaceOnUse" color-interpolation-filters="sRGB">
<feFlood flood-opacity="0" result="BackgroundImageFix"/>
<feColorMatrix in="SourceAlpha" type="matrix" values="0 0 0 0 0 0 0 0 0 0 0 0 0 0 0 0 0 0 127 0" result="hardAlpha"/>
<feOffset dy="4"/>
<feGaussianBlur stdDeviation="2"/>
<feComposite in2="hardAlpha" operator="out"/>
<feColorMatrix type="matrix" values="0 0 0 0 0 0 0 0 0 0 0 0 0 0 0 0 0 0 0.25 0"/>
<feBlend mode="normal" in2="BackgroundImageFix" result="effect1_dropShadow_0_1"/>
<feBlend mode="normal" in="SourceGraphic" in2="effect1_dropShadow_0_1" result="shape"/>
</filter>
<filter id="filter13_d_0_1" x="388" y="259" width="43" height="38" filterUnits="userSpaceOnUse" color-interpolation-filters="sRGB">
<feFlood flood-opacity="0" result="BackgroundImageFix"/>
<feColorMatrix in="SourceAlpha" type="matrix" values="0 0 0 0 0 0 0 0 0 0 0 0 0 0 0 0 0 0 127 0" result="hardAlpha"/>
<feOffset dy="4"/>
<feGaussianBlur stdDeviation="2"/>
<feComposite in2="hardAlpha" operator="out"/>
<feColorMatrix type="matrix" values="0 0 0 0 0 0 0 0 0 0 0 0 0 0 0 0 0 0 0.25 0"/>
<feBlend mode="normal" in2="BackgroundImageFix" result="effect1_dropShadow_0_1"/>
<feBlend mode="normal" in="SourceGraphic" in2="effect1_dropShadow_0_1" result="shape"/>
</filter>
<filter id="filter14_d_0_1" x="455" y="339" width="43" height="38" filterUnits="userSpaceOnUse" color-interpolation-filters="sRGB">
<feFlood flood-opacity="0" result="BackgroundImageFix"/>
<feColorMatrix in="SourceAlpha" type="matrix" values="0 0 0 0 0 0 0 0 0 0 0 0 0 0 0 0 0 0 127 0" result="hardAlpha"/>
<feOffset dy="4"/>
<feGaussianBlur stdDeviation="2"/>
<feComposite in2="hardAlpha" operator="out"/>
<feColorMatrix type="matrix" values="0 0 0 0 0 0 0 0 0 0 0 0 0 0 0 0 0 0 0.25 0"/>
<feBlend mode="normal" in2="BackgroundImageFix" result="effect1_dropShadow_0_1"/>
<feBlend mode="normal" in="SourceGraphic" in2="effect1_dropShadow_0_1" result="shape"/>
</filter>
<filter id="filter15_d_0_1" x="455" y="244" width="43" height="38" filterUnits="userSpaceOnUse" color-interpolation-filters="sRGB">
<feFlood flood-opacity="0" result="BackgroundImageFix"/>
<feColorMatrix in="SourceAlpha" type="matrix" values="0 0 0 0 0 0 0 0 0 0 0 0 0 0 0 0 0 0 127 0" result="hardAlpha"/>
<feOffset dy="4"/>
<feGaussianBlur stdDeviation="2"/>
<feComposite in2="hardAlpha" operator="out"/>
<feColorMatrix type="matrix" values="0 0 0 0 0 0 0 0 0 0 0 0 0 0 0 0 0 0 0.25 0"/>
<feBlend mode="normal" in2="BackgroundImageFix" result="effect1_dropShadow_0_1"/>
<feBlend mode="normal" in="SourceGraphic" in2="effect1_dropShadow_0_1" result="shape"/>
</filter>
<filter id="filter16_d_0_1" x="455" y="145" width="43" height="38" filterUnits="userSpaceOnUse" color-interpolation-filters="sRGB">
<feFlood flood-opacity="0" result="BackgroundImageFix"/>
<feColorMatrix in="SourceAlpha" type="matrix" values="0 0 0 0 0 0 0 0 0 0 0 0 0 0 0 0 0 0 127 0" result="hardAlpha"/>
<feOffset dy="4"/>
<feGaussianBlur stdDeviation="2"/>
<feComposite in2="hardAlpha" operator="out"/>
<feColorMatrix type="matrix" values="0 0 0 0 0 0 0 0 0 0 0 0 0 0 0 0 0 0 0.25 0"/>
<feBlend mode="normal" in2="BackgroundImageFix" result="effect1_dropShadow_0_1"/>
<feBlend mode="normal" in="SourceGraphic" in2="effect1_dropShadow_0_1" result="shape"/>
</filter>
<filter id="filter17_d_0_1" x="509" y="339" width="43" height="38" filterUnits="userSpaceOnUse" color-interpolation-filters="sRGB">
<feFlood flood-opacity="0" result="BackgroundImageFix"/>
<feColorMatrix in="SourceAlpha" type="matrix" values="0 0 0 0 0 0 0 0 0 0 0 0 0 0 0 0 0 0 127 0" result="hardAlpha"/>
<feOffset dy="4"/>
<feGaussianBlur stdDeviation="2"/>
<feComposite in2="hardAlpha" operator="out"/>
<feColorMatrix type="matrix" values="0 0 0 0 0 0 0 0 0 0 0 0 0 0 0 0 0 0 0.25 0"/>
<feBlend mode="normal" in2="BackgroundImageFix" result="effect1_dropShadow_0_1"/>
<feBlend mode="normal" in="SourceGraphic" in2="effect1_dropShadow_0_1" result="shape"/>
</filter>
<filter id="filter18_d_0_1" x="556" y="339" width="43" height="38" filterUnits="userSpaceOnUse" color-interpolation-filters="sRGB">
<feFlood flood-opacity="0" result="BackgroundImageFix"/>
<feColorMatrix in="SourceAlpha" type="matrix" values="0 0 0 0 0 0 0 0 0 0 0 0 0 0 0 0 0 0 127 0" result="hardAlpha"/>
<feOffset dy="4"/>
<feGaussianBlur stdDeviation="2"/>
<feComposite in2="hardAlpha" operator="out"/>
<feColorMatrix type="matrix" values="0 0 0 0 0 0 0 0 0 0 0 0 0 0 0 0 0 0 0.25 0"/>
<feBlend mode="normal" in2="BackgroundImageFix" result="effect1_dropShadow_0_1"/>
<feBlend mode="normal" in="SourceGraphic" in2="effect1_dropShadow_0_1" result="shape"/>
</filter>
<filter id="filter19_d_0_1" x="605" y="339" width="43" height="38" filterUnits="userSpaceOnUse" color-interpolation-filters="sRGB">
<feFlood flood-opacity="0" result="BackgroundImageFix"/>
<feColorMatrix in="SourceAlpha" type="matrix" values="0 0 0 0 0 0 0 0 0 0 0 0 0 0 0 0 0 0 127 0" result="hardAlpha"/>
<feOffset dy="4"/>
<feGaussianBlur stdDeviation="2"/>
<feComposite in2="hardAlpha" operator="out"/>
<feColorMatrix type="matrix" values="0 0 0 0 0 0 0 0 0 0 0 0 0 0 0 0 0 0 0.25 0"/>
<feBlend mode="normal" in2="BackgroundImageFix" result="effect1_dropShadow_0_1"/>
<feBlend mode="normal" in="SourceGraphic" in2="effect1_dropShadow_0_1" result="shape"/>
</filter>
<filter id="filter20_d_0_1" x="704" y="334" width="38" height="43" filterUnits="userSpaceOnUse" color-interpolation-filters="sRGB">
<feFlood flood-opacity="0" result="BackgroundImageFix"/>
<feColorMatrix in="SourceAlpha" type="matrix" values="0 0 0 0 0 0 0 0 0 0 0 0 0 0 0 0 0 0 127 0" result="hardAlpha"/>
<feOffset dy="4"/>
<feGaussianBlur stdDeviation="2"/>
<feComposite in2="hardAlpha" operator="out"/>
<feColorMatrix type="matrix" values="0 0 0 0 0 0 0 0 0 0 0 0 0 0 0 0 0 0 0.25 0"/>
<feBlend mode="normal" in2="BackgroundImageFix" result="effect1_dropShadow_0_1"/>
<feBlend mode="normal" in="SourceGraphic" in2="effect1_dropShadow_0_1" result="shape"/>
</filter>
<filter id="filter21_d_0_1" x="704" y="237" width="38" height="43" filterUnits="userSpaceOnUse" color-interpolation-filters="sRGB">
<feFlood flood-opacity="0" result="BackgroundImageFix"/>
<feColorMatrix in="SourceAlpha" type="matrix" values="0 0 0 0 0 0 0 0 0 0 0 0 0 0 0 0 0 0 127 0" result="hardAlpha"/>
<feOffset dy="4"/>
<feGaussianBlur stdDeviation="2"/>
<feComposite in2="hardAlpha" operator="out"/>
<feColorMatrix type="matrix" values="0 0 0 0 0 0 0 0 0 0 0 0 0 0 0 0 0 0 0.25 0"/>
<feBlend mode="normal" in2="BackgroundImageFix" result="effect1_dropShadow_0_1"/>
<feBlend mode="normal" in="SourceGraphic" in2="effect1_dropShadow_0_1" result="shape"/>
</filter>
<filter id="filter22_d_0_1" x="704" y="133" width="38" height="43" filterUnits="userSpaceOnUse" color-interpolation-filters="sRGB">
<feFlood flood-opacity="0" result="BackgroundImageFix"/>
<feColorMatrix in="SourceAlpha" type="matrix" values="0 0 0 0 0 0 0 0 0 0 0 0 0 0 0 0 0 0 127 0" result="hardAlpha"/>
<feOffset dy="4"/>
<feGaussianBlur stdDeviation="2"/>
<feComposite in2="hardAlpha" operator="out"/>
<feColorMatrix type="matrix" values="0 0 0 0 0 0 0 0 0 0 0 0 0 0 0 0 0 0 0.25 0"/>
<feBlend mode="normal" in2="BackgroundImageFix" result="effect1_dropShadow_0_1"/>
<feBlend mode="normal" in="SourceGraphic" in2="effect1_dropShadow_0_1" result="shape"/>
</filter>
<clipPath id="clip0_0_1">
<rect width="629" height="909" fill="white" transform="matrix(0 -1 1 0 0 629)"/>
</clipPath>
<clipPath id="clip1_0_1">
<rect width="25" height="25" fill="white" transform="translate(491 405)"/>
</clipPath>
<clipPath id="clip2_0_1">
<rect width="20" height="20" fill="white" transform="translate(493 440)"/>
</clipPath>
<clipPath id="clip3_0_1">
<rect width="25" height="25" fill="white" transform="translate(506 503)"/>
</clipPath>
<clipPath id="clip4_0_1">
<rect width="25" height="25" fill="white" transform="translate(397 262)"/>
</clipPath>
<clipPath id="clip5_0_1">
<rect width="25" height="25" fill="white" transform="translate(464 342)"/>
</clipPath>
<clipPath id="clip6_0_1">
<rect width="25" height="25" fill="white" transform="translate(465 148)"/>
</clipPath>
<clipPath id="clip7_0_1">
<rect width="20" height="20" fill="white" transform="translate(568 344)"/>
</clipPath>
<clipPath id="clip8_0_1">
<rect width="25" height="25" fill="white" transform="translate(614 342)"/>
</clipPath>
</defs>
</svg>
