<?xml version="1.0" encoding="utf-8"?>
<svg fill="none" height="1300" viewBox="100 0 400 453" width="1500" xmlns="http://www.w3.org/2000/svg">
	<g id="Frame 1">
		<rect fill="#127147" height="85" id="Rectangle 1" stroke="#26A668" stroke-width="3" width="356" x="129.5" y="45.5"/>
		<g id="Store-401">
			<rect fill="#79AE8D" height="47" id="Rectangle 2" stroke="#46854D" stroke-width="3" width="71" x="139.5" y="60.5"/>
			<g id="close 1">
				<g id="Group">
					<path d="M167.852 71.4375C165.742 72.0469 160.469 74.4375 160.141 74.9062C159.906 75.2812 162.414 80.4375 162.93 80.625C163.117 80.6953 163.82 80.6016 164.547 80.3906C165.25 80.1797 165.883 80.0156 165.953 80.0156C166.023 80.0156 166.094 83.7656 166.094 88.3359C166.094 96.3047 166.117 96.6562 166.539 96.8906C167.172 97.2187 182.828 97.2187 183.461 96.8906C183.883 96.6562 183.906 96.3047 183.906 88.3359C183.906 83.7656 183.977 80.0156 184.047 80.0156C184.117 80.0156 184.75 80.1797 185.453 80.3906C186.18 80.6016 186.883 80.6953 187.07 80.625C187.586 80.4375 190.094 75.2812 189.859 74.9062C189.273 74.0156 180.695 70.6875 179.828 71.0156C179.641 71.0859 179.336 71.6016 179.102 72.1875C177.742 75.75 172.516 75.8437 170.945 72.3047C170.523 71.3203 170.148 70.8516 169.844 70.8984C169.773 70.8984 168.883 71.1562 167.852 71.4375Z" fill="black" id="Vector"/>
					<path d="M172.422 71.7656C172.422 72.5156 173.852 73.4531 175 73.4531C176.148 73.4531 177.578 72.5156 177.578 71.7656C177.578 71.7188 176.43 71.6719 175 71.6719C173.594 71.6719 172.422 71.7188 172.422 71.7656Z" fill="black" id="Vector_2"/>
				</g>
			</g>
		</g>
		<g id="Store-404">
			<rect fill="#79AE8D" height="34" id="Rectangle 2_2" stroke="#46854D" stroke-width="3" width="51.76" x="421.5" y="55.5"/>
			<g id="yslygi 1">
				<g id="Group_2">
					<path d="M438.375 57.6406C438.164 57.9922 437.93 58.0625 437.391 57.9688C436.664 57.8047 436.594 57.8984 436.688 58.9766C436.711 59.2813 436.523 59.5859 436.242 59.75C435.609 60.0781 435.609 60.8516 436.242 61.0391C436.641 61.1797 436.711 61.3438 436.594 61.8594C436.453 62.6328 436.852 63.0781 437.555 62.8906C437.906 62.7969 438.164 62.8906 438.375 63.2422C438.703 63.8047 439.734 63.9219 439.734 63.4063C439.734 63.0078 440.297 62.75 440.789 62.9375C441.352 63.1719 441.773 62.6563 441.656 61.8828C441.586 61.3438 441.656 61.1797 442.055 61.0391C442.688 60.8516 442.688 60.0781 442.055 59.7266C441.703 59.5391 441.586 59.3047 441.68 58.9063C441.797 58.2266 441.328 57.7813 440.695 57.9922C440.367 58.0859 440.133 57.9922 439.922 57.6641C439.547 57.0313 438.773 57.0313 438.375 57.6406ZM440.203 59.2813C440.672 59.75 440.812 60.8047 440.484 61.2969C440.18 61.7656 439.266 62.1172 438.797 61.9766C438.023 61.7422 437.625 61.1563 437.625 60.3359C437.625 58.9766 439.242 58.3203 440.203 59.2813Z" fill="black" id="Vector_3"/>
					<path d="M446.742 61.6719C446.391 62.5156 445.383 62.8437 444.75 62.3047C444.469 62.0703 444.281 62.1172 443.789 62.6328C443.227 63.1719 443.203 63.3125 443.461 63.8047C443.906 64.625 443.695 65.2109 442.852 65.6094C442.219 65.8906 442.078 66.1016 442.078 66.7344C442.078 67.25 442.219 67.5547 442.5 67.6484C443.625 68.0469 444 68.9141 443.438 69.8281C442.969 70.5781 443.695 71.1172 445.195 71.1172C446.297 71.1172 446.438 71.1875 446.719 71.7734C447.094 72.5469 447.492 72.7344 448.289 72.5469C448.641 72.4531 448.875 72.2422 448.875 71.9609C448.875 71.2344 449.461 70.9297 450.586 71.0937C451.43 71.2344 451.664 71.1641 452.016 70.7891C452.391 70.3672 452.414 70.2031 452.156 69.5937C451.922 69.0078 451.922 68.7969 452.25 68.3047C452.461 67.9766 452.836 67.7187 453.094 67.7187C453.492 67.7187 453.562 67.5547 453.562 66.8047C453.562 66.0312 453.469 65.8672 452.977 65.75C452.133 65.5391 451.805 64.7891 452.18 63.9219C452.438 63.2891 452.414 63.1719 451.852 62.6328C451.359 62.1172 451.172 62.0703 450.891 62.3047C450.703 62.4687 450.258 62.5625 449.906 62.5156C449.297 62.4453 449.039 62.1875 448.781 61.3203C448.688 61.0391 448.406 60.9219 447.867 60.9219C447.211 60.9219 447.023 61.0391 446.742 61.6719ZM449.109 64.3203C450.07 64.8125 450.516 65.5625 450.516 66.7344C450.516 68.0234 449.859 68.9844 448.758 69.3594C447.609 69.7344 446.672 69.4531 445.828 68.5156C443.836 66.2187 446.414 62.9141 449.109 64.3203Z" fill="black" id="Vector_4"/>
					<path d="M457.055 67.2734C456.867 67.625 456.633 67.7422 456.234 67.6484C455.555 67.5313 455.062 68.0469 455.156 68.7969C455.203 69.1484 455.062 69.4063 454.758 69.5938C454.125 69.9219 454.125 70.6719 454.758 70.8359C455.133 70.9297 455.227 71.1172 455.18 71.6328C455.062 72.5938 455.344 72.875 456.164 72.7109C456.75 72.5938 456.891 72.6641 457.008 73.0859C457.172 73.7422 458.039 73.7422 458.438 73.0859C458.648 72.7344 458.906 72.6406 459.258 72.7344C459.961 72.9219 460.359 72.4766 460.219 71.7031C460.102 71.1875 460.172 71.0234 460.57 70.8828C461.203 70.6953 461.203 69.9219 460.57 69.5703C460.172 69.3828 460.102 69.1719 460.219 68.6328C460.359 67.8594 460.055 67.5781 459.141 67.6953C458.719 67.7422 458.438 67.6016 458.25 67.2734C457.922 66.6406 457.406 66.6406 457.055 67.2734ZM458.672 69.0313C459.023 69.2656 459.188 69.6172 459.188 70.1797C459.188 71.5625 457.922 72.3125 456.867 71.5391C455.133 70.25 456.891 67.7891 458.672 69.0313Z" fill="black" id="Vector_5"/>
					<path d="M442.43 73.5781C441.398 73.8125 437.391 75.7109 437.391 75.9687C437.391 76.1562 439.43 81.2187 439.664 81.5937C439.711 81.7109 440.18 81.5703 440.672 81.3125C441.914 80.6797 442.523 80.7266 445.383 81.5703C447.187 82.1094 448.078 82.2734 448.875 82.1797C449.766 82.0625 458.812 78.7344 460.102 78.0312C460.758 77.6797 461.18 76.4844 460.875 75.8047C460.43 74.8203 459.492 74.8437 455.695 75.9219C452.344 76.8828 452.203 76.9531 452.062 77.5859C451.898 78.3828 451.195 79.1328 450.445 79.3203C449.625 79.5312 443.836 77.9609 443.836 77.5391C443.836 77.0937 444.352 77.1406 447.305 77.9141C450.352 78.7344 451.055 78.6172 451.172 77.3047C451.266 76.2031 450.844 75.875 448.43 75.2422C447.328 74.9375 445.969 74.4687 445.383 74.1641C444.047 73.5078 443.344 73.3437 442.43 73.5781Z" fill="black" id="Vector_6"/>
					<path d="M434.18 75.125C433.5 75.4297 432.938 75.7578 432.938 75.8516C432.938 75.9688 433.758 78.0078 434.742 80.4219C436.078 83.6328 436.664 84.8281 436.969 84.8281C437.555 84.8281 439.5 83.9375 439.5 83.6563C439.5 83.1875 435.891 74.7734 435.656 74.6797C435.516 74.6328 434.836 74.8438 434.18 75.125Z" fill="black" id="Vector_7"/>
				</g>
			</g>
		</g>
		<g id="Store-402">
			<rect fill="#79AE8D" height="47" id="Rectangle 2_3" stroke="#46854D" stroke-width="3" width="71" x="235.5" y="75.5"/>
			<g id="close 1_2">
				<g id="Group_3">
					<path d="M263.852 86.4375C261.742 87.0469 256.469 89.4375 256.141 89.9062C255.906 90.2812 258.414 95.4375 258.93 95.625C259.117 95.6953 259.82 95.6016 260.547 95.3906C261.25 95.1797 261.883 95.0156 261.953 95.0156C262.023 95.0156 262.094 98.7656 262.094 103.336C262.094 111.305 262.117 111.656 262.539 111.891C263.172 112.219 278.828 112.219 279.461 111.891C279.883 111.656 279.906 111.305 279.906 103.336C279.906 98.7656 279.977 95.0156 280.047 95.0156C280.117 95.0156 280.75 95.1797 281.453 95.3906C282.18 95.6016 282.883 95.6953 283.07 95.625C283.586 95.4375 286.094 90.2812 285.859 89.9062C285.273 89.0156 276.695 85.6875 275.828 86.0156C275.641 86.0859 275.336 86.6016 275.102 87.1875C273.742 90.75 268.516 90.8437 266.945 87.3047C266.523 86.3203 266.148 85.8516 265.844 85.8984C265.773 85.8984 264.883 86.1562 263.852 86.4375Z" fill="black" id="Vector_8"/>
					<path d="M268.422 86.7656C268.422 87.5156 269.852 88.4531 271 88.4531C272.148 88.4531 273.578 87.5156 273.578 86.7656C273.578 86.7188 272.43 86.6719 271 86.6719C269.594 86.6719 268.422 86.7188 268.422 86.7656Z" fill="black" id="Vector_9"/>
				</g>
			</g>
		</g>
		<g id="Store-403">
			<rect fill="#79AE8D" height="47" id="Rectangle 2_4" stroke="#46854D" stroke-width="3" width="71" x="331.5" y="74.5"/>
			<g id="close 1_3">
				<g id="Group_4">
					<path d="M359.852 85.4375C357.742 86.0469 352.469 88.4375 352.141 88.9062C351.906 89.2812 354.414 94.4375 354.93 94.625C355.117 94.6953 355.82 94.6016 356.547 94.3906C357.25 94.1797 357.883 94.0156 357.953 94.0156C358.023 94.0156 358.094 97.7656 358.094 102.336C358.094 110.305 358.117 110.656 358.539 110.891C359.172 111.219 374.828 111.219 375.461 110.891C375.883 110.656 375.906 110.305 375.906 102.336C375.906 97.7656 375.977 94.0156 376.047 94.0156C376.117 94.0156 376.75 94.1797 377.453 94.3906C378.18 94.6016 378.883 94.6953 379.07 94.625C379.586 94.4375 382.094 89.2812 381.859 88.9062C381.273 88.0156 372.695 84.6875 371.828 85.0156C371.641 85.0859 371.336 85.6016 371.102 86.1875C369.742 89.75 364.516 89.8437 362.945 86.3047C362.523 85.3203 362.148 84.8516 361.844 84.8984C361.773 84.8984 360.883 85.1562 359.852 85.4375Z" fill="black" id="Vector_10"/>
					<path d="M364.422 85.7656C364.422 86.5156 365.852 87.4531 367 87.4531C368.148 87.4531 369.578 86.5156 369.578 85.7656C369.578 85.7188 368.43 85.6719 367 85.6719C365.594 85.6719 364.422 85.7188 364.422 85.7656Z" fill="black" id="Vector_11"/>
				</g>
			</g>
		</g>
		<rect fill="#067EA9" height="195" id="Rectangle 3" stroke="#3D3BAF" stroke-width="3" width="147" x="234.5" y="133.5"/>
		<g id="Store-405">
			<rect fill="#7BB0C5" height="37" id="Rectangle 4" stroke="#4169E1" stroke-width="3" width="51" x="243.5" y="149.5"/>
			<g id="kids 1">
				<g id="Group_5">
					<path d="M261.125 155.406C260.469 155.664 259.695 156.672 259.508 157.516C259.344 158.266 259.906 159.742 260.445 159.953C260.703 160.047 260.75 160.422 260.633 161.57C260.234 165.906 263.797 169.234 268.93 169.258C271.625 169.281 273.805 168.391 275.609 166.516C276.992 165.063 277.695 162.813 277.25 161.172C277.063 160.516 277.086 160.281 277.367 160.07C278.797 158.852 278.586 156.367 276.969 155.523C276.008 155.031 275.047 155.078 274.133 155.711C273.359 156.25 273.313 156.25 272.281 155.852C270.055 155.008 267.031 155.078 265.18 156.039C264.57 156.344 264.477 156.32 263.82 155.758C263.094 155.148 262.086 155.008 261.125 155.406ZM262.813 157.07C262.953 157.328 261.828 158.688 261.453 158.688C261.078 158.688 261.266 157.305 261.688 157.07C262.203 156.742 262.602 156.742 262.813 157.07ZM276.313 157.211C276.781 157.633 276.828 157.938 276.523 158.43C276.359 158.688 276.172 158.57 275.609 157.961C275.211 157.516 274.953 157.094 275 157C275.188 156.695 275.867 156.789 276.313 157.211ZM265.461 160.422C265.625 160.609 265.719 161.055 265.672 161.43C265.531 162.602 263.844 162.367 263.844 161.172C263.844 160.211 264.898 159.719 265.461 160.422ZM273.945 160.586C274.344 161.359 273.852 162.25 273.055 162.156C272.211 162.063 271.883 161.477 272.234 160.703C272.586 159.93 273.547 159.883 273.945 160.586ZM270.57 163.047C270.641 163.258 270.453 163.68 270.055 164.078C269.141 165.039 269.328 165.625 270.594 165.531C271.625 165.484 271.813 165.695 271.227 166.258C270.828 166.68 267.195 166.75 266.727 166.375C266.094 165.859 266.398 165.508 267.43 165.555C268.273 165.602 268.414 165.531 268.484 165.086C268.531 164.758 268.367 164.453 267.969 164.172C267.383 163.82 267.172 163.164 267.523 162.836C267.594 162.742 268.297 162.672 269.047 162.672C270.078 162.672 270.453 162.766 270.57 163.047Z" fill="black" id="Vector_12"/>
					<path d="M261.945 168.953C261.477 169.305 260.82 169.914 260.469 170.336C259.859 171.039 258.664 173.336 258.359 174.32C258.195 174.813 258.219 174.813 259.484 174.203C260.727 173.594 260.797 173.523 261.242 172.047C261.5 171.203 262.039 170.031 262.414 169.398C263.234 168.133 263.141 168.039 261.945 168.953Z" fill="black" id="Vector_13"/>
					<path d="M276.289 170.078C276.781 171.039 277.273 172.258 277.344 172.773C277.461 173.523 277.648 173.781 278.117 173.945C278.445 174.086 279.078 174.531 279.523 174.93L280.32 175.68L280.156 174.859C279.758 172.703 277.602 169.445 276.008 168.648L275.375 168.32L276.289 170.078Z" fill="black" id="Vector_14"/>
					<path d="M272.984 169.398C271.977 169.891 271.25 170.031 269.469 170.125C267.289 170.219 266.539 170.078 264.031 169.117C263.727 169 263.469 169.328 262.836 170.688C262.367 171.625 261.945 172.68 261.875 173.031C261.758 173.57 261.828 173.664 262.461 173.805C263.375 174.016 264.688 175.164 265.25 176.266C265.859 177.461 266.023 178.563 265.766 179.711L265.531 180.719L266.398 180.93C267.992 181.352 269.469 181.469 270.992 181.305C272.516 181.141 272.516 181.141 272.328 180.531C272.234 180.18 272.164 179.266 272.164 178.469C272.188 176.125 273.664 174.203 275.773 173.781C276.5 173.617 276.523 173.594 276.383 172.773C276.219 171.883 274.672 168.742 274.414 168.789C274.344 168.789 273.688 169.07 272.984 169.398ZM269.75 172.539C270.688 172.188 271.438 172.703 271.531 173.758C271.602 174.555 271.484 174.789 270.57 175.703C270.008 176.266 269.305 176.734 269.047 176.734C268.391 176.734 266.727 175.141 266.516 174.297C266.234 173.102 267.336 172.141 268.531 172.539C268.93 172.68 269.375 172.68 269.75 172.539Z" fill="black" id="Vector_15"/>
					<path d="M259.602 175.164C258.617 175.82 257.75 177.461 257.75 178.727C257.75 179.898 258.57 181.586 259.461 182.219C260.398 182.922 262.297 182.898 263.281 182.195C264.852 181.07 265.414 178.211 264.406 176.5C263.352 174.695 261.219 174.086 259.602 175.164ZM262.672 177.25C263.234 178.164 263.258 179.102 262.789 179.992C261.852 181.844 259.625 180.953 259.625 178.727C259.625 177.367 260.328 176.5 261.406 176.5C262.062 176.5 262.297 176.641 262.672 177.25Z" fill="black" id="Vector_16"/>
					<path d="M274.836 175.164C273.055 176.359 272.492 178.727 273.523 180.719C274.883 183.414 278.094 183.531 279.547 180.93C281.539 177.344 278.023 173.008 274.836 175.164ZM277.32 176.641C277.812 176.828 278.375 177.953 278.375 178.727C278.375 179.5 277.812 180.625 277.32 180.813C275.961 181.328 274.859 180.391 274.859 178.727C274.859 177.063 275.961 176.125 277.32 176.641Z" fill="black" id="Vector_17"/>
				</g>
			</g>
		</g>
		<g id="Store-407">
			<rect fill="#7BB0C5" height="37" id="Rectangle 5" stroke="#4169E1" stroke-width="3" width="51" x="243.5" y="214.5"/>
			<g id="close 2">
				<g id="Group_6">
					<path d="M261.852 220.438C259.742 221.047 254.469 223.438 254.141 223.906C253.906 224.281 256.414 229.438 256.93 229.625C257.117 229.695 257.82 229.602 258.547 229.391C259.25 229.18 259.883 229.016 259.953 229.016C260.023 229.016 260.094 232.766 260.094 237.336C260.094 245.305 260.117 245.656 260.539 245.891C261.172 246.219 276.828 246.219 277.461 245.891C277.883 245.656 277.906 245.305 277.906 237.336C277.906 232.766 277.977 229.016 278.047 229.016C278.117 229.016 278.75 229.18 279.453 229.391C280.18 229.602 280.883 229.695 281.07 229.625C281.586 229.438 284.094 224.281 283.859 223.906C283.273 223.016 274.695 219.688 273.828 220.016C273.641 220.086 273.336 220.602 273.102 221.188C271.742 224.75 266.516 224.844 264.945 221.305C264.523 220.32 264.148 219.852 263.844 219.898C263.773 219.898 262.883 220.156 261.852 220.438Z" fill="black" id="Vector_18"/>
					<path d="M266.422 220.766C266.422 221.516 267.852 222.453 269 222.453C270.148 222.453 271.578 221.516 271.578 220.766C271.578 220.719 270.43 220.672 269 220.672C267.594 220.672 266.422 220.719 266.422 220.766Z" fill="black" id="Vector_19"/>
				</g>
			</g>
		</g>
		<g id="Store-408">
			<rect fill="#7BB0C5" height="37" id="Rectangle 8" stroke="#4169E1" stroke-width="3" width="51" x="317.5" y="214.5"/>
			<g id="close 3">
				<g id="Group_7">
					<path d="M335.852 220.438C333.742 221.047 328.469 223.438 328.141 223.906C327.906 224.281 330.414 229.438 330.93 229.625C331.117 229.695 331.82 229.602 332.547 229.391C333.25 229.18 333.883 229.016 333.953 229.016C334.023 229.016 334.094 232.766 334.094 237.336C334.094 245.305 334.117 245.656 334.539 245.891C335.172 246.219 350.828 246.219 351.461 245.891C351.883 245.656 351.906 245.305 351.906 237.336C351.906 232.766 351.977 229.016 352.047 229.016C352.117 229.016 352.75 229.18 353.453 229.391C354.18 229.602 354.883 229.695 355.07 229.625C355.586 229.438 358.094 224.281 357.859 223.906C357.273 223.016 348.695 219.688 347.828 220.016C347.641 220.086 347.336 220.602 347.102 221.188C345.742 224.75 340.516 224.844 338.945 221.305C338.523 220.32 338.148 219.852 337.844 219.898C337.773 219.898 336.883 220.156 335.852 220.438Z" fill="black" id="Vector_20"/>
					<path d="M340.422 220.766C340.422 221.516 341.852 222.453 343 222.453C344.148 222.453 345.578 221.516 345.578 220.766C345.578 220.719 344.43 220.672 343 220.672C341.594 220.672 340.422 220.719 340.422 220.766Z" fill="black" id="Vector_21"/>
				</g>
			</g>
		</g>
		<g id="Store-409">
			<rect fill="#7BB0C5" height="37" id="Rectangle 6" stroke="#4169E1" stroke-width="3" width="51" x="243.5" y="278.5"/>
			<g id="close 2_2">
				<g id="Group_8">
					<path d="M261.852 284.438C259.742 285.047 254.469 287.438 254.141 287.906C253.906 288.281 256.414 293.438 256.93 293.625C257.117 293.695 257.82 293.602 258.547 293.391C259.25 293.18 259.883 293.016 259.953 293.016C260.023 293.016 260.094 296.766 260.094 301.336C260.094 309.305 260.117 309.656 260.539 309.891C261.172 310.219 276.828 310.219 277.461 309.891C277.883 309.656 277.906 309.305 277.906 301.336C277.906 296.766 277.977 293.016 278.047 293.016C278.117 293.016 278.75 293.18 279.453 293.391C280.18 293.602 280.883 293.695 281.07 293.625C281.586 293.438 284.094 288.281 283.859 287.906C283.273 287.016 274.695 283.688 273.828 284.016C273.641 284.086 273.336 284.602 273.102 285.188C271.742 288.75 266.516 288.844 264.945 285.305C264.523 284.32 264.148 283.852 263.844 283.898C263.773 283.898 262.883 284.156 261.852 284.438Z" fill="black" id="Vector_22"/>
					<path d="M266.422 284.766C266.422 285.516 267.852 286.453 269 286.453C270.148 286.453 271.578 285.516 271.578 284.766C271.578 284.719 270.43 284.672 269 284.672C267.594 284.672 266.422 284.719 266.422 284.766Z" fill="black" id="Vector_23"/>
				</g>
			</g>
		</g>
		<g id="Store-410">
			<rect fill="#7BB0C5" height="37" id="Rectangle 9" stroke="#4169E1" stroke-width="3" width="51" x="317.5" y="278.5"/>
			<g id="close 3_2">
				<g id="Group_9">
					<path d="M335.852 284.438C333.742 285.047 328.469 287.438 328.141 287.906C327.906 288.281 330.414 293.438 330.93 293.625C331.117 293.695 331.82 293.602 332.547 293.391C333.25 293.18 333.883 293.016 333.953 293.016C334.023 293.016 334.094 296.766 334.094 301.336C334.094 309.305 334.117 309.656 334.539 309.891C335.172 310.219 350.828 310.219 351.461 309.891C351.883 309.656 351.906 309.305 351.906 301.336C351.906 296.766 351.977 293.016 352.047 293.016C352.117 293.016 352.75 293.18 353.453 293.391C354.18 293.602 354.883 293.695 355.07 293.625C355.586 293.438 358.094 288.281 357.859 287.906C357.273 287.016 348.695 283.688 347.828 284.016C347.641 284.086 347.336 284.602 347.102 285.188C345.742 288.75 340.516 288.844 338.945 285.305C338.523 284.32 338.148 283.852 337.844 283.898C337.773 283.898 336.883 284.156 335.852 284.438Z" fill="black" id="Vector_24"/>
					<path d="M340.422 284.766C340.422 285.516 341.852 286.453 343 286.453C344.148 286.453 345.578 285.516 345.578 284.766C345.578 284.719 344.43 284.672 343 284.672C341.594 284.672 340.422 284.719 340.422 284.766Z" fill="black" id="Vector_25"/>
				</g>
			</g>
		</g>
		<g id="Store-406">
			<rect fill="#7BB0C5" height="37" id="Rectangle 7" stroke="#4169E1" stroke-width="3" width="51" x="317.5" y="149.5"/>
			<g id="kids 2">
				<g id="Group_10">
					<path d="M335.125 155.406C334.469 155.664 333.695 156.672 333.508 157.516C333.344 158.266 333.906 159.742 334.445 159.953C334.703 160.047 334.75 160.422 334.633 161.57C334.234 165.906 337.797 169.234 342.93 169.258C345.625 169.281 347.805 168.391 349.609 166.516C350.992 165.063 351.695 162.813 351.25 161.172C351.063 160.516 351.086 160.281 351.367 160.07C352.797 158.852 352.586 156.367 350.969 155.523C350.008 155.031 349.047 155.078 348.133 155.711C347.359 156.25 347.313 156.25 346.281 155.852C344.055 155.008 341.031 155.078 339.18 156.039C338.57 156.344 338.477 156.32 337.82 155.758C337.094 155.148 336.086 155.008 335.125 155.406ZM336.813 157.07C336.953 157.328 335.828 158.688 335.453 158.688C335.078 158.688 335.266 157.305 335.688 157.07C336.203 156.742 336.602 156.742 336.813 157.07ZM350.313 157.211C350.781 157.633 350.828 157.938 350.523 158.43C350.359 158.688 350.172 158.57 349.609 157.961C349.211 157.516 348.953 157.094 349 157C349.188 156.695 349.867 156.789 350.313 157.211ZM339.461 160.422C339.625 160.609 339.719 161.055 339.672 161.43C339.531 162.602 337.844 162.367 337.844 161.172C337.844 160.211 338.898 159.719 339.461 160.422ZM347.945 160.586C348.344 161.359 347.852 162.25 347.055 162.156C346.211 162.063 345.883 161.477 346.234 160.703C346.586 159.93 347.547 159.883 347.945 160.586ZM344.57 163.047C344.641 163.258 344.453 163.68 344.055 164.078C343.141 165.039 343.328 165.625 344.594 165.531C345.625 165.484 345.813 165.695 345.227 166.258C344.828 166.68 341.195 166.75 340.727 166.375C340.094 165.859 340.398 165.508 341.43 165.555C342.273 165.602 342.414 165.531 342.484 165.086C342.531 164.758 342.367 164.453 341.969 164.172C341.383 163.82 341.172 163.164 341.523 162.836C341.594 162.742 342.297 162.672 343.047 162.672C344.078 162.672 344.453 162.766 344.57 163.047Z" fill="black" id="Vector_26"/>
					<path d="M335.945 168.953C335.477 169.305 334.82 169.914 334.469 170.336C333.859 171.039 332.664 173.336 332.359 174.32C332.195 174.813 332.219 174.813 333.484 174.203C334.727 173.594 334.797 173.523 335.242 172.047C335.5 171.203 336.039 170.031 336.414 169.398C337.234 168.133 337.141 168.039 335.945 168.953Z" fill="black" id="Vector_27"/>
					<path d="M350.289 170.078C350.781 171.039 351.273 172.258 351.344 172.773C351.461 173.523 351.648 173.781 352.117 173.945C352.445 174.086 353.078 174.531 353.523 174.93L354.32 175.68L354.156 174.859C353.758 172.703 351.602 169.445 350.008 168.648L349.375 168.32L350.289 170.078Z" fill="black" id="Vector_28"/>
					<path d="M346.984 169.398C345.977 169.891 345.25 170.031 343.469 170.125C341.289 170.219 340.539 170.078 338.031 169.117C337.727 169 337.469 169.328 336.836 170.688C336.367 171.625 335.945 172.68 335.875 173.031C335.758 173.57 335.828 173.664 336.461 173.805C337.375 174.016 338.688 175.164 339.25 176.266C339.859 177.461 340.023 178.563 339.766 179.711L339.531 180.719L340.398 180.93C341.992 181.352 343.469 181.469 344.992 181.305C346.516 181.141 346.516 181.141 346.328 180.531C346.234 180.18 346.164 179.266 346.164 178.469C346.188 176.125 347.664 174.203 349.773 173.781C350.5 173.617 350.523 173.594 350.383 172.773C350.219 171.883 348.672 168.742 348.414 168.789C348.344 168.789 347.688 169.07 346.984 169.398ZM343.75 172.539C344.688 172.188 345.438 172.703 345.531 173.758C345.602 174.555 345.484 174.789 344.57 175.703C344.008 176.266 343.305 176.734 343.047 176.734C342.391 176.734 340.727 175.141 340.516 174.297C340.234 173.102 341.336 172.141 342.531 172.539C342.93 172.68 343.375 172.68 343.75 172.539Z" fill="black" id="Vector_29"/>
					<path d="M333.602 175.164C332.617 175.82 331.75 177.461 331.75 178.727C331.75 179.898 332.57 181.586 333.461 182.219C334.398 182.922 336.297 182.898 337.281 182.195C338.852 181.07 339.414 178.211 338.406 176.5C337.352 174.695 335.219 174.086 333.602 175.164ZM336.672 177.25C337.234 178.164 337.258 179.102 336.789 179.992C335.852 181.844 333.625 180.953 333.625 178.727C333.625 177.367 334.328 176.5 335.406 176.5C336.062 176.5 336.297 176.641 336.672 177.25Z" fill="black" id="Vector_30"/>
					<path d="M348.836 175.164C347.055 176.359 346.492 178.727 347.523 180.719C348.883 183.414 352.094 183.531 353.547 180.93C355.539 177.344 352.023 173.008 348.836 175.164ZM351.32 176.641C351.812 176.828 352.375 177.953 352.375 178.727C352.375 179.5 351.812 180.625 351.32 180.813C349.961 181.328 348.859 180.391 348.859 178.727C348.859 177.063 349.961 176.125 351.32 176.641Z" fill="black" id="Vector_31"/>
				</g>
			</g>
		</g>
	</g>
</svg>
