<svg  width="1600" height="1300" viewBox="0 0 910 630" fill="none" xmlns="http://www.w3.org/2000/svg">
<g id="Frame 1">
<g id="Store-301">
<rect id="Rectangle 1" x="43.5" y="446.5" width="93.3912" height="93.3912" transform="rotate(-90 43.5 446.5)" fill="#C28185" stroke="#A54762" stroke-width="3"/>
<g id="Decor 1">
<g id="Group">
<path id="Vector" opacity="0.965" fill-rule="evenodd" clip-rule="evenodd" d="M90.6894 380.682C90.8018 380.669 90.911 380.682 91.0168 380.722C96.6648 385.006 102.313 389.29 107.961 393.574C106.214 393.628 104.468 393.628 102.722 393.574C98.9021 390.6 95.0823 387.625 91.2624 384.651C90.9896 384.488 90.7167 384.488 90.4439 384.651C86.624 387.625 82.8042 390.6 78.9843 393.574C77.2381 393.628 75.4919 393.628 73.7457 393.574C79.4286 389.314 85.0765 385.017 90.6894 380.682Z" fill="black"/>
</g>
<g id="Group_2">
<path id="Vector_2" opacity="0.982" fill-rule="evenodd" clip-rule="evenodd" d="M90.6894 385.92C90.8018 385.907 90.911 385.921 91.0168 385.961C94.6519 388.822 98.2944 391.673 101.944 394.515C101.985 399.672 101.999 404.828 101.985 409.985C100.021 409.985 98.0563 409.985 96.0918 409.985C96.0783 409.711 96.0919 409.438 96.1327 409.167C97.321 408.494 97.6211 407.539 97.0331 406.302C96.648 405.802 96.1432 405.502 95.5188 405.401C96.936 403.779 98.3685 402.17 99.8161 400.572C100.086 399.938 99.8814 399.61 99.2022 399.59C97.415 399.567 95.8598 400.14 94.5365 401.309C94.5093 401.254 94.482 401.2 94.4547 401.145C94.8644 399.086 94.9599 397.013 94.7412 394.924C94.7062 394.548 94.5015 394.357 94.1273 394.351C93.9136 394.356 93.7362 394.438 93.5952 394.597C92.6781 396.076 91.914 397.632 91.3033 399.262C90.908 397.367 90.2532 395.566 89.3388 393.86C88.8559 393.572 88.5011 393.681 88.2747 394.187C87.3743 396.425 86.9514 398.744 87.006 401.145C85.5732 400.009 83.9361 399.504 82.0948 399.631C81.7513 399.875 81.6831 400.188 81.8901 400.572C83.3378 402.17 84.7702 403.779 86.1875 405.401C84.5461 405.846 84.0414 406.856 84.6732 408.43C84.9258 408.738 85.2258 408.983 85.5735 409.167C85.6143 409.438 85.628 409.711 85.6145 409.985C83.65 409.985 81.6855 409.985 79.721 409.985C79.7073 404.828 79.721 399.672 79.7619 394.515C83.4324 391.678 87.0749 388.813 90.6894 385.92Z" fill="black"/>
</g>
<g id="Group_3">
<path id="Vector_3" opacity="0.996" fill-rule="evenodd" clip-rule="evenodd" d="M72.5179 394.924C74.4823 394.924 76.4468 394.924 78.4113 394.924C78.425 400.108 78.4113 405.292 78.3704 410.476C76.4332 412.414 74.496 414.351 72.5588 416.288C72.5179 409.167 72.5042 402.046 72.5179 394.924Z" fill="black"/>
</g>
<g id="Group_4">
<path id="Vector_4" opacity="0.996" fill-rule="evenodd" clip-rule="evenodd" d="M103.295 394.924C105.259 394.924 107.224 394.924 109.188 394.924C109.202 402.046 109.188 409.167 109.147 416.288C107.21 414.351 105.273 412.414 103.336 410.476C103.295 405.292 103.281 400.108 103.295 394.924Z" fill="black"/>
</g>
<g id="Group_5">
<path id="Vector_5" opacity="0.93" fill-rule="evenodd" clip-rule="evenodd" d="M88.8886 396.07C89.0676 396.178 89.1903 396.342 89.257 396.561C90.3893 399.398 90.553 402.291 89.7481 405.238C89.5844 405.456 89.4207 405.456 89.257 405.238C88.0651 402.222 87.9423 399.166 88.8886 396.07Z" fill="black"/>
</g>
<g id="Group_6">
<path id="Vector_6" opacity="0.888" fill-rule="evenodd" clip-rule="evenodd" d="M93.5543 397.134C93.6545 399.989 93.0815 402.717 91.8354 405.32C91.738 405.396 91.6289 405.423 91.508 405.401C91.5361 402.48 92.2182 399.724 93.5543 397.134Z" fill="black"/>
</g>
<g id="Group_7">
<path id="Vector_7" opacity="0.849" fill-rule="evenodd" clip-rule="evenodd" d="M83.9774 401.145C85.5092 401.293 86.6142 402.085 87.2925 403.519C87.5017 404.128 87.7336 404.728 87.9882 405.32C87.8443 405.422 87.7215 405.395 87.6199 405.238C86.4167 403.858 85.2026 402.493 83.9774 401.145Z" fill="black"/>
</g>
<g id="Group_8">
<path id="Vector_8" opacity="0.85" fill-rule="evenodd" clip-rule="evenodd" d="M97.3196 401.063C97.4587 401.05 97.5951 401.064 97.7289 401.104C96.4573 402.566 95.1613 403.999 93.8408 405.401C93.7999 405.374 93.7589 405.347 93.718 405.32C93.9727 404.728 94.2045 404.128 94.4138 403.519C95.0239 402.267 95.9926 401.448 97.3196 401.063Z" fill="black"/>
</g>
<g id="Group_9">
<path id="Vector_9" opacity="0.988" fill-rule="evenodd" clip-rule="evenodd" d="M85.9419 406.711C89.2161 406.697 92.4903 406.711 95.7644 406.752C96.0112 406.877 96.1203 407.082 96.0918 407.366C96.1203 407.65 96.0112 407.855 95.7644 407.98C92.4902 408.034 89.216 408.034 85.9419 407.98C85.695 407.855 85.5859 407.65 85.6145 407.366C85.5966 407.074 85.7058 406.856 85.9419 406.711Z" fill="black"/>
</g>
<g id="Group_10">
<path id="Vector_10" opacity="0.998" fill-rule="evenodd" clip-rule="evenodd" d="M86.9241 409.33C89.5435 409.33 92.1628 409.33 94.7821 409.33C94.8212 411.03 94.7802 412.721 94.6593 414.405C94.5979 414.457 94.5297 414.498 94.4547 414.528C92.0537 414.583 89.6526 414.583 87.2516 414.528C87.1766 414.498 87.1083 414.457 87.0469 414.405C86.926 412.721 86.8851 411.03 86.9241 409.33Z" fill="black"/>
</g>
<g id="Group_11">
<path id="Vector_11" opacity="0.991" fill-rule="evenodd" clip-rule="evenodd" d="M79.2299 411.295C81.3581 411.295 83.4863 411.295 85.6145 411.295C85.5839 412.336 85.6248 413.372 85.7373 414.405C86.0405 415.282 86.6544 415.759 87.579 415.838C89.7618 415.892 91.9445 415.892 94.1273 415.838C95.0518 415.759 95.6657 415.282 95.969 414.405C96.0815 413.372 96.1224 412.336 96.0918 411.295C98.2201 411.281 100.348 411.295 102.476 411.336C104.414 413.273 106.351 415.21 108.288 417.147C96.6648 417.202 85.0415 417.202 73.4182 417.147C75.372 415.207 77.3092 413.257 79.2299 411.295Z" fill="black"/>
</g>
</g>
</g>
<rect id="Rectangle 2" x="137.5" y="424.5" width="71" height="105" transform="rotate(-90 137.5 424.5)" fill="#B23756" stroke="#A54762" stroke-width="3"/>
<g id="Store-302">
<g id="Rectangle 3" filter="url(#filter0_d_1_2)">
<rect x="147" y="406" width="45" height="37" transform="rotate(-90 147 406)" fill="#C28185"/>
</g>
<g id="body 1">
<g id="Group_12">
<path id="Vector_12" d="M159.109 369.781C159.039 369.992 158.969 371.023 158.969 372.102C158.969 373.906 158.922 374.141 158.148 375.383C157.703 376.133 157.258 377.117 157.187 377.539C156.953 378.805 157.211 380.633 157.727 381.312L158.195 381.945H166H173.805L174.273 381.312C174.789 380.609 175.07 378.617 174.813 377.305C174.742 376.883 174.297 375.898 173.852 375.148C173.102 373.93 173.031 373.648 173.031 371.984C173.031 369.945 172.914 369.406 172.422 369.406C172.164 369.406 172.094 369.875 172.094 371.492V373.602L170.664 374.352C169.164 375.148 167.148 377.164 166.516 378.477C166.305 378.898 166.094 379.25 166.023 379.25C165.953 379.25 165.625 378.805 165.32 378.266C164.43 376.719 162.719 375.031 161.266 374.305L159.906 373.625V371.516C159.906 369.875 159.836 369.406 159.578 369.406C159.391 369.406 159.18 369.57 159.109 369.781Z" fill="black"/>
<path id="Vector_13" d="M158.781 383.633L158.852 384.289H166H173.148L173.219 383.633L173.289 383H166H158.711L158.781 383.633Z" fill="black"/>
<path id="Vector_14" d="M157.961 388.156C157.727 388.93 157.562 389.656 157.562 389.773C157.562 389.914 158.172 390.43 158.922 390.922C160.422 391.953 163.211 394.789 163.773 395.891C164.125 396.594 164.172 396.594 166 396.594C167.828 396.594 167.875 396.57 168.227 395.891C168.789 394.812 171.32 392.211 172.961 391.039C173.781 390.453 174.438 389.891 174.438 389.773C174.438 389.141 173.617 386.75 173.406 386.75C173.266 386.75 172.352 386.914 171.391 387.125C170.195 387.383 168.484 387.523 166 387.523C163.516 387.523 161.805 387.383 160.609 387.125C159.648 386.914 158.734 386.75 158.594 386.75C158.453 386.75 158.172 387.383 157.961 388.156ZM167.172 389.938C167.172 390.359 166.703 390.594 166.422 390.312C166.234 390.125 166.023 390.125 165.695 390.289C165.367 390.477 165.18 390.477 164.969 390.266C164.781 390.055 164.875 389.867 165.367 389.422C165.977 388.883 166.047 388.883 166.586 389.234C166.914 389.445 167.172 389.75 167.172 389.938Z" fill="black"/>
</g>
</g>
</g>
<g id="Store-303">
<g id="Rectangle 4" filter="url(#filter1_d_1_2)">
<rect x="200" y="406" width="45" height="37" transform="rotate(-90 200 406)" fill="#C28185"/>
</g>
<g id="close 1">
<g id="Group_13">
<path id="Vector_15" d="M211.852 370.438C209.742 371.047 204.469 373.438 204.141 373.906C203.906 374.281 206.414 379.438 206.93 379.625C207.117 379.695 207.82 379.602 208.547 379.391C209.25 379.18 209.883 379.016 209.953 379.016C210.023 379.016 210.094 382.766 210.094 387.336C210.094 395.305 210.117 395.656 210.539 395.891C211.172 396.219 226.828 396.219 227.461 395.891C227.883 395.656 227.906 395.305 227.906 387.336C227.906 382.766 227.977 379.016 228.047 379.016C228.117 379.016 228.75 379.18 229.453 379.391C230.18 379.602 230.883 379.695 231.07 379.625C231.586 379.438 234.094 374.281 233.859 373.906C233.273 373.016 224.695 369.688 223.828 370.016C223.641 370.086 223.336 370.602 223.102 371.188C221.742 374.75 216.516 374.844 214.945 371.305C214.523 370.32 214.148 369.852 213.844 369.898C213.773 369.898 212.883 370.156 211.852 370.438Z" fill="black"/>
<path id="Vector_16" d="M216.422 370.766C216.422 371.516 217.852 372.453 219 372.453C220.148 372.453 221.578 371.516 221.578 370.766C221.578 370.719 220.43 370.672 219 370.672C217.594 370.672 216.422 370.719 216.422 370.766Z" fill="black"/>
</g>
</g>
</g>
<rect id="Rectangle 5" x="241.5" y="439.5" width="86" height="253" transform="rotate(-90 241.5 439.5)" fill="#B23756" stroke="#A54762" stroke-width="3"/>
<g id="Store-304">
<g id="Rectangle 6" filter="url(#filter2_d_1_2)">
<rect x="256" y="406" width="45" height="37" transform="rotate(-90 256 406)" fill="#C28185"/>
</g>
<g id="yslygi 1">
<g id="Group_14">
<path id="Vector_17" d="M266.375 369.641C266.164 369.992 265.93 370.063 265.391 369.969C264.664 369.805 264.594 369.898 264.688 370.977C264.711 371.281 264.523 371.586 264.242 371.75C263.609 372.078 263.609 372.852 264.242 373.039C264.641 373.18 264.711 373.344 264.594 373.859C264.453 374.633 264.852 375.078 265.555 374.891C265.906 374.797 266.164 374.891 266.375 375.242C266.703 375.805 267.734 375.922 267.734 375.406C267.734 375.008 268.297 374.75 268.789 374.938C269.352 375.172 269.773 374.656 269.656 373.883C269.586 373.344 269.656 373.18 270.055 373.039C270.688 372.852 270.688 372.078 270.055 371.727C269.703 371.539 269.586 371.305 269.68 370.906C269.797 370.227 269.328 369.781 268.695 369.992C268.367 370.086 268.133 369.992 267.922 369.664C267.547 369.031 266.773 369.031 266.375 369.641ZM268.203 371.281C268.672 371.75 268.812 372.805 268.484 373.297C268.18 373.766 267.266 374.117 266.797 373.977C266.023 373.742 265.625 373.156 265.625 372.336C265.625 370.977 267.242 370.32 268.203 371.281Z" fill="black"/>
<path id="Vector_18" d="M274.742 373.672C274.391 374.516 273.383 374.844 272.75 374.305C272.469 374.07 272.281 374.117 271.789 374.633C271.227 375.172 271.203 375.312 271.461 375.805C271.906 376.625 271.695 377.211 270.852 377.609C270.219 377.891 270.078 378.102 270.078 378.734C270.078 379.25 270.219 379.555 270.5 379.648C271.625 380.047 272 380.914 271.438 381.828C270.969 382.578 271.695 383.117 273.195 383.117C274.297 383.117 274.438 383.187 274.719 383.773C275.094 384.547 275.492 384.734 276.289 384.547C276.641 384.453 276.875 384.242 276.875 383.961C276.875 383.234 277.461 382.93 278.586 383.094C279.43 383.234 279.664 383.164 280.016 382.789C280.391 382.367 280.414 382.203 280.156 381.594C279.922 381.008 279.922 380.797 280.25 380.305C280.461 379.977 280.836 379.719 281.094 379.719C281.492 379.719 281.562 379.555 281.562 378.805C281.562 378.031 281.469 377.867 280.977 377.75C280.133 377.539 279.805 376.789 280.18 375.922C280.438 375.289 280.414 375.172 279.852 374.633C279.359 374.117 279.172 374.07 278.891 374.305C278.703 374.469 278.258 374.562 277.906 374.516C277.297 374.445 277.039 374.187 276.781 373.32C276.688 373.039 276.406 372.922 275.867 372.922C275.211 372.922 275.023 373.039 274.742 373.672ZM277.109 376.32C278.07 376.812 278.516 377.562 278.516 378.734C278.516 380.023 277.859 380.984 276.758 381.359C275.609 381.734 274.672 381.453 273.828 380.516C271.836 378.219 274.414 374.914 277.109 376.32Z" fill="black"/>
<path id="Vector_19" d="M285.055 379.273C284.867 379.625 284.633 379.742 284.234 379.648C283.555 379.531 283.062 380.047 283.156 380.797C283.203 381.148 283.062 381.406 282.758 381.594C282.125 381.922 282.125 382.672 282.758 382.836C283.133 382.93 283.227 383.117 283.18 383.633C283.062 384.594 283.344 384.875 284.164 384.711C284.75 384.594 284.891 384.664 285.008 385.086C285.172 385.742 286.039 385.742 286.438 385.086C286.648 384.734 286.906 384.641 287.258 384.734C287.961 384.922 288.359 384.477 288.219 383.703C288.102 383.188 288.172 383.023 288.57 382.883C289.203 382.695 289.203 381.922 288.57 381.57C288.172 381.383 288.102 381.172 288.219 380.633C288.359 379.859 288.055 379.578 287.141 379.695C286.719 379.742 286.438 379.602 286.25 379.273C285.922 378.641 285.406 378.641 285.055 379.273ZM286.672 381.031C287.023 381.266 287.188 381.617 287.188 382.18C287.188 383.563 285.922 384.313 284.867 383.539C283.133 382.25 284.891 379.789 286.672 381.031Z" fill="black"/>
<path id="Vector_20" d="M270.43 385.578C269.398 385.812 265.391 387.711 265.391 387.969C265.391 388.156 267.43 393.219 267.664 393.594C267.711 393.711 268.18 393.57 268.672 393.312C269.914 392.68 270.523 392.727 273.383 393.57C275.187 394.109 276.078 394.273 276.875 394.18C277.766 394.062 286.812 390.734 288.102 390.031C288.758 389.68 289.18 388.484 288.875 387.805C288.43 386.82 287.492 386.844 283.695 387.922C280.344 388.883 280.203 388.953 280.062 389.586C279.898 390.383 279.195 391.133 278.445 391.32C277.625 391.531 271.836 389.961 271.836 389.539C271.836 389.094 272.352 389.141 275.305 389.914C278.352 390.734 279.055 390.617 279.172 389.305C279.266 388.203 278.844 387.875 276.43 387.242C275.328 386.937 273.969 386.469 273.383 386.164C272.047 385.508 271.344 385.344 270.43 385.578Z" fill="black"/>
<path id="Vector_21" d="M262.18 387.125C261.5 387.43 260.938 387.758 260.938 387.852C260.938 387.969 261.758 390.008 262.742 392.422C264.078 395.633 264.664 396.828 264.969 396.828C265.555 396.828 267.5 395.938 267.5 395.656C267.5 395.188 263.891 386.773 263.656 386.68C263.516 386.633 262.836 386.844 262.18 387.125Z" fill="black"/>
</g>
</g>
</g>
<g id="Store-305">
<g id="Rectangle 7" filter="url(#filter3_d_1_2)">
<rect x="447" y="431" width="45" height="37" transform="rotate(-90 447 431)" fill="#C28185"/>
</g>
<g id="yslygi 2">
<g id="Group_15">
<path id="Vector_22" d="M457.375 394.641C457.164 394.992 456.93 395.063 456.391 394.969C455.664 394.805 455.594 394.898 455.688 395.977C455.711 396.281 455.523 396.586 455.242 396.75C454.609 397.078 454.609 397.852 455.242 398.039C455.641 398.18 455.711 398.344 455.594 398.859C455.453 399.633 455.852 400.078 456.555 399.891C456.906 399.797 457.164 399.891 457.375 400.242C457.703 400.805 458.734 400.922 458.734 400.406C458.734 400.008 459.297 399.75 459.789 399.938C460.352 400.172 460.773 399.656 460.656 398.883C460.586 398.344 460.656 398.18 461.055 398.039C461.688 397.852 461.688 397.078 461.055 396.727C460.703 396.539 460.586 396.305 460.68 395.906C460.797 395.227 460.328 394.781 459.695 394.992C459.367 395.086 459.133 394.992 458.922 394.664C458.547 394.031 457.773 394.031 457.375 394.641ZM459.203 396.281C459.672 396.75 459.812 397.805 459.484 398.297C459.18 398.766 458.266 399.117 457.797 398.977C457.023 398.742 456.625 398.156 456.625 397.336C456.625 395.977 458.242 395.32 459.203 396.281Z" fill="black"/>
<path id="Vector_23" d="M465.742 398.672C465.391 399.516 464.383 399.844 463.75 399.305C463.469 399.07 463.281 399.117 462.789 399.633C462.227 400.172 462.203 400.312 462.461 400.805C462.906 401.625 462.695 402.211 461.852 402.609C461.219 402.891 461.078 403.102 461.078 403.734C461.078 404.25 461.219 404.555 461.5 404.648C462.625 405.047 463 405.914 462.438 406.828C461.969 407.578 462.695 408.117 464.195 408.117C465.297 408.117 465.438 408.187 465.719 408.773C466.094 409.547 466.492 409.734 467.289 409.547C467.641 409.453 467.875 409.242 467.875 408.961C467.875 408.234 468.461 407.93 469.586 408.094C470.43 408.234 470.664 408.164 471.016 407.789C471.391 407.367 471.414 407.203 471.156 406.594C470.922 406.008 470.922 405.797 471.25 405.305C471.461 404.977 471.836 404.719 472.094 404.719C472.492 404.719 472.562 404.555 472.562 403.805C472.562 403.031 472.469 402.867 471.977 402.75C471.133 402.539 470.805 401.789 471.18 400.922C471.438 400.289 471.414 400.172 470.852 399.633C470.359 399.117 470.172 399.07 469.891 399.305C469.703 399.469 469.258 399.562 468.906 399.516C468.297 399.445 468.039 399.187 467.781 398.32C467.688 398.039 467.406 397.922 466.867 397.922C466.211 397.922 466.023 398.039 465.742 398.672ZM468.109 401.32C469.07 401.812 469.516 402.562 469.516 403.734C469.516 405.023 468.859 405.984 467.758 406.359C466.609 406.734 465.672 406.453 464.828 405.516C462.836 403.219 465.414 399.914 468.109 401.32Z" fill="black"/>
<path id="Vector_24" d="M476.055 404.273C475.867 404.625 475.633 404.742 475.234 404.648C474.555 404.531 474.062 405.047 474.156 405.797C474.203 406.148 474.062 406.406 473.758 406.594C473.125 406.922 473.125 407.672 473.758 407.836C474.133 407.93 474.227 408.117 474.18 408.633C474.062 409.594 474.344 409.875 475.164 409.711C475.75 409.594 475.891 409.664 476.008 410.086C476.172 410.742 477.039 410.742 477.438 410.086C477.648 409.734 477.906 409.641 478.258 409.734C478.961 409.922 479.359 409.477 479.219 408.703C479.102 408.188 479.172 408.023 479.57 407.883C480.203 407.695 480.203 406.922 479.57 406.57C479.172 406.383 479.102 406.172 479.219 405.633C479.359 404.859 479.055 404.578 478.141 404.695C477.719 404.742 477.438 404.602 477.25 404.273C476.922 403.641 476.406 403.641 476.055 404.273ZM477.672 406.031C478.023 406.266 478.188 406.617 478.188 407.18C478.188 408.563 476.922 409.313 475.867 408.539C474.133 407.25 475.891 404.789 477.672 406.031Z" fill="black"/>
<path id="Vector_25" d="M461.43 410.578C460.398 410.812 456.391 412.711 456.391 412.969C456.391 413.156 458.43 418.219 458.664 418.594C458.711 418.711 459.18 418.57 459.672 418.312C460.914 417.68 461.523 417.727 464.383 418.57C466.187 419.109 467.078 419.273 467.875 419.18C468.766 419.062 477.812 415.734 479.102 415.031C479.758 414.68 480.18 413.484 479.875 412.805C479.43 411.82 478.492 411.844 474.695 412.922C471.344 413.883 471.203 413.953 471.062 414.586C470.898 415.383 470.195 416.133 469.445 416.32C468.625 416.531 462.836 414.961 462.836 414.539C462.836 414.094 463.352 414.141 466.305 414.914C469.352 415.734 470.055 415.617 470.172 414.305C470.266 413.203 469.844 412.875 467.43 412.242C466.328 411.937 464.969 411.469 464.383 411.164C463.047 410.508 462.344 410.344 461.43 410.578Z" fill="black"/>
<path id="Vector_26" d="M453.18 412.125C452.5 412.43 451.938 412.758 451.938 412.852C451.938 412.969 452.758 415.008 453.742 417.422C455.078 420.633 455.664 421.828 455.969 421.828C456.555 421.828 458.5 420.938 458.5 420.656C458.5 420.188 454.891 411.773 454.656 411.68C454.516 411.633 453.836 411.844 453.18 412.125Z" fill="black"/>
</g>
</g>
</g>
<rect id="Rectangle 8" x="384.5" y="352.5" width="223" height="74" transform="rotate(-90 384.5 352.5)" fill="#0E8656" stroke="#146D49" stroke-width="3"/>
<g id="Store-306">
<g id="Rectangle 9" filter="url(#filter4_d_1_2)">
<rect x="414" y="332" width="45" height="37" transform="rotate(-90 414 332)" fill="#79AE8D"/>
</g>
<g id="Decor 2">
<g id="Group_16">
<path id="Vector_27" opacity="0.965" fill-rule="evenodd" clip-rule="evenodd" d="M430.854 295.963C430.934 295.954 431.012 295.963 431.088 295.992C435.131 299.059 439.174 302.125 443.217 305.191C441.967 305.23 440.717 305.23 439.467 305.191C436.732 303.063 433.998 300.934 431.264 298.805C431.068 298.688 430.873 298.688 430.678 298.805C427.943 300.934 425.209 303.063 422.475 305.191C421.225 305.23 419.975 305.23 418.725 305.191C422.793 302.142 426.836 299.066 430.854 295.963Z" fill="black"/>
</g>
<g id="Group_17">
<path id="Vector_28" opacity="0.982" fill-rule="evenodd" clip-rule="evenodd" d="M430.854 299.713C430.934 299.704 431.012 299.713 431.088 299.742C433.69 301.79 436.297 303.831 438.91 305.865C438.939 309.557 438.949 313.248 438.939 316.939C437.533 316.939 436.127 316.939 434.721 316.939C434.711 316.743 434.721 316.548 434.75 316.354C435.601 315.872 435.815 315.188 435.395 314.303C435.119 313.945 434.758 313.73 434.311 313.658C435.325 312.497 436.35 311.345 437.387 310.201C437.58 309.747 437.433 309.513 436.947 309.498C435.668 309.482 434.555 309.892 433.607 310.729C433.588 310.689 433.568 310.65 433.549 310.611C433.842 309.138 433.91 307.653 433.754 306.158C433.729 305.889 433.582 305.752 433.314 305.748C433.161 305.751 433.035 305.81 432.934 305.924C432.277 306.983 431.73 308.096 431.293 309.264C431.01 307.907 430.541 306.618 429.887 305.396C429.541 305.19 429.287 305.268 429.125 305.631C428.48 307.233 428.178 308.893 428.217 310.611C427.191 309.798 426.019 309.437 424.701 309.527C424.455 309.702 424.407 309.927 424.555 310.201C425.591 311.345 426.616 312.497 427.631 313.658C426.456 313.977 426.095 314.699 426.547 315.826C426.728 316.046 426.943 316.222 427.191 316.354C427.221 316.548 427.23 316.743 427.221 316.939C425.814 316.939 424.408 316.939 423.002 316.939C422.992 313.248 423.002 309.557 423.031 305.865C425.659 303.835 428.266 301.784 430.854 299.713Z" fill="black"/>
</g>
<g id="Group_18">
<path id="Vector_29" opacity="0.996" fill-rule="evenodd" clip-rule="evenodd" d="M417.846 306.158C419.252 306.158 420.658 306.158 422.064 306.158C422.074 309.869 422.064 313.58 422.035 317.291C420.648 318.678 419.262 320.064 417.875 321.451C417.846 316.354 417.836 311.256 417.846 306.158Z" fill="black"/>
</g>
<g id="Group_19">
<path id="Vector_30" opacity="0.996" fill-rule="evenodd" clip-rule="evenodd" d="M439.877 306.158C441.283 306.158 442.689 306.158 444.096 306.158C444.105 311.256 444.096 316.354 444.066 321.451C442.68 320.064 441.293 318.678 439.906 317.291C439.877 313.58 439.867 309.869 439.877 306.158Z" fill="black"/>
</g>
<g id="Group_20">
<path id="Vector_31" opacity="0.93" fill-rule="evenodd" clip-rule="evenodd" d="M429.564 306.979C429.693 307.056 429.78 307.173 429.828 307.33C430.639 309.361 430.756 311.431 430.18 313.541C430.062 313.697 429.945 313.697 429.828 313.541C428.975 311.382 428.887 309.195 429.564 306.979Z" fill="black"/>
</g>
<g id="Group_21">
<path id="Vector_32" opacity="0.888" fill-rule="evenodd" clip-rule="evenodd" d="M432.904 307.74C432.976 309.784 432.566 311.737 431.674 313.6C431.604 313.654 431.526 313.674 431.439 313.658C431.46 311.567 431.948 309.594 432.904 307.74Z" fill="black"/>
</g>
<g id="Group_22">
<path id="Vector_33" opacity="0.849" fill-rule="evenodd" clip-rule="evenodd" d="M426.049 310.611C427.145 310.718 427.936 311.284 428.422 312.311C428.572 312.747 428.738 313.176 428.92 313.6C428.817 313.673 428.729 313.654 428.656 313.541C427.795 312.553 426.926 311.576 426.049 310.611Z" fill="black"/>
</g>
<g id="Group_23">
<path id="Vector_34" opacity="0.85" fill-rule="evenodd" clip-rule="evenodd" d="M435.6 310.553C435.699 310.543 435.797 310.553 435.893 310.582C434.982 311.629 434.055 312.654 433.109 313.658C433.08 313.639 433.051 313.619 433.021 313.6C433.204 313.176 433.37 312.747 433.52 312.311C433.956 311.414 434.65 310.829 435.6 310.553Z" fill="black"/>
</g>
<g id="Group_24">
<path id="Vector_35" opacity="0.988" fill-rule="evenodd" clip-rule="evenodd" d="M427.455 314.596C429.799 314.586 432.143 314.596 434.486 314.625C434.663 314.715 434.741 314.861 434.721 315.064C434.741 315.268 434.663 315.414 434.486 315.504C432.143 315.543 429.799 315.543 427.455 315.504C427.278 315.414 427.2 315.268 427.221 315.064C427.208 314.856 427.286 314.699 427.455 314.596Z" fill="black"/>
</g>
<g id="Group_25">
<path id="Vector_36" opacity="0.998" fill-rule="evenodd" clip-rule="evenodd" d="M428.158 316.471C430.033 316.471 431.908 316.471 433.783 316.471C433.811 317.687 433.782 318.898 433.695 320.104C433.651 320.14 433.603 320.169 433.549 320.191C431.83 320.23 430.111 320.23 428.393 320.191C428.339 320.169 428.29 320.14 428.246 320.104C428.16 318.898 428.13 317.687 428.158 316.471Z" fill="black"/>
</g>
<g id="Group_26">
<path id="Vector_37" opacity="0.991" fill-rule="evenodd" clip-rule="evenodd" d="M422.65 317.877C424.174 317.877 425.697 317.877 427.221 317.877C427.199 318.622 427.228 319.364 427.309 320.104C427.526 320.731 427.965 321.072 428.627 321.129C430.189 321.168 431.752 321.168 433.314 321.129C433.976 321.072 434.416 320.731 434.633 320.104C434.713 319.364 434.743 318.622 434.721 317.877C436.244 317.867 437.768 317.877 439.291 317.906C440.678 319.293 442.064 320.68 443.451 322.066C435.131 322.105 426.811 322.105 418.49 322.066C419.889 320.678 421.275 319.281 422.65 317.877Z" fill="black"/>
</g>
</g>
</g>
<g id="Store-307">
<g id="Rectangle 10" filter="url(#filter5_d_1_2)">
<rect x="414" y="273" width="45" height="37" transform="rotate(-90 414 273)" fill="#79AE8D"/>
</g>
<g id="yslygi 3">
<g id="Group_27">
<path id="Vector_38" d="M422.375 236.641C422.164 236.992 421.93 237.063 421.391 236.969C420.664 236.805 420.594 236.898 420.688 237.977C420.711 238.281 420.523 238.586 420.242 238.75C419.609 239.078 419.609 239.852 420.242 240.039C420.641 240.18 420.711 240.344 420.594 240.859C420.453 241.633 420.852 242.078 421.555 241.891C421.906 241.797 422.164 241.891 422.375 242.242C422.703 242.805 423.734 242.922 423.734 242.406C423.734 242.008 424.297 241.75 424.789 241.938C425.352 242.172 425.773 241.656 425.656 240.883C425.586 240.344 425.656 240.18 426.055 240.039C426.688 239.852 426.688 239.078 426.055 238.727C425.703 238.539 425.586 238.305 425.68 237.906C425.797 237.227 425.328 236.781 424.695 236.992C424.367 237.086 424.133 236.992 423.922 236.664C423.547 236.031 422.773 236.031 422.375 236.641ZM424.203 238.281C424.672 238.75 424.812 239.805 424.484 240.297C424.18 240.766 423.266 241.117 422.797 240.977C422.023 240.742 421.625 240.156 421.625 239.336C421.625 237.977 423.242 237.32 424.203 238.281Z" fill="black"/>
<path id="Vector_39" d="M430.742 240.672C430.391 241.516 429.383 241.844 428.75 241.305C428.469 241.07 428.281 241.117 427.789 241.633C427.227 242.172 427.203 242.312 427.461 242.805C427.906 243.625 427.695 244.211 426.852 244.609C426.219 244.891 426.078 245.102 426.078 245.734C426.078 246.25 426.219 246.555 426.5 246.648C427.625 247.047 428 247.914 427.438 248.828C426.969 249.578 427.695 250.117 429.195 250.117C430.297 250.117 430.438 250.187 430.719 250.773C431.094 251.547 431.492 251.734 432.289 251.547C432.641 251.453 432.875 251.242 432.875 250.961C432.875 250.234 433.461 249.93 434.586 250.094C435.43 250.234 435.664 250.164 436.016 249.789C436.391 249.367 436.414 249.203 436.156 248.594C435.922 248.008 435.922 247.797 436.25 247.305C436.461 246.977 436.836 246.719 437.094 246.719C437.492 246.719 437.562 246.555 437.562 245.805C437.562 245.031 437.469 244.867 436.977 244.75C436.133 244.539 435.805 243.789 436.18 242.922C436.438 242.289 436.414 242.172 435.852 241.633C435.359 241.117 435.172 241.07 434.891 241.305C434.703 241.469 434.258 241.562 433.906 241.516C433.297 241.445 433.039 241.187 432.781 240.32C432.688 240.039 432.406 239.922 431.867 239.922C431.211 239.922 431.023 240.039 430.742 240.672ZM433.109 243.32C434.07 243.812 434.516 244.562 434.516 245.734C434.516 247.023 433.859 247.984 432.758 248.359C431.609 248.734 430.672 248.453 429.828 247.516C427.836 245.219 430.414 241.914 433.109 243.32Z" fill="black"/>
<path id="Vector_40" d="M441.055 246.273C440.867 246.625 440.633 246.742 440.234 246.648C439.555 246.531 439.062 247.047 439.156 247.797C439.203 248.148 439.062 248.406 438.758 248.594C438.125 248.922 438.125 249.672 438.758 249.836C439.133 249.93 439.227 250.117 439.18 250.633C439.062 251.594 439.344 251.875 440.164 251.711C440.75 251.594 440.891 251.664 441.008 252.086C441.172 252.742 442.039 252.742 442.438 252.086C442.648 251.734 442.906 251.641 443.258 251.734C443.961 251.922 444.359 251.477 444.219 250.703C444.102 250.188 444.172 250.023 444.57 249.883C445.203 249.695 445.203 248.922 444.57 248.57C444.172 248.383 444.102 248.172 444.219 247.633C444.359 246.859 444.055 246.578 443.141 246.695C442.719 246.742 442.438 246.602 442.25 246.273C441.922 245.641 441.406 245.641 441.055 246.273ZM442.672 248.031C443.023 248.266 443.188 248.617 443.188 249.18C443.188 250.563 441.922 251.313 440.867 250.539C439.133 249.25 440.891 246.789 442.672 248.031Z" fill="black"/>
<path id="Vector_41" d="M426.43 252.578C425.398 252.812 421.391 254.711 421.391 254.969C421.391 255.156 423.43 260.219 423.664 260.594C423.711 260.711 424.18 260.57 424.672 260.312C425.914 259.68 426.523 259.727 429.383 260.57C431.187 261.109 432.078 261.273 432.875 261.18C433.766 261.062 442.812 257.734 444.102 257.031C444.758 256.68 445.18 255.484 444.875 254.805C444.43 253.82 443.492 253.844 439.695 254.922C436.344 255.883 436.203 255.953 436.062 256.586C435.898 257.383 435.195 258.133 434.445 258.32C433.625 258.531 427.836 256.961 427.836 256.539C427.836 256.094 428.352 256.141 431.305 256.914C434.352 257.734 435.055 257.617 435.172 256.305C435.266 255.203 434.844 254.875 432.43 254.242C431.328 253.937 429.969 253.469 429.383 253.164C428.047 252.508 427.344 252.344 426.43 252.578Z" fill="black"/>
<path id="Vector_42" d="M418.18 254.125C417.5 254.43 416.938 254.758 416.938 254.852C416.938 254.969 417.758 257.008 418.742 259.422C420.078 262.633 420.664 263.828 420.969 263.828C421.555 263.828 423.5 262.938 423.5 262.656C423.5 262.188 419.891 253.773 419.656 253.68C419.516 253.633 418.836 253.844 418.18 254.125Z" fill="black"/>
</g>
</g>
</g>
<rect id="Rectangle 11" x="457.5" y="260.5" width="131" height="167" transform="rotate(-90 457.5 260.5)" fill="#067EA9" stroke="#1B5B72" stroke-width="3"/>
<g id="Store-308">
<g id="Rectangle 12" filter="url(#filter6_d_1_2)">
<rect x="486" y="253" width="45" height="37" transform="rotate(-90 486 253)" fill="#7BB0C5"/>
</g>
<g id="close 2">
<g id="Group_28">
<path id="Vector_43" d="M497.852 217.438C495.742 218.047 490.469 220.438 490.141 220.906C489.906 221.281 492.414 226.438 492.93 226.625C493.117 226.695 493.82 226.602 494.547 226.391C495.25 226.18 495.883 226.016 495.953 226.016C496.023 226.016 496.094 229.766 496.094 234.336C496.094 242.305 496.117 242.656 496.539 242.891C497.172 243.219 512.828 243.219 513.461 242.891C513.883 242.656 513.906 242.305 513.906 234.336C513.906 229.766 513.977 226.016 514.047 226.016C514.117 226.016 514.75 226.18 515.453 226.391C516.18 226.602 516.883 226.695 517.07 226.625C517.586 226.438 520.094 221.281 519.859 220.906C519.273 220.016 510.695 216.688 509.828 217.016C509.641 217.086 509.336 217.602 509.102 218.188C507.742 221.75 502.516 221.844 500.945 218.305C500.523 217.32 500.148 216.852 499.844 216.898C499.773 216.898 498.883 217.156 497.852 217.438Z" fill="black"/>
<path id="Vector_44" d="M502.422 217.766C502.422 218.516 503.852 219.453 505 219.453C506.148 219.453 507.578 218.516 507.578 217.766C507.578 217.719 506.43 217.672 505 217.672C503.594 217.672 502.422 217.719 502.422 217.766Z" fill="black"/>
</g>
</g>
</g>
<g id="Store-309">
<g id="Rectangle 13" filter="url(#filter7_d_1_2)">
<rect x="468" y="183" width="45" height="37" transform="rotate(-90 468 183)" fill="#7BB0C5"/>
</g>
<g id="close 5">
<g id="Group_29">
<path id="Vector_45" d="M479.852 147.438C477.742 148.047 472.469 150.438 472.141 150.906C471.906 151.281 474.414 156.438 474.93 156.625C475.117 156.695 475.82 156.602 476.547 156.391C477.25 156.18 477.883 156.016 477.953 156.016C478.023 156.016 478.094 159.766 478.094 164.336C478.094 172.305 478.117 172.656 478.539 172.891C479.172 173.219 494.828 173.219 495.461 172.891C495.883 172.656 495.906 172.305 495.906 164.336C495.906 159.766 495.977 156.016 496.047 156.016C496.117 156.016 496.75 156.18 497.453 156.391C498.18 156.602 498.883 156.695 499.07 156.625C499.586 156.438 502.094 151.281 501.859 150.906C501.273 150.016 492.695 146.688 491.828 147.016C491.641 147.086 491.336 147.602 491.102 148.188C489.742 151.75 484.516 151.844 482.945 148.305C482.523 147.32 482.148 146.852 481.844 146.898C481.773 146.898 480.883 147.156 479.852 147.438Z" fill="black"/>
<path id="Vector_46" d="M484.422 147.766C484.422 148.516 485.852 149.453 487 149.453C488.148 149.453 489.578 148.516 489.578 147.766C489.578 147.719 488.43 147.672 487 147.672C485.594 147.672 484.422 147.719 484.422 147.766Z" fill="black"/>
</g>
</g>
</g>
<g id="Store-310">
<g id="Rectangle 17" filter="url(#filter8_d_1_2)">
<rect x="533" y="253" width="45" height="37" transform="rotate(-90 533 253)" fill="#7BB0C5"/>
</g>
<g id="close 4">
<g id="Group_30">
<path id="Vector_47" d="M544.852 217.438C542.742 218.047 537.469 220.438 537.141 220.906C536.906 221.281 539.414 226.438 539.93 226.625C540.117 226.695 540.82 226.602 541.547 226.391C542.25 226.18 542.883 226.016 542.953 226.016C543.023 226.016 543.094 229.766 543.094 234.336C543.094 242.305 543.117 242.656 543.539 242.891C544.172 243.219 559.828 243.219 560.461 242.891C560.883 242.656 560.906 242.305 560.906 234.336C560.906 229.766 560.977 226.016 561.047 226.016C561.117 226.016 561.75 226.18 562.453 226.391C563.18 226.602 563.883 226.695 564.07 226.625C564.586 226.438 567.094 221.281 566.859 220.906C566.273 220.016 557.695 216.688 556.828 217.016C556.641 217.086 556.336 217.602 556.102 218.188C554.742 221.75 549.516 221.844 547.945 218.305C547.523 217.32 547.148 216.852 546.844 216.898C546.773 216.898 545.883 217.156 544.852 217.438Z" fill="black"/>
<path id="Vector_48" d="M549.422 217.766C549.422 218.516 550.852 219.453 552 219.453C553.148 219.453 554.578 218.516 554.578 217.766C554.578 217.719 553.43 217.672 552 217.672C550.594 217.672 549.422 217.719 549.422 217.766Z" fill="black"/>
</g>
</g>
</g>
<g id="Store-312">
<g id="Rectangle 14" filter="url(#filter9_d_1_2)">
<rect x="562" y="183" width="45" height="37" transform="rotate(-90 562 183)" fill="#7BB0C5"/>
</g>
<g id="close 3">
<g id="Group_31">
<path id="Vector_49" d="M573.852 147.438C571.742 148.047 566.469 150.438 566.141 150.906C565.906 151.281 568.414 156.438 568.93 156.625C569.117 156.695 569.82 156.602 570.547 156.391C571.25 156.18 571.883 156.016 571.953 156.016C572.023 156.016 572.094 159.766 572.094 164.336C572.094 172.305 572.117 172.656 572.539 172.891C573.172 173.219 588.828 173.219 589.461 172.891C589.883 172.656 589.906 172.305 589.906 164.336C589.906 159.766 589.977 156.016 590.047 156.016C590.117 156.016 590.75 156.18 591.453 156.391C592.18 156.602 592.883 156.695 593.07 156.625C593.586 156.438 596.094 151.281 595.859 150.906C595.273 150.016 586.695 146.688 585.828 147.016C585.641 147.086 585.336 147.602 585.102 148.188C583.742 151.75 578.516 151.844 576.945 148.305C576.523 147.32 576.148 146.852 575.844 146.898C575.773 146.898 574.883 147.156 573.852 147.438Z" fill="black"/>
<path id="Vector_50" d="M578.422 147.766C578.422 148.516 579.852 149.453 581 149.453C582.148 149.453 583.578 148.516 583.578 147.766C583.578 147.719 582.43 147.672 581 147.672C579.594 147.672 578.422 147.719 578.422 147.766Z" fill="black"/>
</g>
</g>
</g>
<g id="Store-311">
<g id="Rectangle 15" filter="url(#filter10_d_1_2)">
<rect x="515" y="183" width="45" height="37" transform="rotate(-90 515 183)" fill="#7BB0C5"/>
</g>
<g id="shoes 1">
<g id="Group_32">
<path id="Vector_51" d="M525.664 146.727C524.938 147.5 524.328 148.203 524.328 148.297C524.328 148.391 524.891 149.07 525.594 149.797C526.953 151.227 527.328 152.187 527.047 153.641C526.953 154.086 526.695 154.695 526.438 155.023L525.969 155.609L531.875 161.281C535.133 164.398 538.133 167.117 538.555 167.281C539.094 167.516 540.336 167.609 542.727 167.609H546.125V166.25C546.125 163.648 544.789 162.219 542.328 162.219C540.969 162.219 540.969 162.219 540.57 161.328C540.336 160.859 540.125 160.414 540.102 160.367C540.078 160.32 539.469 160.508 538.766 160.812C538.062 161.094 537.359 161.258 537.242 161.164C536.68 160.836 537.055 160.367 538.273 159.852C539.656 159.266 539.68 159.242 539.305 158.375L539.047 157.812L537.734 158.258C536.562 158.656 536.375 158.68 536.07 158.352C535.602 157.906 535.859 157.695 537.406 157.18C538.062 156.969 538.625 156.758 538.625 156.711C538.625 156.43 537.805 154.953 537.641 154.953C537.547 154.953 537.008 155.187 536.422 155.445C535.438 155.937 534.641 155.937 534.641 155.422C534.641 155.281 535.227 154.906 535.93 154.555C536.633 154.203 537.219 153.781 537.219 153.617C537.219 153.453 537.031 152.961 536.82 152.492C536.375 151.555 536.07 151.508 534.383 152.047C533.375 152.375 533.047 152.398 532.227 152.141C530.047 151.508 529.039 150.148 529.062 147.922C529.062 146.492 528.477 145.508 527.562 145.391C527.141 145.344 526.695 145.648 525.664 146.727Z" fill="black"/>
<path id="Vector_52" d="M522.477 150.148L521.469 151.25L523.18 152.984C524.141 153.945 525.078 154.695 525.266 154.672C525.781 154.555 526.18 153.148 525.945 152.188C525.828 151.672 525.336 150.922 524.609 150.219L523.484 149.07L522.477 150.148Z" fill="black"/>
<path id="Vector_53" d="M520.391 152.422C520.016 152.891 519.805 153.945 519.992 154.648C520.18 155.422 533.516 168.945 535.086 169.977C536.141 170.656 536.141 170.656 539.984 170.656C544.203 170.656 544.766 170.516 545.516 169.227L545.914 168.547H542.445C539.68 168.547 538.812 168.453 538.086 168.125C537.594 167.891 533.773 164.445 529.109 159.992C524.633 155.727 520.906 152.234 520.812 152.188C520.719 152.164 520.531 152.258 520.391 152.422Z" fill="black"/>
</g>
</g>
</g>
<g id="Store-313">
<g id="Rectangle 16" filter="url(#filter11_d_1_2)">
<rect x="578" y="253" width="45" height="37" transform="rotate(-90 578 253)" fill="#7BB0C5"/>
</g>
<g id="shoes 2">
<g id="Group_33">
<path id="Vector_54" d="M588.664 218.727C587.938 219.5 587.328 220.203 587.328 220.297C587.328 220.391 587.891 221.07 588.594 221.797C589.953 223.227 590.328 224.187 590.047 225.641C589.953 226.086 589.695 226.695 589.438 227.023L588.969 227.609L594.875 233.281C598.133 236.398 601.133 239.117 601.555 239.281C602.094 239.516 603.336 239.609 605.727 239.609H609.125V238.25C609.125 235.648 607.789 234.219 605.328 234.219C603.969 234.219 603.969 234.219 603.57 233.328C603.336 232.859 603.125 232.414 603.102 232.367C603.078 232.32 602.469 232.508 601.766 232.812C601.062 233.094 600.359 233.258 600.242 233.164C599.68 232.836 600.055 232.367 601.273 231.852C602.656 231.266 602.68 231.242 602.305 230.375L602.047 229.812L600.734 230.258C599.562 230.656 599.375 230.68 599.07 230.352C598.602 229.906 598.859 229.695 600.406 229.18C601.062 228.969 601.625 228.758 601.625 228.711C601.625 228.43 600.805 226.953 600.641 226.953C600.547 226.953 600.008 227.187 599.422 227.445C598.438 227.937 597.641 227.937 597.641 227.422C597.641 227.281 598.227 226.906 598.93 226.555C599.633 226.203 600.219 225.781 600.219 225.617C600.219 225.453 600.031 224.961 599.82 224.492C599.375 223.555 599.07 223.508 597.383 224.047C596.375 224.375 596.047 224.398 595.227 224.141C593.047 223.508 592.039 222.148 592.062 219.922C592.062 218.492 591.477 217.508 590.562 217.391C590.141 217.344 589.695 217.648 588.664 218.727Z" fill="black"/>
<path id="Vector_55" d="M585.477 222.148L584.469 223.25L586.18 224.984C587.141 225.945 588.078 226.695 588.266 226.672C588.781 226.555 589.18 225.148 588.945 224.188C588.828 223.672 588.336 222.922 587.609 222.219L586.484 221.07L585.477 222.148Z" fill="black"/>
<path id="Vector_56" d="M583.391 224.422C583.016 224.891 582.805 225.945 582.992 226.648C583.18 227.422 596.516 240.945 598.086 241.977C599.141 242.656 599.141 242.656 602.984 242.656C607.203 242.656 607.766 242.516 608.516 241.227L608.914 240.547H605.445C602.68 240.547 601.812 240.453 601.086 240.125C600.594 239.891 596.773 236.445 592.109 231.992C587.633 227.727 583.906 224.234 583.812 224.188C583.719 224.164 583.531 224.258 583.391 224.422Z" fill="black"/>
</g>
</g>
</g>
</g>
<defs>
<filter id="filter0_d_1_2" x="143" y="361" width="45" height="53" filterUnits="userSpaceOnUse" color-interpolation-filters="sRGB">
<feFlood flood-opacity="0" result="BackgroundImageFix"/>
<feColorMatrix in="SourceAlpha" type="matrix" values="0 0 0 0 0 0 0 0 0 0 0 0 0 0 0 0 0 0 127 0" result="hardAlpha"/>
<feOffset dy="4"/>
<feGaussianBlur stdDeviation="2"/>
<feComposite in2="hardAlpha" operator="out"/>
<feColorMatrix type="matrix" values="0 0 0 0 0 0 0 0 0 0 0 0 0 0 0 0 0 0 0.25 0"/>
<feBlend mode="normal" in2="BackgroundImageFix" result="effect1_dropShadow_1_2"/>
<feBlend mode="normal" in="SourceGraphic" in2="effect1_dropShadow_1_2" result="shape"/>
</filter>
<filter id="filter1_d_1_2" x="196" y="361" width="45" height="53" filterUnits="userSpaceOnUse" color-interpolation-filters="sRGB">
<feFlood flood-opacity="0" result="BackgroundImageFix"/>
<feColorMatrix in="SourceAlpha" type="matrix" values="0 0 0 0 0 0 0 0 0 0 0 0 0 0 0 0 0 0 127 0" result="hardAlpha"/>
<feOffset dy="4"/>
<feGaussianBlur stdDeviation="2"/>
<feComposite in2="hardAlpha" operator="out"/>
<feColorMatrix type="matrix" values="0 0 0 0 0 0 0 0 0 0 0 0 0 0 0 0 0 0 0.25 0"/>
<feBlend mode="normal" in2="BackgroundImageFix" result="effect1_dropShadow_1_2"/>
<feBlend mode="normal" in="SourceGraphic" in2="effect1_dropShadow_1_2" result="shape"/>
</filter>
<filter id="filter2_d_1_2" x="252" y="361" width="45" height="53" filterUnits="userSpaceOnUse" color-interpolation-filters="sRGB">
<feFlood flood-opacity="0" result="BackgroundImageFix"/>
<feColorMatrix in="SourceAlpha" type="matrix" values="0 0 0 0 0 0 0 0 0 0 0 0 0 0 0 0 0 0 127 0" result="hardAlpha"/>
<feOffset dy="4"/>
<feGaussianBlur stdDeviation="2"/>
<feComposite in2="hardAlpha" operator="out"/>
<feColorMatrix type="matrix" values="0 0 0 0 0 0 0 0 0 0 0 0 0 0 0 0 0 0 0.25 0"/>
<feBlend mode="normal" in2="BackgroundImageFix" result="effect1_dropShadow_1_2"/>
<feBlend mode="normal" in="SourceGraphic" in2="effect1_dropShadow_1_2" result="shape"/>
</filter>
<filter id="filter3_d_1_2" x="443" y="386" width="45" height="53" filterUnits="userSpaceOnUse" color-interpolation-filters="sRGB">
<feFlood flood-opacity="0" result="BackgroundImageFix"/>
<feColorMatrix in="SourceAlpha" type="matrix" values="0 0 0 0 0 0 0 0 0 0 0 0 0 0 0 0 0 0 127 0" result="hardAlpha"/>
<feOffset dy="4"/>
<feGaussianBlur stdDeviation="2"/>
<feComposite in2="hardAlpha" operator="out"/>
<feColorMatrix type="matrix" values="0 0 0 0 0 0 0 0 0 0 0 0 0 0 0 0 0 0 0.25 0"/>
<feBlend mode="normal" in2="BackgroundImageFix" result="effect1_dropShadow_1_2"/>
<feBlend mode="normal" in="SourceGraphic" in2="effect1_dropShadow_1_2" result="shape"/>
</filter>
<filter id="filter4_d_1_2" x="410" y="287" width="45" height="53" filterUnits="userSpaceOnUse" color-interpolation-filters="sRGB">
<feFlood flood-opacity="0" result="BackgroundImageFix"/>
<feColorMatrix in="SourceAlpha" type="matrix" values="0 0 0 0 0 0 0 0 0 0 0 0 0 0 0 0 0 0 127 0" result="hardAlpha"/>
<feOffset dy="4"/>
<feGaussianBlur stdDeviation="2"/>
<feComposite in2="hardAlpha" operator="out"/>
<feColorMatrix type="matrix" values="0 0 0 0 0 0 0 0 0 0 0 0 0 0 0 0 0 0 0.25 0"/>
<feBlend mode="normal" in2="BackgroundImageFix" result="effect1_dropShadow_1_2"/>
<feBlend mode="normal" in="SourceGraphic" in2="effect1_dropShadow_1_2" result="shape"/>
</filter>
<filter id="filter5_d_1_2" x="410" y="228" width="45" height="53" filterUnits="userSpaceOnUse" color-interpolation-filters="sRGB">
<feFlood flood-opacity="0" result="BackgroundImageFix"/>
<feColorMatrix in="SourceAlpha" type="matrix" values="0 0 0 0 0 0 0 0 0 0 0 0 0 0 0 0 0 0 127 0" result="hardAlpha"/>
<feOffset dy="4"/>
<feGaussianBlur stdDeviation="2"/>
<feComposite in2="hardAlpha" operator="out"/>
<feColorMatrix type="matrix" values="0 0 0 0 0 0 0 0 0 0 0 0 0 0 0 0 0 0 0.25 0"/>
<feBlend mode="normal" in2="BackgroundImageFix" result="effect1_dropShadow_1_2"/>
<feBlend mode="normal" in="SourceGraphic" in2="effect1_dropShadow_1_2" result="shape"/>
</filter>
<filter id="filter6_d_1_2" x="482" y="208" width="45" height="53" filterUnits="userSpaceOnUse" color-interpolation-filters="sRGB">
<feFlood flood-opacity="0" result="BackgroundImageFix"/>
<feColorMatrix in="SourceAlpha" type="matrix" values="0 0 0 0 0 0 0 0 0 0 0 0 0 0 0 0 0 0 127 0" result="hardAlpha"/>
<feOffset dy="4"/>
<feGaussianBlur stdDeviation="2"/>
<feComposite in2="hardAlpha" operator="out"/>
<feColorMatrix type="matrix" values="0 0 0 0 0 0 0 0 0 0 0 0 0 0 0 0 0 0 0.25 0"/>
<feBlend mode="normal" in2="BackgroundImageFix" result="effect1_dropShadow_1_2"/>
<feBlend mode="normal" in="SourceGraphic" in2="effect1_dropShadow_1_2" result="shape"/>
</filter>
<filter id="filter7_d_1_2" x="464" y="138" width="45" height="53" filterUnits="userSpaceOnUse" color-interpolation-filters="sRGB">
<feFlood flood-opacity="0" result="BackgroundImageFix"/>
<feColorMatrix in="SourceAlpha" type="matrix" values="0 0 0 0 0 0 0 0 0 0 0 0 0 0 0 0 0 0 127 0" result="hardAlpha"/>
<feOffset dy="4"/>
<feGaussianBlur stdDeviation="2"/>
<feComposite in2="hardAlpha" operator="out"/>
<feColorMatrix type="matrix" values="0 0 0 0 0 0 0 0 0 0 0 0 0 0 0 0 0 0 0.25 0"/>
<feBlend mode="normal" in2="BackgroundImageFix" result="effect1_dropShadow_1_2"/>
<feBlend mode="normal" in="SourceGraphic" in2="effect1_dropShadow_1_2" result="shape"/>
</filter>
<filter id="filter8_d_1_2" x="529" y="208" width="45" height="53" filterUnits="userSpaceOnUse" color-interpolation-filters="sRGB">
<feFlood flood-opacity="0" result="BackgroundImageFix"/>
<feColorMatrix in="SourceAlpha" type="matrix" values="0 0 0 0 0 0 0 0 0 0 0 0 0 0 0 0 0 0 127 0" result="hardAlpha"/>
<feOffset dy="4"/>
<feGaussianBlur stdDeviation="2"/>
<feComposite in2="hardAlpha" operator="out"/>
<feColorMatrix type="matrix" values="0 0 0 0 0 0 0 0 0 0 0 0 0 0 0 0 0 0 0.25 0"/>
<feBlend mode="normal" in2="BackgroundImageFix" result="effect1_dropShadow_1_2"/>
<feBlend mode="normal" in="SourceGraphic" in2="effect1_dropShadow_1_2" result="shape"/>
</filter>
<filter id="filter9_d_1_2" x="558" y="138" width="45" height="53" filterUnits="userSpaceOnUse" color-interpolation-filters="sRGB">
<feFlood flood-opacity="0" result="BackgroundImageFix"/>
<feColorMatrix in="SourceAlpha" type="matrix" values="0 0 0 0 0 0 0 0 0 0 0 0 0 0 0 0 0 0 127 0" result="hardAlpha"/>
<feOffset dy="4"/>
<feGaussianBlur stdDeviation="2"/>
<feComposite in2="hardAlpha" operator="out"/>
<feColorMatrix type="matrix" values="0 0 0 0 0 0 0 0 0 0 0 0 0 0 0 0 0 0 0.25 0"/>
<feBlend mode="normal" in2="BackgroundImageFix" result="effect1_dropShadow_1_2"/>
<feBlend mode="normal" in="SourceGraphic" in2="effect1_dropShadow_1_2" result="shape"/>
</filter>
<filter id="filter10_d_1_2" x="511" y="138" width="45" height="53" filterUnits="userSpaceOnUse" color-interpolation-filters="sRGB">
<feFlood flood-opacity="0" result="BackgroundImageFix"/>
<feColorMatrix in="SourceAlpha" type="matrix" values="0 0 0 0 0 0 0 0 0 0 0 0 0 0 0 0 0 0 127 0" result="hardAlpha"/>
<feOffset dy="4"/>
<feGaussianBlur stdDeviation="2"/>
<feComposite in2="hardAlpha" operator="out"/>
<feColorMatrix type="matrix" values="0 0 0 0 0 0 0 0 0 0 0 0 0 0 0 0 0 0 0.25 0"/>
<feBlend mode="normal" in2="BackgroundImageFix" result="effect1_dropShadow_1_2"/>
<feBlend mode="normal" in="SourceGraphic" in2="effect1_dropShadow_1_2" result="shape"/>
</filter>
<filter id="filter11_d_1_2" x="574" y="208" width="45" height="53" filterUnits="userSpaceOnUse" color-interpolation-filters="sRGB">
<feFlood flood-opacity="0" result="BackgroundImageFix"/>
<feColorMatrix in="SourceAlpha" type="matrix" values="0 0 0 0 0 0 0 0 0 0 0 0 0 0 0 0 0 0 127 0" result="hardAlpha"/>
<feOffset dy="4"/>
<feGaussianBlur stdDeviation="2"/>
<feComposite in2="hardAlpha" operator="out"/>
<feColorMatrix type="matrix" values="0 0 0 0 0 0 0 0 0 0 0 0 0 0 0 0 0 0 0.25 0"/>
<feBlend mode="normal" in2="BackgroundImageFix" result="effect1_dropShadow_1_2"/>
<feBlend mode="normal" in="SourceGraphic" in2="effect1_dropShadow_1_2" result="shape"/>
</filter>
</defs>
</svg>
